<?xml version="1.0" encoding="UTF-8" standalone="no"?>
<!-- Created with Inkscape (http://www.inkscape.org/) -->

<svg
   width="128"
   height="128"
   viewBox="0 0 33.866666 33.866666"
   version="1.1"
   id="svg1"
   inkscape:version="1.1.2 (0a00cf5339, 2022-02-04)"
   sodipodi:docname="CircleSolid.svg"
   xmlns:inkscape="http://www.inkscape.org/namespaces/inkscape"
   xmlns:sodipodi="http://sodipodi.sourceforge.net/DTD/sodipodi-0.dtd"
   xmlns="http://www.w3.org/2000/svg"
   xmlns:svg="http://www.w3.org/2000/svg">
  <sodipodi:namedview
     id="namedview1"
     pagecolor="#ffffff"
     bordercolor="#000000"
     borderopacity="0.25"
     inkscape:showpageshadow="2"
     inkscape:pageopacity="0.0"
     inkscape:pagecheckerboard="0"
     inkscape:deskcolor="#d1d1d1"
     inkscape:document-units="mm"
     inkscape:zoom="4"
     inkscape:cx="21.625"
     inkscape:cy="94.125"
     inkscape:window-width="1920"
     inkscape:window-height="966"
     inkscape:window-x="0"
     inkscape:window-y="0"
     inkscape:window-maximized="1"
     inkscape:current-layer="layer1"
     inkscape:pageshadow="2"
     showgrid="false" />
  <defs
     id="defs1">
    <marker
       id="marker2288"
       refX="5.0"
       refY="3.0"
       orient="auto-start-reverse"
       inkscape:stockid="ExperimentalArrow"
       inkscape:isstock="true">
      <path
         style="fill:context-stroke"
         d="m 10,3 -10,3 0,-6 z"
         id="path2286" />
    </marker>
    <marker
       id="ExperimentalArrow"
       refX="5.0"
       refY="3.0"
       orient="auto-start-reverse"
       inkscape:stockid="ExperimentalArrow"
       inkscape:isstock="true">
      <path
         style="fill:context-stroke"
         d="m 10,3 -10,3 0,-6 z"
         id="path2094" />
    </marker>
    <marker
       style="overflow:visible"
       id="marker2270"
       refX="0.0"
       refY="0.0"
       orient="auto"
       inkscape:stockid="TriangleOutL"
       inkscape:isstock="true">
      <path
         transform="scale(0.8)"
         style="fill-rule:evenodd;fill:context-stroke;stroke:context-stroke;stroke-width:1.0pt"
         d="M 5.77,0.0 L -2.88,5.0 L -2.88,-5.0 L 5.77,0.0 z "
         id="path2268" />
    </marker>
    <marker
       style="overflow:visible"
       id="TriangleInS"
       refX="0.0"
       refY="0.0"
       orient="auto"
       inkscape:stockid="TriangleInS"
       inkscape:isstock="true">
      <path
         transform="scale(-0.2)"
         style="fill-rule:evenodd;fill:context-stroke;stroke:context-stroke;stroke-width:1.0pt"
         d="M 5.77,0.0 L -2.88,5.0 L -2.88,-5.0 L 5.77,0.0 z "
         id="path1980" />
    </marker>
    <marker
       style="overflow:visible"
       id="TriangleOutL"
       refX="0.0"
       refY="0.0"
       orient="auto"
       inkscape:stockid="TriangleOutL"
       inkscape:isstock="true">
      <path
         transform="scale(0.8)"
         style="fill-rule:evenodd;fill:context-stroke;stroke:context-stroke;stroke-width:1.0pt"
         d="M 5.77,0.0 L -2.88,5.0 L -2.88,-5.0 L 5.77,0.0 z "
         id="path1983" />
    </marker>
    <marker
       style="overflow:visible"
       id="TriangleInL"
       refX="0.0"
       refY="0.0"
       orient="auto"
       inkscape:stockid="TriangleInL"
       inkscape:isstock="true">
      <path
         transform="scale(-0.8)"
         style="fill-rule:evenodd;fill:context-stroke;stroke:context-stroke;stroke-width:1.0pt"
         d="M 5.77,0.0 L -2.88,5.0 L -2.88,-5.0 L 5.77,0.0 z "
         id="path1974" />
    </marker>
    <marker
       style="overflow:visible"
       id="marker2236"
       refX="0.0"
       refY="0.0"
       orient="auto"
       inkscape:stockid="Arrow2Mstart"
       inkscape:isstock="true">
      <path
         transform="scale(0.6) translate(0,0)"
         d="M 8.7185878,4.0337352 L -2.2072895,0.016013256 L 8.7185884,-4.0017078 C 6.9730900,-1.6296469 6.9831476,1.6157441 8.7185878,4.0337352 z "
         style="stroke:context-stroke;fill-rule:evenodd;fill:context-stroke;stroke-width:0.62500000;stroke-linejoin:round"
         id="path2234" />
    </marker>
    <marker
       style="overflow:visible"
       id="marker2226"
       refX="0.0"
       refY="0.0"
       orient="auto"
       inkscape:stockid="Arrow1Sstart"
       inkscape:isstock="true">
      <path
         transform="scale(0.2) translate(6,0)"
         style="fill-rule:evenodd;fill:context-stroke;stroke:context-stroke;stroke-width:1.0pt"
         d="M 0.0,0.0 L 5.0,-5.0 L -12.5,0.0 L 5.0,5.0 L 0.0,0.0 z "
         id="path2224" />
    </marker>
    <marker
       style="overflow:visible"
       id="marker2151"
       refX="0.0"
       refY="0.0"
       orient="auto"
       inkscape:stockid="Arrow1Sstart"
       inkscape:isstock="true">
      <path
         transform="scale(0.2) translate(6,0)"
         style="fill-rule:evenodd;fill:context-stroke;stroke:context-stroke;stroke-width:1.0pt"
         d="M 0.0,0.0 L 5.0,-5.0 L -12.5,0.0 L 5.0,5.0 L 0.0,0.0 z "
         id="path2149" />
    </marker>
    <marker
       style="overflow:visible"
       id="Arrow1Sstart"
       refX="0.0"
       refY="0.0"
       orient="auto"
       inkscape:stockid="Arrow1Sstart"
       inkscape:isstock="true">
      <path
         transform="scale(0.2) translate(6,0)"
         style="fill-rule:evenodd;fill:context-stroke;stroke:context-stroke;stroke-width:1.0pt"
         d="M 0.0,0.0 L 5.0,-5.0 L -12.5,0.0 L 5.0,5.0 L 0.0,0.0 z "
         id="path1853" />
    </marker>
    <marker
       style="overflow:visible"
       id="Arrow2Mstart"
       refX="0.0"
       refY="0.0"
       orient="auto"
       inkscape:stockid="Arrow2Mstart"
       inkscape:isstock="true">
      <path
         transform="scale(0.6) translate(0,0)"
         d="M 8.7185878,4.0337352 L -2.2072895,0.016013256 L 8.7185884,-4.0017078 C 6.9730900,-1.6296469 6.9831476,1.6157441 8.7185878,4.0337352 z "
         style="stroke:context-stroke;fill-rule:evenodd;fill:context-stroke;stroke-width:0.62500000;stroke-linejoin:round"
         id="path1865" />
    </marker>
    <marker
       style="overflow:visible"
       id="DotL"
       refX="0.0"
       refY="0.0"
       orient="auto"
       inkscape:stockid="DotL"
       inkscape:isstock="true">
      <path
         transform="scale(0.8) translate(7.4, 1)"
         style="fill-rule:evenodd;fill:context-stroke;stroke:context-stroke;stroke-width:1.0pt"
         d="M -2.5,-1.0 C -2.5,1.7600000 -4.7400000,4.0 -7.5,4.0 C -10.260000,4.0 -12.5,1.7600000 -12.5,-1.0 C -12.5,-3.7600000 -10.260000,-6.0 -7.5,-6.0 C -4.7400000,-6.0 -2.5,-3.7600000 -2.5,-1.0 z "
         id="path1902" />
    </marker>
    <marker
       style="overflow:visible"
       id="EmptyDiamondLstart"
       refX="0.0"
       refY="0.0"
       orient="auto"
       inkscape:stockid="EmptyDiamondLstart"
       inkscape:isstock="true">
      <path
         transform="scale(0.8) translate(7,0)"
         style="fill-rule:evenodd;fill:context-fill;stroke:context-stroke;stroke-width:1.0pt"
         d="M 0,-7.0710768 L -7.0710894,0 L 0,7.0710589 L 7.0710462,0 L 0,-7.0710768 z "
         id="path1956" />
    </marker>
    <marker
       style="overflow:visible;"
       id="Arrow1Lend"
       refX="0.0"
       refY="0.0"
       orient="auto"
       inkscape:stockid="Arrow1Lend"
       inkscape:isstock="true">
      <path
         transform="scale(0.8) rotate(180) translate(12.5,0)"
         style="fill-rule:evenodd;fill:context-stroke;stroke:context-stroke;stroke-width:1.0pt;"
         d="M 0.0,0.0 L 5.0,-5.0 L -12.5,0.0 L 5.0,5.0 L 0.0,0.0 z "
         id="path1844" />
    </marker>
    <marker
       style="overflow:visible"
       id="Arrow1Lstart"
       refX="0.0"
       refY="0.0"
       orient="auto"
       inkscape:stockid="Arrow1Lstart"
       inkscape:isstock="true">
      <path
         transform="scale(0.8) translate(12.5,0)"
         style="fill-rule:evenodd;fill:context-stroke;stroke:context-stroke;stroke-width:1.0pt"
         d="M 0.0,0.0 L 5.0,-5.0 L -12.5,0.0 L 5.0,5.0 L 0.0,0.0 z "
         id="path1841" />
    </marker>
    <marker
       id="ExperimentalArrow-3"
       refX="5"
       refY="3"
       orient="auto-start-reverse"
       inkscape:stockid="ExperimentalArrow"
       inkscape:isstock="true">
      <path
         style="fill:context-stroke"
         d="M 10,3 0,6 V 0 Z"
         id="path2094-5" />
    </marker>
    <marker
       id="marker2288-6"
       refX="5"
       refY="3"
       orient="auto-start-reverse"
       inkscape:stockid="ExperimentalArrow"
       inkscape:isstock="true">
      <path
         style="fill:context-stroke"
         d="M 10,3 0,6 V 0 Z"
         id="path2286-2" />
    </marker>
    <marker
       id="ExperimentalArrow-36"
       refX="5"
       refY="3"
       orient="auto-start-reverse"
       inkscape:stockid="ExperimentalArrow"
       inkscape:isstock="true">
      <path
         style="fill:context-stroke"
         d="M 10,3 0,6 V 0 Z"
         id="path2094-0" />
    </marker>
    <marker
       id="marker2288-62"
       refX="5"
       refY="3"
       orient="auto-start-reverse"
       inkscape:stockid="ExperimentalArrow"
       inkscape:isstock="true">
      <path
         style="fill:context-stroke"
         d="M 10,3 0,6 V 0 Z"
         id="path2286-6" />
    </marker>
  </defs>
  <g
     inkscape:label="Katman 1"
     inkscape:groupmode="layer"
     id="layer1">
    <path
       style="fill:none;stroke:#000000;stroke-width:0.0982227;stroke-linecap:butt;stroke-linejoin:miter;stroke-miterlimit:4;stroke-dasharray:0.392891, 0.196445, 0.0982227, 0.196445;stroke-dashoffset:0;stroke-opacity:1"
       d="M 16.933333,3.4050661 V 30.371819"
       id="path2222-9-1" />
    <path
       style="fill:none;stroke:#000000;stroke-width:0.1;stroke-linecap:butt;stroke-linejoin:miter;stroke-miterlimit:4;stroke-dasharray:none;stroke-opacity:1;marker-start:url(#DotL);marker-end:url(#DotL)"
       d="M 5.6113945,4.018349 H 28.190676"
       id="path2222" />
    <rect
       style="fill:#ffffff;fill-opacity:1;stroke:none;stroke-width:0.1;stroke-miterlimit:4;stroke-dasharray:none;stroke-dashoffset:0;stroke-opacity:0.875694"
       id="rect3063"
       width="8.1641006"
       height="3.77548"
       x="13.036672"
       y="1.8376141"
       rx="4.99999"
       ry="3.77548" />
    <g
       aria-label="OD"
       transform="matrix(1.2135072,0,0,0.82405774,0,0.52916667)"
       id="text1"
       style="font-size:2.64583px;stroke:#ed5f87;stroke-width:0.369;stroke-opacity:0.702194">
      <path
         d="m 14.018796,3.9450227 q 0,0.2143122 -0.03969,0.3915828 -0.03704,0.1746248 -0.119063,0.3016246 -0.07938,0.124354 -0.203729,0.1931456 -0.121708,0.068792 -0.288395,0.068792 -0.166687,0 -0.291041,-0.068792 -0.121708,-0.068792 -0.203729,-0.1931456 -0.07937,-0.1269998 -0.119063,-0.3016246 -0.03969,-0.1772706 -0.03969,-0.3915828 0,-0.2143122 0.03969,-0.3915828 0.03969,-0.1772707 0.119063,-0.3016247 0.08202,-0.1269998 0.203729,-0.1957914 0.124354,-0.071437 0.291041,-0.071437 0.166687,0 0.288395,0.071437 0.124354,0.068792 0.203729,0.1957914 0.08202,0.124354 0.119063,0.3016247 0.03969,0.1772706 0.03969,0.3915828 z m -0.254,0 q 0,-0.1666873 -0.02117,-0.3042705 -0.02117,-0.1375831 -0.06879,-0.2354788 -0.04763,-0.1005416 -0.124354,-0.156104 -0.07408,-0.055562 -0.182562,-0.055562 -0.108479,0 -0.185208,0.055562 -0.07408,0.055562 -0.121708,0.156104 -0.04763,0.097896 -0.07144,0.2354788 -0.02117,0.1375832 -0.02117,0.3042705 0,0.1666873 0.02117,0.3042704 0.02381,0.1375832 0.07144,0.2354789 0.04763,0.097896 0.121708,0.1534581 0.07673,0.052917 0.185208,0.052917 0.108479,0 0.182562,-0.052917 0.07673,-0.055562 0.124354,-0.1534581 0.04763,-0.097896 0.06879,-0.2354789 0.02117,-0.1375831 0.02117,-0.3042704 z"
         style="font-family:'Ubuntu Condensed';-inkscape-font-specification:'Ubuntu Condensed, ';stroke:none"
         id="path19351" />
      <path
         d="m 15.545439,3.9423769 q 0,0.2566455 -0.05556,0.4365619 -0.05292,0.1772706 -0.156104,0.2883954 -0.100541,0.1111249 -0.246062,0.1613957 -0.142875,0.050271 -0.320145,0.050271 -0.179917,0 -0.381,-0.047625 V 3.053378 q 0.100542,-0.021167 0.195792,-0.034396 0.09525,-0.013229 0.182562,-0.013229 0.179916,0 0.322791,0.050271 0.145521,0.050271 0.246062,0.1613957 0.103188,0.1111248 0.156104,0.2910412 0.05556,0.1772706 0.05556,0.433916 z m -0.254,0 q 0,-0.1957915 -0.0291,-0.3333746 -0.0291,-0.1375832 -0.08996,-0.2248956 -0.06085,-0.087312 -0.161396,-0.1269998 -0.0979,-0.039687 -0.235479,-0.039687 -0.03704,0 -0.07408,0.00265 -0.03704,0.00265 -0.07673,0.00794 V 4.656758 q 0.03969,0.00529 0.07673,0.00794 0.03704,0.00265 0.07144,0.00265 0.140229,0 0.238125,-0.039687 0.0979,-0.039687 0.15875,-0.124354 0.0635,-0.087312 0.0926,-0.2248955 0.0291,-0.1375832 0.0291,-0.3360204 z"
         style="font-family:'Ubuntu Condensed';-inkscape-font-specification:'Ubuntu Condensed, ';stroke:none"
         id="path19353" />
    </g>
    <circle
       style="fill:#1b1f40;fill-opacity:0.7;stroke:none;stroke-width:3.91418;stroke-miterlimit:4;stroke-dasharray:none;stroke-opacity:0.702194"
       id="path1"
       cx="16.933332"
       cy="18.521795"
       r="11.197918" />
    <path
       style="fill:none;stroke:#000000;stroke-width:0.100773;stroke-linecap:butt;stroke-linejoin:miter;stroke-miterlimit:4;stroke-dasharray:0.403094, 0.201543, 0.100773, 0.201543;stroke-dashoffset:0;stroke-opacity:1"
       d="M 3.0998334,17.136805 H 30.766833"
       id="path2222-9" />
    <path
       style="fill:none;stroke:#000000;stroke-width:0.0600579;stroke-linecap:butt;stroke-linejoin:miter;stroke-miterlimit:4;stroke-dasharray:none;stroke-dashoffset:0;stroke-opacity:0.875694"
       d="M 5.6625123,3.0142149 V 16.49759"
       id="path2222-9-2" />
    <path
       style="fill:none;stroke:#000000;stroke-width:0.0600579;stroke-linecap:butt;stroke-linejoin:miter;stroke-miterlimit:4;stroke-dasharray:none;stroke-dashoffset:0;stroke-opacity:0.875694"
       d="M 28.209641,3.4733176 V 16.956693"
       id="path2222-9-2-7" />
  </g>
</svg>
