<?xml version="1.0" encoding="UTF-8" standalone="no"?>
<!-- Created with Inkscape (http://www.inkscape.org/) -->

<svg
   width="64"
   height="64"
   viewBox="0 0 16.933333 16.933333"
   version="1.1"
   id="svg1"
   xml:space="preserve"
   inkscape:version="1.3 (0e150ed6c4, 2023-07-21)"
   sodipodi:docname="icon_step.svg"
   xmlns:inkscape="http://www.inkscape.org/namespaces/inkscape"
   xmlns:sodipodi="http://sodipodi.sourceforge.net/DTD/sodipodi-0.dtd"
   xmlns="http://www.w3.org/2000/svg"
   xmlns:svg="http://www.w3.org/2000/svg"><sodipodi:namedview
     id="namedview1"
     pagecolor="#ffffff"
     bordercolor="#000000"
     borderopacity="0.25"
     inkscape:showpageshadow="2"
     inkscape:pageopacity="0.0"
     inkscape:pagecheckerboard="0"
     inkscape:deskcolor="#d1d1d1"
     inkscape:document-units="mm"
     inkscape:zoom="12.802083"
     inkscape:cx="32.026037"
     inkscape:cy="35.502034"
     inkscape:window-width="2560"
     inkscape:window-height="1506"
     inkscape:window-x="-11"
     inkscape:window-y="-11"
     inkscape:window-maximized="1"
     inkscape:current-layer="layer1" /><defs
     id="defs1" /><g
     inkscape:label="Layer 1"
     inkscape:groupmode="layer"
     id="layer1"><path
       style="fill:#000000"
       id="path1"
       d="" /><path
       style="fill:#000000"
       id="path4"
       d="" /><path
       style="fill:#000000"
       id="path3"
       d="" /><path
       style="fill:#000000"
       id="path5"
       d="" /><g
       id="g17"><path
         style="fill:#0966af;fill-opacity:1;stroke-width:1.00001"
         d="M 4.6863426,15.471521 C 4.444747,15.423504 4.354385,15.393125 4.1328318,15.285441 3.8254056,15.136014 3.5311166,14.81773 3.3841561,14.47571 3.2605074,14.187944 3.2635999,14.342398 3.2635976,8.4575008 3.2635944,3.4874999 3.2676364,2.930421 3.3049402,2.7435322 3.3847444,2.3438247 3.5696194,2.0468654 3.8895639,1.8044734 4.1420093,1.6132175 4.3346598,1.5319171 4.7336309,1.4482662 c 0.056244,-0.011793 1.1319283,-0.022336 2.3904072,-0.02343 2.1630274,-0.00188 2.2903084,4.828e-4 2.3277224,0.043498 0.05862,0.067376 0.7918965,0.7491111 1.0836715,1.007507 0.0694,0.06146 0.156731,0.1405072 0.194066,0.1756601 0.11828,0.1113566 0.671323,0.6216582 0.804498,0.7423192 0.07039,0.063775 0.289284,0.2651065 0.486429,0.4474024 0.197148,0.1822958 0.47315,0.4349891 0.613338,0.5615397 0.140187,0.1265513 0.324023,0.294194 0.408526,0.3725401 0.0845,0.078346 0.204199,0.1876396 0.265989,0.2428751 0.0618,0.055236 0.168403,0.1545148 0.23691,0.2206194 l 0.124554,0.1201904 -0.0068,4.4305332 -0.0068,4.4305332 -0.05448,0.153589 c -0.08493,0.239435 -0.251892,0.507928 -0.398448,0.640734 -0.08824,0.07996 -0.347441,0.266639 -0.370476,0.266816 -0.01115,3.9e-5 -0.05478,0.0184 -0.09696,0.04069 -0.101873,0.05384 -0.347578,0.128185 -0.535187,0.161947 -0.103272,0.01859 -1.298963,0.02653 -3.7454002,0.0249 -2.9214379,-0.0019 -3.6264544,-0.0089 -3.7688103,-0.03721 z M 12.339472,14.9868 c 0.19741,-0.08735 0.393048,-0.210331 0.474903,-0.298532 0.12618,-0.135966 0.232612,-0.284279 0.253442,-0.35317 0.01063,-0.03515 0.02862,-0.07564 0.03998,-0.08996 0.07101,-0.08952 0.07674,-0.455149 0.06974,-4.4479822 l -0.0072,-4.0905367 -1.585083,-0.012783 C 10.006592,5.6811068 9.9995235,5.6808152 9.8340175,5.6215959 9.5111495,5.5060729 9.2951565,5.3135488 9.1364325,4.9998101 l -0.08217,-0.1624285 -0.01278,-1.470037 -0.01279,-1.4700368 -2.0580533,-0.00676 C 5.18548,1.8846878 4.88886,1.8890578 4.7336282,1.9235478 4.2022303,2.0416095 3.8602807,2.4163423 3.8010734,2.9455092 c -0.016462,0.1471483 -0.025811,2.1654594 -0.025925,5.5989216 -7.87e-5,5.8138802 -0.00525,5.5960342 0.1362916,5.8688542 0.035755,0.06892 0.077411,0.139915 0.09257,0.157777 0.1648418,0.194243 0.2553066,0.263725 0.4739605,0.364027 0.084366,0.03871 0.2051641,0.07939 0.2684402,0.0904 0.063278,0.01102 1.7717146,0.01827 3.7965296,0.01612 3.6160567,-0.0038 3.6835277,-0.0048 3.7965297,-0.05481 z M 4.911645,14.540107 c -0.084889,-0.02457 -0.1909605,-0.06361 -0.2357183,-0.08675 -0.1238281,-0.06404 -0.2697966,-0.21931 -0.339685,-0.361347 l -0.062797,-0.127617 -0.00689,-1.808786 -0.00688,-1.808783 H 8.4753476 12.69102 l 0.01598,0.07989 c 0.02762,0.138104 0.01781,3.268363 -0.0108,3.444664 -0.06127,0.377586 -0.252518,0.574332 -0.659132,0.678071 -0.145258,0.03706 -0.510102,0.04098 -3.5664397,0.0383 -3.159209,-0.0028 -3.4157495,-0.0062 -3.5589671,-0.04765 z m 1.8694326,-0.877194 c 0.1575046,-0.0374 0.2881831,-0.123391 0.370831,-0.244005 0.049262,-0.07189 0.063103,-0.128719 0.069064,-0.283531 0.0069,-0.179306 0.0011,-0.204956 -0.078646,-0.347014 -0.064175,-0.114329 -0.1376968,-0.193801 -0.2886813,-0.31206 -0.4462976,-0.34956 -0.5101478,-0.40832 -0.5653809,-0.520304 -0.074846,-0.151756 -0.072521,-0.193498 0.0157,-0.281716 0.1594217,-0.159423 0.3901198,-0.06356 0.4616227,0.191826 0.018006,0.06431 0.047934,0.116931 0.066508,0.116931 0.072677,0 0.3065798,-0.0586 0.3393321,-0.08502 0.050135,-0.04043 0.022117,-0.198715 -0.05998,-0.338799 -0.087533,-0.149364 -0.249312,-0.252207 -0.4589726,-0.291765 -0.3108272,-0.05865 -0.6282352,0.05895 -0.7714591,0.285833 -0.049732,0.07878 -0.060838,0.130481 -0.060838,0.28322 0,0.293496 0.093356,0.434719 0.4601876,0.69615 0.3226817,0.229968 0.5368801,0.466604 0.5368801,0.593112 0,0.101755 -0.1158362,0.186687 -0.2546089,0.186687 -0.1512972,0 -0.2311722,-0.07715 -0.3044029,-0.294006 -0.039762,-0.117744 -0.062521,-0.151987 -0.097924,-0.147339 -0.2852071,0.03745 -0.3401316,0.07027 -0.3401316,0.203253 0,0.122736 0.064101,0.260812 0.1738186,0.374422 0.207682,0.215044 0.4759082,0.288016 0.7870809,0.21412 z m 3.5445654,-0.523019 0.0069,-0.530492 0.230095,-0.01467 c 0.283002,-0.01805 0.450174,-0.09176 0.558989,-0.246468 0.203928,-0.289939 0.105306,-0.830357 -0.175699,-0.962759 -0.130784,-0.06162 -0.3604,-0.09085 -0.722039,-0.0919 l -0.2876185,-3.54e-4 v 1.188813 1.188811 h 0.1912265 0.191225 z m -0.0059,-1.195201 v -0.345142 h 0.111923 c 0.137609,0 0.280412,0.05697 0.33377,0.13315 0.02566,0.03663 0.04006,0.112829 0.04006,0.211992 0,0.09916 -0.0144,0.175354 -0.04006,0.21199 -0.05336,0.07618 -0.196161,0.133146 -0.33377,0.133146 h -0.111923 z m -2.2047555,0.696667 0.00668,-0.990677 h 0.1863282 c 0.1108384,0 0.1987607,-0.01243 0.2170091,-0.03068 0.042509,-0.04251 0.039218,-0.262761 -0.00447,-0.299017 -0.024688,-0.02049 -0.2167258,-0.02713 -0.6455369,-0.0223 l -0.6103953,0.0069 -0.00753,0.171559 -0.00753,0.171558 0.224844,0.0074 0.2248471,0.0074 0.00669,0.99175 0.00669,0.991746 0.1978357,-0.0075 0.1978348,-0.0075 z m 1.61199,0.878549 c 0.0044,-0.06167 -0.0022,-0.122292 -0.01455,-0.134712 -0.01242,-0.01242 -0.148338,-0.02607 -0.302038,-0.03032 l -0.279456,-0.0077 -0.0071,-0.37422 -0.0071,-0.374221 0.211596,-0.0074 0.211595,-0.0074 v -0.140611 -0.140613 l -0.210918,-0.0074 -0.210917,-0.0074 v -0.343467 -0.343294 l 0.300399,-0.0072 0.3004,-0.0072 v -0.127828 -0.127829 l -0.479738,-0.01278 c -0.263853,-0.007 -0.4910713,-0.009 -0.5049255,-0.0043 -0.016048,0.0054 -0.025189,0.430094 -0.025189,1.170178 v 1.161656 l 0.5049255,-0.0069 0.504927,-0.0069 z M 7.0984797,9.1948518 c 0,-0.01489 0.011504,-0.01997 0.025566,-0.01128 0.014061,0.0087 0.025566,0.02088 0.025566,0.02707 0,0.0062 -0.011505,0.01128 -0.025566,0.01128 -0.014061,0 -0.025566,-0.01219 -0.025566,-0.02707 z M 12.657786,5.2101309 C 12.669774,5.1907343 12.577293,5.0927143 12.329468,4.8621461 12.290354,4.8257555 12.019055,4.5776073 11.701449,4.2877155 11.555095,4.1541338 11.392997,4.0045737 11.341233,3.9553598 11.289466,3.9061451 11.081982,3.7163186 10.880154,3.5335227 10.67833,3.3507269 10.421637,3.1148816 10.309729,3.0094223 10.026966,2.7429553 10.047178,2.7616071 9.8133155,2.5512881 9.6690925,2.4215885 9.5940875,2.3698931 9.5761465,2.3878328 c -0.0174,0.017402 -0.0236,0.417019 -0.0184,1.1867615 0.0073,1.0875376 0.01095,1.1668 0.05735,1.2603177 0.102105,0.205788 0.287773,0.3379924 0.5257155,0.3743364 0.177998,0.027187 2.500218,0.028002 2.516975,8.716e-4 z"
         id="path2" /><g
         id="g16"
         transform="translate(-1.019692,-2.668245)"><path
           style="fill:#fdc47f;fill-opacity:1;stroke:#fec57f;stroke-width:0.3;stroke-linecap:round;stroke-linejoin:round;stroke-dasharray:none;stroke-opacity:1"
           d="m 9.2819097,10.551093 -1.3978555,0.84632"
           id="path16"
           sodipodi:nodetypes="cc" /><path
           style="fill:#fdc47f;fill-opacity:1;stroke:#fec57f;stroke-width:0.3;stroke-linecap:round;stroke-linejoin:round;stroke-dasharray:none;stroke-opacity:1"
           d="M 9.2521583,8.6054269 9.2806856,10.52629"
           id="path16-5"
           sodipodi:nodetypes="cc" /><path
           style="fill:none;fill-opacity:1;stroke:#fec57f;stroke-width:0.3;stroke-linecap:round;stroke-linejoin:round;stroke-dasharray:none;stroke-opacity:1"
           d="M 11.08112,11.054809 9.2612252,10.55637"
           id="path16-3-9"
           sodipodi:nodetypes="cc" /><path
           style="fill:none;fill-opacity:1;stroke:#fe8b00;stroke-width:0.3;stroke-linecap:round;stroke-linejoin:round;stroke-dasharray:none;stroke-opacity:1"
           d="M 7.8650365,11.425941 7.608287,9.1817652 9.2533821,8.5731753 11.35492,8.9820719 M 7.8650365,11.416432 9.9000093,12.29128 11.098171,11.102628 11.364429,9.0010904"
           id="path13"
           sodipodi:nodetypes="cccccccc" /><path
           style="fill:none;fill-opacity:1;stroke:#fe8b00;stroke-width:0.3;stroke-linecap:round;stroke-linejoin:round;stroke-dasharray:none;stroke-opacity:1"
           d="M 9.9537671,9.8566144 7.6430264,9.2290056"
           id="path16-3"
           sodipodi:nodetypes="cc" /><path
           style="fill:#fdc47f;fill-opacity:1;stroke:#fe8b00;stroke-width:0.3;stroke-linecap:round;stroke-linejoin:round;stroke-dasharray:none;stroke-opacity:1"
           d="M 9.9288057,12.239509 9.9573334,9.8241667"
           id="path16-3-15"
           sodipodi:nodetypes="cc" /><path
           style="fill:#fdc47f;fill-opacity:1;stroke:#fe8b00;stroke-width:0.3;stroke-linecap:round;stroke-linejoin:round;stroke-dasharray:none;stroke-opacity:1"
           d="M 11.346244,8.995398 9.9864257,9.8131906"
           id="path16-3-15-8"
           sodipodi:nodetypes="cc" /></g></g></g></svg>
