<?xml version="1.0" encoding="UTF-8" standalone="no"?>
<!-- Created with Inkscape (http://www.inkscape.org/) -->

<svg
   version="1.1"
   id="svg1"
   width="480"
   height="100"
   viewBox="0 0 480 100"
   sodipodi:docname="masttech_pdm.svg"
   inkscape:version="1.3 (0e150ed6c4, 2023-07-21)"
   xmlns:inkscape="http://www.inkscape.org/namespaces/inkscape"
   xmlns:sodipodi="http://sodipodi.sourceforge.net/DTD/sodipodi-0.dtd"
   xmlns="http://www.w3.org/2000/svg"
   xmlns:svg="http://www.w3.org/2000/svg">
  <defs
     id="defs1" />
  <sodipodi:namedview
     id="namedview1"
     pagecolor="#ffffff"
     bordercolor="#000000"
     borderopacity="0.25"
     inkscape:showpageshadow="2"
     inkscape:pageopacity="0.0"
     inkscape:pagecheckerboard="0"
     inkscape:deskcolor="#d1d1d1"
     inkscape:zoom="2.882"
     inkscape:cx="250"
     inkscape:cy="54.649549"
     inkscape:window-width="2560"
     inkscape:window-height="1506"
     inkscape:window-x="-11"
     inkscape:window-y="-11"
     inkscape:window-maximized="1"
     inkscape:current-layer="g1" />
  <g
     inkscape:groupmode="layer"
     inkscape:label="Image"
     id="g1">
    <g
       id="g4"
       transform="matrix(0.37794968,0,0,0.37794968,-0.05829519,-5.9517047)">
      <path
         style="fill:#e3010f;fill-opacity:1;stroke-width:0.900464"
         d="m 32.144287,244.57138 c -3.580745,-1.39866 -4.87021,-2.57697 -6.205866,-5.67115 -1.037465,-2.40331 -1.077905,-5.81111 -1.077905,-90.82457 0,-64.312477 0.177696,-88.860237 0.65358,-90.286577 0.894316,-2.6805 3.696272,-5.51133 6.512177,-6.57925 1.905946,-0.72286 4.701141,-0.85859 14.981361,-0.72748 l 12.638233,0.16112 4.156585,7.93307 c 5.254655,10.02876 7.370031,13.29901 16.801737,25.9744 8.591885,11.54664 8.542712,11.40605 6.784394,19.399837 -1.102231,5.01106 -1.100178,18.09133 0.005,24.4222 1.964033,11.26257 6.090062,21.25662 13.342927,32.31916 l 4.51839,6.8917 v 11.83785 c 0,13.56395 0.62906,16.8796 5.15253,27.15787 6.4812,14.72666 17.05821,25.19815 34.32373,33.98131 11.40496,5.80176 17.70018,5.15775 -50.137721,5.12949 -57.185902,-0.0234 -59.762159,-0.07 -62.447987,-1.11898 z m 182.029293,-1.78044 c -4.74849,-0.80508 -25.9613,-6.16764 -34.19719,-8.64496 -9.90711,-2.97998 -19.32044,-6.67422 -27.88107,-10.94174 -20.38321,-10.16128 -32.12004,-22.10946 -35.3347,-35.97081 -1.66819,-7.19308 -1.41525,-7.22404 6.07013,-0.74258 23.11023,20.01077 53.95857,32.60845 85.00361,34.71322 2.85263,0.19346 6.67782,0.49767 8.50036,0.67606 l 3.31366,0.32439 v 10.60483 10.60494 l -1.29665,-0.0674 c -0.71315,-0.0367 -2.59331,-0.28719 -4.17815,-0.55596 z m -10.08517,-51.60831 c -0.79241,-0.11433 -3.77472,-0.49215 -6.62738,-0.83934 -30.89069,-3.75931 -52.65196,-12.90551 -69.55094,-29.232 -10.36957,-10.01833 -16.36466,-18.55745 -21.22964,-30.23841 -2.71886,-6.52809 -4.2982,-12.30674 -4.8994,-17.92627 -0.48061,-4.49228 -0.44449,-4.50123 3.47269,-0.86171 6.09775,5.66559 19.05528,14.80482 28.37462,20.01333 22.06984,12.33459 50.00207,20.72405 77.08748,23.15327 3.80354,0.34112 7.36937,0.75514 7.92404,0.92007 0.93128,0.27683 1.0085,1.61646 1.0085,17.48261 V 190.837 l -1.29665,0.3475 c -1.35072,0.36198 -11.75397,0.36062 -14.26332,-0.002 z m 3.74595,-71.48909 C 196.00631,118.18275 184.115,116.31128 178.81883,115.127 152.75054,109.29784 129.0899,94.987253 111.36828,74.331133 105.35472,67.321813 97.47218,56.837663 95.522663,53.255803 l -1.578624,-2.9005 h 58.260341 c 51.28171,0 58.51604,0.10687 60.39508,0.89194 2.84773,1.18989 4.67213,2.94563 5.95972,5.73546 0.99125,2.14769 1.06478,4.38204 1.07657,32.70472 l 0.0128,30.399647 -5.04257,-0.0859 c -2.77344,-0.0475 -5.82056,-0.18577 -6.77148,-0.30717 z"
         id="path1-8-8-5"
         sodipodi:nodetypes="cssssscssscscssssccssssssscccssssssssssssscssssssscsssscsss" />
      <g
         id="g3"
         transform="translate(37.520612,939.72083)">
        <g
           id="g2"
           transform="translate(78.452189,15.349341)">
          <path
             style="fill:#e3010f;fill-opacity:1"
             d="m 718.28556,-793.96988 c -17.9077,-1.33977 -24.6917,-5.41591 -28.6018,-17.18521 -1.3401,-4.03351 -1.4269,-5.54264 -1.6533,-28.73707 l -0.239,-24.48001 h -10.193 l 0.3671,-8.96 h 10.56 l -9e-4,-9.44 -9e-4,-9.44 h 6.2409 6.2409 l 0.32,9.28 0.32,9.28 29.92,0.16632 29.92,0.16633 v 4.47367 4.47368 h -30.1018 -30.1018 l 0.1818,24.48001 c 0.1808,24.35428 0.1896,24.49598 1.714,27.59258 1.6687,3.38982 5.3973,6.23423 9.9779,7.61178 1.5886,0.47775 6.9685,0.77719 14.0899,0.78424 9.2545,0.009 12.2431,-0.21222 15.1971,-1.12566 4.5903,-1.41939 7.7048,-4.09044 8.7198,-7.478 0.6344,-2.1176 1.8933,-12.70558 1.9813,-16.66494 0.018,-0.79091 1.0642,-0.94023 5.9416,-0.84774 l 5.9202,0.11227 -0.025,8.20773 c -0.021,6.89539 -0.2661,8.91827 -1.5334,12.65162 -2.5959,7.647 -8.2966,12.13218 -17.9617,14.13177 -5.5415,1.14645 -18.5008,1.59746 -27.2,0.94663 z m 208.63991,0.0219 c -6.2456,-0.72036 -9.5559,-1.70486 -14.5926,-4.33991 -7.0908,-3.70962 -11.3486,-9.91228 -13.7131,-19.97657 -1.6174,-6.88411 -1.6195,-26.72246 0,-32.66769 3.4435,-12.66883 9.8432,-19.2083 22.0215,-22.50258 4.4722,-1.20975 7.2203,-1.38699 25.6989,-1.65751 28.19023,-0.4127 36.67453,0.58333 44.53773,5.22859 6.4968,3.83802 11.2505,12.59358 11.2513,20.723 l 2e-4,1.7285 -6.5602,-0.11081 -6.5602,-0.1108 -0.4228,-2.90031 c -0.9193,-6.30626 -4.6865,-10.24565 -12.165,-12.72117 -3.6099,-1.19496 -5.94573,-1.37053 -21.40253,-1.60873 -30.4789,-0.46969 -37.4063,1.52886 -42.1951,12.17343 -1.6018,3.56031 -1.8305,4.91851 -2.0874,12.39647 -0.4909,14.28581 1.4714,24.99987 5.4431,29.71996 4.2952,5.10455 10.434,6.39901 32.3466,6.82071 19.1726,0.36898 25.45333,-0.20151 31.40363,-2.8524 5.943,-2.64762 10.0395,-8.76928 10.0395,-15.00251 v -1.80384 h 6.6798 6.6798 l -0.255,2.08 c -0.1403,1.144 -0.3894,3.73685 -0.5537,5.7619 -0.6136,7.56243 -5.2173,13.95227 -12.6861,17.60798 -7.4198,3.63172 -11.2214,4.08766 -36.02483,4.32062 -12.32,0.11571 -24.416,-0.0221 -26.88,-0.30633 z m -120.9489,-0.73219 c -5.5634,-0.58561 -12.6214,-2.51947 -16.5963,-4.54732 -6.9116,-3.52603 -12.02201,-11.09526 -14.16771,-20.98464 -1.2684,-5.84544 -1.4453,-21.46551 -0.3118,-27.52 3.3941,-18.12837 11.56111,-25.21128 31.70481,-27.49616 7.4683,-0.84713 31.1301,-0.83747 40.96,0.0167 14.3934,1.25075 21.3819,3.35752 26.5122,7.9924 6.0491,5.46499 8.37,12.13235 8.8444,25.40704 l 0.3373,9.44 h -47.767 -47.7669 l -0.052,1.44 c -0.1809,4.96868 0.315,9.5153 1.4322,13.13251 1.6423,5.31724 5.6369,9.52329 11.138,11.72771 3.7926,1.51976 3.87,1.52363 30.6822,1.53169 24.4104,0.007 27.1556,-0.0983 29.8793,-1.14931 3.7357,-1.44155 7.121,-5.11291 8.6286,-9.35764 l 1.1525,-3.24496 h 6.4639 6.4639 l -0.541,3.9555 c -0.9076,6.63643 -4.6485,11.4996 -11.5272,14.98529 -8.5234,4.31916 -16.8269,5.37642 -41.48,5.28157 -10.384,-0.04 -21.179,-0.31463 -23.9889,-0.6104 z m 63.8016,-51.45196 c -0.5471,-11.20982 -6.4881,-17.13009 -18.8989,-18.83306 -6.4725,-0.88814 -34.0643,-0.88916 -40.5474,-0.002 -6.544,0.89599 -12.9713,3.15235 -16.1491,5.66925 -3.1959,2.53115 -5.8112,7.77117 -6.409,12.84058 -0.2506,2.12522 -0.3138,4.00579 -0.1406,4.17905 0.1733,0.17325 18.7689,0.24091 41.3237,0.15034 l 41.0087,-0.16466 z m 152.82733,-5.12 v -57.28002 h 6.08 6.08 v 23.75339 23.75339 l 4.2788,-4.0026 c 6.9668,-6.51706 13.8735,-9.09029 27.4012,-10.20887 15.4883,-1.28069 32.7595,-0.38747 42.7686,2.21187 11.7261,3.04525 17.1994,9.47131 19.5985,23.01038 0.3976,2.24353 0.6729,14.48724 0.6729,29.92 v 26.12245 h -6.4 -6.4 v -27.17763 c 0,-23.39858 -0.1445,-27.60345 -1.0395,-30.24 -2.305,-6.79026 -6.5735,-10.49371 -14.3205,-12.4249 -4.9262,-1.22804 -37.4408,-1.22821 -44.16,-2.3e-4 -10.4012,1.90091 -16.2647,5.74391 -19.3902,12.70846 -2.6759,5.96264 -3.0665,10.71172 -2.8703,34.89459 l 0.1805,22.24028 -6.24,-2.9e-4 -6.24,-2.8e-4 z"
             id="path1-8"
             sodipodi:nodetypes="sssccccccccccccccccssscsssscssssscsscsssscccssssssssscccssssccsssssssscccssscsscccssssssscsssscsccccccssssscccsssssscccc" />
          <path
             style="fill:#000000"
             d="m 351.73953,-794.1695 c -5.002,-0.74655 -10.8454,-2.87379 -14.1909,-5.1661 -6.2176,-4.26021 -8.7765,-9.65328 -8.7663,-18.47613 0.014,-12.1318 4.7136,-19.19501 15.21,-22.8594 2.955,-1.03163 6.1413,-1.14061 33.3472,-1.14061 h 30.08 l 4.1269,1.82156 c 2.2699,1.00186 5.6595,2.80187 7.5325,4.00001 1.873,1.19814 3.5807,2.17844 3.795,2.17844 0.2143,0 0.2538,-3.96 0.088,-8.80001 -0.3323,-9.68791 -0.9332,-11.85962 -4.3615,-15.76425 -4.7994,-5.4662 -11.3233,-6.9373 -30.7006,-6.92282 -7.568,0.006 -18.1623,0.30863 -23.5428,0.67328 -8.2328,0.55796 -10.2062,0.89677 -12.4553,2.13841 -3.3168,1.83114 -5.3198,4.72315 -5.886,8.49841 l -0.4344,2.89697 h -6.2541 c -3.4398,0 -6.3984,-0.1443 -6.5748,-0.32066 -0.1763,-0.17636 -0.08,-2.07932 0.2139,-4.2288 1.0335,-7.55757 4.4067,-12.67028 10.3696,-15.71704 5.9576,-3.04408 9.6384,-3.39039 36.1634,-3.40239 23.677,-0.0107 24.8432,0.0463 32.4506,1.58663 12.7535,2.58228 16.853,4.63977 19.7123,9.89326 3.3423,6.14087 3.5778,8.76861 3.5881,40.02901 l 0.01,28.8 h -6.08 -6.08 v -4.64 c 0,-2.552 -0.1596,-4.64 -0.3547,-4.64 -0.1951,0 -1.2344,0.82209 -2.3095,1.82687 -2.9205,2.72946 -8.3025,5.80838 -12.1568,6.9547 -2.8159,0.83747 -7.7654,1.04655 -28.059,1.18531 -13.552,0.0927 -26.368,-0.0894 -28.48,-0.40465 z m 54.1529,-10.47609 c 11.9791,-2.13677 18.0867,-7.6297 16.9454,-15.24014 -1.2864,-8.5787 -9.6631,-12.97089 -26.1736,-13.72376 -8.9307,-0.40724 -41.7499,0.8095 -45.5152,1.68743 -5.8166,1.35622 -8.6977,5.82161 -8.6755,13.44594 0.026,8.84719 2.7247,12.11649 11.1304,13.4826 2.4946,0.40542 4.9676,0.82177 5.4956,0.92522 0.528,0.10345 10.176,0.21145 21.44,0.24 14.6404,0.0371 21.8694,-0.19593 25.3529,-0.81729 z m 92.7271,10.50322 c -18.1022,-0.32835 -23.6181,-0.63208 -27.1384,-1.49435 -11.387,-2.78909 -15.8683,-8.32542 -16.9527,-20.9437 l -0.4358,-5.07131 h 6.5834 6.5835 v 2.4 c 0.01,6.08025 2.8403,10.99171 7.607,13.19605 2.8551,1.32035 3.8989,1.37002 32.6563,1.55405 19.6577,0.12579 30.8074,-0.0449 32.96,-0.50473 6.9279,-1.47974 10.1331,-5.4234 10.1331,-12.46776 0,-4.22407 -1.005,-6.84862 -3.4592,-9.03404 -4.0234,-3.58268 -9.1364,-4.09311 -41.0582,-4.09874 -16.9002,-0.003 -29.1546,-0.27747 -31.9836,-0.7164 -12.6437,-1.96175 -18.0299,-8.45502 -17.9906,-21.68843 0.039,-13.30489 7.2166,-19.28527 25.7457,-21.45273 10.9246,-1.27792 53.2306,-1.30135 60.3388,-0.0334 8.8319,1.57538 13.391,4.3909 16.2813,10.05453 1.2074,2.36601 2.8141,8.92153 2.841,11.59163 0,0.264 -3.0192,0.48 -6.7152,0.48 h -6.72 v -1.9455 c 0,-2.81383 -2.1928,-6.68675 -4.6201,-8.16018 -1.1549,-0.70108 -3.6261,-1.5941 -5.4914,-1.9845 -4.481,-0.93787 -50.7514,-0.95926 -56.1109,-0.0259 -8.0075,1.39445 -11.8576,5.14437 -11.8576,11.54904 0,6.79362 3.1684,10.32701 9.9333,11.07766 1.7527,0.19448 15.8587,0.66142 31.3467,1.03764 35.4493,0.8611 38.9835,1.27616 44.8659,5.269 3.987,2.70631 6.3126,7.28827 7.2688,14.32131 1.5043,11.06415 -1.6047,19.2714 -8.6431,22.81677 -4.6999,2.36741 -20.2147,5.00086 -28.311,4.80543 -2.7173,-0.0656 -15.1646,-0.30471 -27.6606,-0.53138 z m 116.5723,-0.0124 c -18.4904,-1.78378 -25.3837,-7.60504 -27.5634,-23.27662 -0.3789,-2.72415 -0.6889,-14.43615 -0.6889,-26.02669 v -21.07369 h -10.24 -10.24 v -4.8 -4.8 h 10.5424 10.5424 l 0.1776,-9.12 0.1776,-9.12 6.2227,-0.18297 6.2228,-0.18297 0.1772,9.32226 0.1773,9.32226 30.08,0.14071 30.08,0.14071 0.1879,4.63371 0.1879,4.63372 -30.2679,0.16628 -30.2679,0.16629 v 24.32 c 0,22.50154 0.089,24.4875 1.193,26.56001 1.5559,2.92124 4.1022,5.63167 6.4344,6.84914 6.731,3.51376 29.8313,3.51608 36.5851,0.004 4.6926,-2.44044 6.2496,-6.34677 7.0045,-17.57282 l 0.441,-6.56 h 6.011 6.011 v 7.32849 c 0,11.30947 -1.5665,16.69502 -6.3079,21.6868 -5.0149,5.27972 -12.6155,7.45036 -27.2921,7.79433 -5.28,0.12375 -12.2945,-0.0349 -15.5877,-0.35263 z m 51.1077,-70.377 v -4.48 -4.48 z m -533.12004,30.42243 v -40.0224 h 6.08 6.08 v 5.44 c 0,5.12188 0.7038,6.98366 1.58749,4.19941 1.16377,-3.6667 9.89215,-8.45866 18.29345,-10.04321 7.3535,-1.38693 37.8591,-0.92879 44.0531,0.6616 5.7361,1.47285 12.4961,5.19741 16.3273,8.99595 l 3.254,3.22625 4.1623,-4.20861 c 7.9056,-7.99345 13.6854,-9.50127 36.4824,-9.51734 25.1121,-0.0177 35.0008,2.16082 41.4202,9.12504 1.4569,1.58051 3.2467,4.0455 3.9773,5.47776 3.03,5.93924 3.2152,8.10523 3.256,38.08981 l 0.038,28.23335 h -6.266 -6.266 l -0.32,-28.16 c -0.2864,-25.20276 -0.4397,-28.42524 -1.4598,-30.68557 -1.8065,-4.0027 -3.899,-6.33264 -7.3975,-8.23674 -5.1456,-2.80064 -11.542,-3.74687 -25.7027,-3.80228 -17.9923,-0.0704 -26.5326,1.77984 -31.5985,6.84576 -1.2721,1.27205 -2.9122,3.4877 -3.6448,4.92367 -2.7559,5.40205 -3.1338,9.64242 -3.1456,35.29755 l -0.011,24.18239 -6.3874,-0.18239 -6.3874,-0.18239 -0.2103,-27.84 c -0.1468,-19.4241 -0.4425,-28.5389 -0.9784,-30.15195 -1.2851,-3.86826 -4.3391,-7.45609 -7.8698,-9.24521 -5.7221,-2.89963 -11.0687,-3.6766 -25.2067,-3.6631 -23.4927,0.0224 -33.01218,3.39259 -37.56842,13.30025 -1.45241,3.15831 -1.47383,3.5543 -1.64435,30.40001 l -0.17278,27.2 -6.38722,0.18239 -6.38723,0.18239 z"
             id="path1-8-8-4"
             sodipodi:nodetypes="cccsscssscscssscsscssssccccsssscccsssscsssscssccccsscssscsssscscssscssssssscccsscccccccccccccccccccssscscccsssccccccccccssssscssssccccssssscscccssscsscccc" />
        </g>
        <text
           xml:space="preserve"
           style="font-weight:bold;font-size:69.3333px;font-family:Calibri;-inkscape-font-specification:'Calibri Bold';text-align:center;text-anchor:middle;fill:#e3010f;fill-opacity:1;stroke:none;stroke-width:2.59276"
           x="706.0697"
           y="-690.72034"
           id="text1"><tspan
             sodipodi:role="line"
             id="tspan1"
             x="706.0697"
             y="-690.72034"
             style="font-style:normal;font-variant:normal;font-weight:normal;font-stretch:normal;font-size:69.3333px;font-family:'Gill Sans MT';-inkscape-font-specification:'Gill Sans MT';fill:#000080">PRODUCT DATA MANAGEMENT</tspan></text>
      </g>
    </g>
  </g>
</svg>
