<?xml version="1.0" encoding="UTF-8" standalone="no"?>
<!-- Created with Inkscape (http://www.inkscape.org/) -->

<svg
   width="375"
   height="65"
   viewBox="0 0 99.218747 17.197927"
   version="1.1"
   id="svg5"
   xml:space="preserve"
   inkscape:version="1.2.2 (b0a8486541, 2022-12-01)"
   sodipodi:docname="mtlogo.svg"
   xmlns:inkscape="http://www.inkscape.org/namespaces/inkscape"
   xmlns:sodipodi="http://sodipodi.sourceforge.net/DTD/sodipodi-0.dtd"
   xmlns="http://www.w3.org/2000/svg"
   xmlns:svg="http://www.w3.org/2000/svg"><sodipodi:namedview
     id="namedview7"
     pagecolor="#ffffff"
     bordercolor="#666666"
     borderopacity="1.0"
     inkscape:showpageshadow="2"
     inkscape:pageopacity="0.0"
     inkscape:pagecheckerboard="0"
     inkscape:deskcolor="#d1d1d1"
     inkscape:document-units="mm"
     showgrid="false"
     inkscape:zoom="2.705862"
     inkscape:cx="137.10973"
     inkscape:cy="31.043712"
     inkscape:window-width="1920"
     inkscape:window-height="961"
     inkscape:window-x="0"
     inkscape:window-y="0"
     inkscape:window-maximized="1"
     inkscape:current-layer="layer1" /><defs
     id="defs2" /><g
     inkscape:label="Layer 1"
     inkscape:groupmode="layer"
     id="layer1"><g
       id="g805"
       transform="matrix(0.30982208,0,0,0.30982208,16.114542,-64.201759)"><path
         style="fill:#000000;stroke-width:0.169333"
         d="m 258.53459,259.56197 c 0.0565,-0.14731 0.10279,-0.29971 0.10279,-0.33866 0,-0.0389 0.2286,-0.0708 0.508,-0.0708 0.60394,0 0.7112,-0.45529 0.127,-0.5391 -0.28032,-0.0402 -0.37047,-0.15452 -0.34112,-0.4325 0.0304,-0.28859 -0.0696,-0.40206 -0.42334,-0.48033 -1.63423,-0.36157 -2.15441,-0.73945 -1.6762,-1.21766 0.26303,-0.26301 0.31651,-0.26151 0.79724,0.0225 0.67468,0.39854 2.20203,0.42093 2.7822,0.0408 0.31925,-0.20917 0.42755,-0.42687 0.42755,-0.8593 0,-0.73091 -0.40968,-1.03667 -1.73961,-1.29832 -0.54524,-0.10726 -1.23412,-0.35856 -1.53086,-0.55843 -1.14085,-0.76843 -0.92175,-2.64342 0.3918,-3.35285 0.72526,-0.39171 2.14639,-0.34175 3.08367,0.10839 0.60132,0.28879 0.61745,0.31838 0.37537,0.68785 l -0.25296,0.38607 -0.62938,-0.32859 c -0.44,-0.22972 -0.84796,-0.30581 -1.3559,-0.25289 -0.92695,0.0966 -1.39013,0.50915 -1.39013,1.2383 0,0.66925 0.40479,0.93159 1.91902,1.24369 1.21592,0.25062 1.94742,0.85337 2.08473,1.71776 0.17701,1.1144 -0.76239,2.35065 -1.78621,2.35065 -0.48963,0 -0.44599,0.41212 0.0685,0.64652 0.28387,0.12935 0.42333,0.32955 0.42333,0.60776 0,0.63422 -0.42948,0.94705 -1.30021,0.94705 -0.63076,0 -0.74965,-0.0479 -0.66524,-0.26785 z M 39.735189,257.47325 c -1.18053,-0.54903 -1.399122,-1.09599 -1.399866,-3.50272 -5.08e-4,-1.84924 0.03689,-2.10546 0.383742,-2.62466 1.082814,-1.62088 3.600271,-1.47782 4.420749,0.25121 0.378808,0.79828 0.381186,3.72687 0.0038,4.67007 -0.502384,1.25558 -2.09231,1.81819 -3.408417,1.2061 z m 2.168527,-1.1864 c 0.486276,-0.48627 0.494975,-0.52728 0.494975,-2.33299 0,-2.0725 -0.14569,-2.44486 -1.076801,-2.75216 -0.662485,-0.21864 -1.21547,-0.0582 -1.7172,0.49813 -0.276997,0.30716 -0.349409,0.667 -0.397664,1.97613 -0.06366,1.72717 0.113843,2.43917 0.712679,2.85861 0.592434,0.41496 1.425329,0.31096 1.984011,-0.24772 z m 52.564979,1.36068 c -0.664394,-0.17227 -1.608666,-0.66757 -1.608666,-0.84381 0,-0.0763 0.141474,-0.26677 0.314387,-0.42326 0.273819,-0.2478 0.340838,-0.25264 0.519364,-0.0375 0.295683,0.35628 1.60589,0.59518 2.34739,0.42803 0.62942,-0.14188 1.22153,-0.67465 1.22153,-1.09912 0,-0.54527 -0.76308,-1.09487 -1.774589,-1.27812 -1.77904,-0.32231 -2.302851,-0.77259 -2.319708,-1.99408 -0.01898,-1.3753 0.985012,-2.22657 2.616053,-2.2181 0.894734,0.005 2.230654,0.57784 2.056374,0.8823 -0.33074,0.5778 -0.41234,0.59967 -1.0412,0.27906 -0.74988,-0.38231 -1.417965,-0.40518 -2.064824,-0.0707 -1.25423,0.64859 -0.738166,1.9441 0.881875,2.21384 1.175559,0.19573 1.978729,0.59174 2.245189,1.107 0.51113,0.98842 0.15765,2.30248 -0.74489,2.76921 -0.60001,0.31028 -1.978913,0.4588 -2.648285,0.28525 z m 9.313335,0 c -0.6644,-0.17227 -1.60867,-0.66757 -1.60867,-0.84381 0,-0.0763 0.14148,-0.26677 0.31439,-0.42326 0.27382,-0.2478 0.34084,-0.25264 0.51936,-0.0375 0.48636,0.58602 2.61844,0.63362 3.15124,0.0704 0.67883,-0.71766 0.2007,-1.73923 -0.90199,-1.92718 -2.15556,-0.36742 -2.74433,-0.80144 -2.74433,-2.02299 0,-0.42796 0.11137,-0.99347 0.24749,-1.25671 0.29154,-0.56376 1.32273,-1.02858 2.2819,-1.02858 0.85827,0 2.27813,0.59681 2.11175,0.88763 -0.32948,0.57595 -0.4117,0.59788 -1.0402,0.27745 -0.74988,-0.38231 -1.41797,-0.40518 -2.06483,-0.0707 -1.25482,0.64889 -0.7362,1.94878 0.88187,2.21039 1.15098,0.18609 2.1352,0.68766 2.32404,1.18434 0.40406,1.06277 0.0907,2.14904 -0.76307,2.64548 -0.59974,0.34871 -1.99211,0.52095 -2.70895,0.33509 z m 51.39267,-0.002 c -0.88028,-0.18688 -1.72498,-0.67271 -1.58784,-0.91324 0.33274,-0.5836 0.41917,-0.60654 0.99807,-0.26499 0.39587,0.23357 0.87825,0.33872 1.55392,0.33872 0.84784,0 1.03141,-0.0599 1.36253,-0.44487 0.21046,-0.24468 0.38265,-0.59302 0.38265,-0.77409 0,-0.49121 -0.57576,-0.97417 -1.30288,-1.09289 -0.35445,-0.0579 -1.02326,-0.2337 -1.48626,-0.39073 -0.96333,-0.32672 -1.26856,-0.76534 -1.27237,-1.82844 -0.006,-1.71455 2.09527,-2.63636 4.01918,-1.76306 0.796,0.36132 0.83798,0.43983 0.45901,0.85858 -0.24506,0.27079 -0.29784,0.26906 -0.88246,-0.029 -0.93882,-0.47863 -2.0158,-0.33993 -2.5207,0.32463 -0.6228,0.81976 -0.0319,1.47555 1.71648,1.90508 1.68345,0.41357 2.11667,0.82231 2.11667,1.99703 0,0.8932 -0.29847,1.43519 -0.98618,1.79082 -0.59644,0.30843 -1.8225,0.4451 -2.56982,0.28645 z m 42.8572,-0.0635 c -0.87025,-0.31316 -1.25828,-0.95786 -1.33895,-2.22464 -0.12635,-1.98433 0.57472,-2.97623 2.10458,-2.97762 1.19935,-0.001 2.09718,1.04748 2.09718,2.44926 v 0.59813 h -1.69334 c -1.85891,0 -1.98818,0.0875 -1.34237,0.9085 0.28026,0.3563 0.49515,0.44617 1.0668,0.44617 0.39372,0 0.80548,-0.0896 0.91504,-0.1992 0.15271,-0.15271 0.2803,-0.12581 0.54668,0.11527 l 0.34749,0.31447 -0.4705,0.29476 c -0.65445,0.41003 -1.55053,0.52038 -2.23261,0.27493 z m 1.88523,-3.33121 c -0.12028,-1.07773 -1.45261,-1.38449 -2.11913,-0.48791 -0.56882,0.76516 -0.30617,1.01039 1.02005,0.95235 1.10316,-0.0483 1.14361,-0.0654 1.09908,-0.46444 z m 15.26111,3.36725 c -0.78677,-0.23569 -1.53822,-1.18046 -1.67746,-2.10904 -0.18207,-1.21412 -0.004,-3.47904 0.32165,-4.1019 0.33568,-0.64117 1.37925,-1.22933 2.18118,-1.22933 1.03242,0 2.1272,0.82536 2.41456,1.82033 0.17272,0.5981 -0.63761,0.51975 -1.08221,-0.10463 -0.49745,-0.6986 -1.22916,-0.9687 -1.88658,-0.69639 -0.79742,0.33031 -1.00801,0.92652 -1.00801,2.85396 0,1.56974 0.0309,1.72546 0.43839,2.20974 0.57685,0.68555 1.56627,0.73306 2.19398,0.10535 0.2286,-0.2286 0.41563,-0.4953 0.41563,-0.59266 0,-0.0974 0.2286,-0.17703 0.508,-0.17703 0.59971,0 0.60037,0.003 0.18546,0.81108 -0.5266,1.02568 -1.84648,1.55745 -3.00459,1.21052 z M 0.57335265,253.89835 v -3.73011 l 2.32833355,0.0471 2.3283336,0.0471 0.05358,0.46567 0.05358,0.46566 H 3.3708632 1.4045457 l 0.05007,1.143 0.05007,1.143 1.5663335,0.0487 c 1.5315541,0.0476 1.5663334,0.0578 1.5663334,0.45931 0,0.40151 -0.034779,0.41171 -1.5663334,0.45932 l -1.5663335,0.0487 v 1.10067 1.10067 l 1.9050002,0.0479 c 1.8994308,0.0477 1.9050001,0.0491 1.9050001,0.46566 v 0.41779 H 2.9440196 0.57335265 Z m 6.30436565,0.0471 0.04564,-3.683 h 0.423333 0.423334 l 0.04599,3.25967 0.04599,3.25966 h 1.8590093 1.8590114 v 0.42334 0.42333 H 9.2060563 6.8320873 Z m 6.0569697,-0.0423 v -3.72534 h 2.370667 2.370667 v 0.50246 0.50245 l -1.903814,0.0479 -1.903813,0.0479 0.01079,1.10067 0.01079,1.10066 1.554367,0.0487 c 1.518874,0.0476 1.554353,0.0581 1.554353,0.45931 0,0.40104 -0.03607,0.41177 -1.544295,0.45932 l -1.544296,0.0487 9.1e-5,1.10067 9e-5,1.10067 1.882872,0.0479 c 1.875905,0.0477 1.882872,0.0494 1.882872,0.46566 v 0.41779 h -2.370667 -2.370667 z m 6.304365,0.0423 0.04563,-3.683 h 0.423334 c 0.421892,0 0.423621,0.007 0.508,1.93333 l 0.08467,1.93334 1.565437,-1.97567 c 1.375383,-1.7358 1.627223,-1.97567 2.074334,-1.97567 0.279893,0 0.508896,0.0425 0.508896,0.0944 0,0.0519 -0.464665,0.64247 -1.032588,1.31233 -0.567924,0.66986 -1.07186,1.31443 -1.119859,1.43239 -0.07443,0.18292 0.462715,1.17945 2.189053,4.0612 l 0.329682,0.55033 H 24.22764 c -0.567925,0 -0.623411,-0.0607 -1.625182,-1.778 -0.57045,-0.9779 -1.093114,-1.77564 -1.161477,-1.77276 -0.06836,0.003 -0.371944,0.33418 -0.674628,0.73623 -0.482039,0.64029 -0.550333,0.86029 -0.550333,1.77277 v 1.04176 h -0.5113 -0.511302 z m 8.258303,0.46567 v -3.21734 h -1.016 -1.016 v -0.508 -0.508 h 2.54 2.54 v 0.508 0.508 h -1.016 -1.016 v 3.21734 3.21733 h -0.508 -0.508 z m 4.233334,-0.52673 v -3.74407 l 1.853428,0.0634 c 2.149311,0.0736 2.64132,0.30855 3.046503,1.45503 0.330312,0.93462 0.03336,1.98165 -0.676585,2.38555 -0.27273,0.15516 -0.49508,0.35831 -0.494113,0.45144 10e-4,0.0931 0.343386,0.80565 0.76093,1.58337 0.417544,0.77772 0.75917,1.44929 0.75917,1.4924 0,0.0431 -0.240487,0.0545 -0.534417,0.0253 -0.48509,-0.0482 -0.611504,-0.19764 -1.369602,-1.6194 l -0.835186,-1.56625 H 33.493755 32.74669 v 1.60866 1.60867 h -0.508 -0.508 z m 3.800399,-0.69628 c 0.14498,-0.20699 0.263601,-0.57104 0.263601,-0.80899 0,-0.23796 -0.118621,-0.602 -0.263601,-0.80899 -0.232253,-0.33159 -0.4135,-0.37635 -1.524,-0.37635 H 32.74669 v 1.18534 1.18533 h 1.260399 c 1.1105,0 1.291747,-0.0448 1.524,-0.37634 z m 9.615966,0.75734 0.04564,-3.683 h 0.413895 c 0.368948,0 0.52832,0.25693 1.467573,2.36597 0.579521,1.30128 1.11717,2.38482 1.194772,2.40786 0.0776,0.023 0.610726,-1.04164 1.18472,-2.36597 0.926401,-2.1374 1.092829,-2.41388 1.481667,-2.46144 l 0.43804,-0.0536 v 3.73658 3.73658 h -0.423337 -0.423334 v -2.45527 c 0,-1.35044 -0.05949,-2.45534 -0.1322,-2.45534 -0.07271,0 -0.508218,0.87945 -0.967796,1.95434 -1.09389,2.55843 -1.216135,2.55588 -2.364064,-0.0493 -0.461668,-1.04775 -0.880768,-1.9051 -0.931334,-1.90523 -0.05057,-1.4e-4 -0.06727,1.10476 -0.03711,2.45533 l 0.05483,2.45557 H 45.625214 45.10142 Z m 8.258303,-0.0471 v -3.73011 l 2.328334,0.0471 2.328333,0.0471 v 0.42333 0.42334 l -1.905,0.0479 -1.905,0.0479 v 1.17978 1.17979 h 1.608667 c 1.603023,0 1.608667,0.002 1.608667,0.42333 0,0.42185 -0.0056,0.42334 -1.608667,0.42334 h -1.608667 v 1.18533 1.18533 h 1.947334 1.947333 v 0.42334 0.42333 h -2.370667 -2.370667 z m 6.265334,-0.006 v -3.73658 l 0.465667,0.0536 0.465667,0.0536 v 1.9052 c 0,1.04786 0.04841,1.90511 0.107577,1.905 0.05917,-1.1e-4 0.783067,-0.87607 1.608667,-1.94658 1.377764,-1.78647 1.547124,-1.94646 2.061417,-1.94733 0.658766,-0.001 0.651584,0.0181 -0.5378,1.43838 -0.467949,0.5588 -0.945662,1.13128 -1.061583,1.27218 -0.174284,0.21185 -0.07797,0.47563 0.556438,1.524 0.421962,0.6973 1.02463,1.70597 1.339259,2.24148 l 0.572058,0.97367 h -0.579217 c -0.556079,0 -0.621086,-0.071 -1.627316,-1.778 -0.576453,-0.9779 -1.094464,-1.77663 -1.151133,-1.77495 -0.05667,0.002 -0.362407,0.31532 -0.679418,0.69698 -0.535698,0.64494 -0.573914,0.77023 -0.541387,1.77495 l 0.035,1.08102 h -0.516946 -0.516946 z m 6.341565,3.10158 c 0.133553,-0.34925 0.633428,-1.7018 1.110835,-3.00567 0.477406,-1.30386 0.987471,-2.69451 1.133478,-3.09033 0.204523,-0.55445 0.352837,-0.71967 0.646046,-0.71967 0.215693,0 0.4191,0.12839 0.469494,0.29634 0.08493,0.28306 2.091563,5.71656 2.47017,6.68866 0.171877,0.44131 0.156192,0.46567 -0.299869,0.46567 -0.417674,0 -0.527702,-0.11182 -0.833091,-0.84667 l -0.351858,-0.8471 H 68.89936 67.441257 l -0.351857,0.84666 c -0.30607,0.73649 -0.414854,0.84667 -0.835913,0.84667 h -0.484053 z m 3.631055,-3.38667 c -0.739961,-2.2009 -0.659358,-2.03077 -0.822333,-1.73566 -0.07715,0.1397 -0.374683,0.92075 -0.661184,1.73566 l -0.52091,1.48167 h 1.251287 1.251287 z m 3.694241,0.33868 0.03553,-3.68301 h 0.384041 c 0.309868,0 0.684999,0.47423 1.942266,2.45533 2.303605,3.62986 2.073658,3.59838 2.082432,0.28509 l 0.0075,-2.84758 0.431286,0.0536 0.431283,0.0536 0.03438,3.68301 0.03438,3.68301 -0.440284,-10e-6 c -0.383843,-1e-5 -0.666039,-0.35275 -2.201333,-2.75168 l -1.76105,-2.75166 -0.04653,2.75166 -0.04653,2.75167 -0.461472,1e-5 -0.461472,10e-6 z m 7.369506,-1e-5 0.04564,-3.683 h 0.423333 0.423334 l 0.04564,3.683 0.04564,3.683 h -0.514605 -0.514604 z m 2.878667,0 0.04563,-3.683 0.460201,-0.0531 0.460199,-0.053 0.0478,1.99635 0.0478,1.99636 1.571657,-1.98564 c 1.373865,-1.73574 1.634919,-1.98564 2.074334,-1.98564 0.276472,0 0.502676,0.0408 0.502676,0.0906 0,0.0498 -0.4953,0.68925 -1.100667,1.42097 -0.605366,0.73172 -1.100666,1.3817 -1.100666,1.4444 0,0.0627 0.544152,1.04251 1.209229,2.17736 0.665076,1.13486 1.241073,2.12052 1.279993,2.19037 0.03892,0.0699 -0.181979,0.127 -0.490889,0.127 -0.532631,0 -0.616748,-0.0919 -1.6278,-1.778 -0.586379,-0.9779 -1.119181,-1.77564 -1.184006,-1.77276 -0.06482,0.003 -0.365511,0.33418 -0.668194,0.73623 -0.48204,0.64029 -0.550334,0.86029 -0.550334,1.77277 v 1.04176 H 84.051392 83.54009 Z m 16.04763,-0.0536 v -3.73658 l 0.465674,0.0536 0.46567,0.0536 0.0456,3.683 0.0456,3.683 h -0.51131 -0.511304 z m 10.498674,0.52733 v -3.20926 l -1.05424,-0.0504 c -0.9983,-0.0477 -1.05419,-0.0729 -1.05379,-0.47375 l 3.3e-4,-0.42333 2.57781,-0.0467 2.57781,-0.0468 v 0.51241 0.51241 l -1.05833,-1.6e-4 -1.05834,-1.7e-4 0.0526,3.21753 0.0526,3.21754 h -0.51826 -0.51826 v -3.20925 z m 4.23333,-0.52086 v -3.73011 l 2.32834,0.0471 2.32833,0.0471 0.0536,0.46567 0.0536,0.46566 h -1.95858 -1.95858 v 1.18534 1.18533 h 1.60867 c 1.60303,0 1.60866,0.002 1.60866,0.42333 0,0.42185 -0.006,0.42334 -1.60866,0.42334 h -1.60867 v 1.18533 1.18533 h 1.94733 1.94734 v 0.42334 0.42333 h -2.37067 -2.37067 z m 6.30437,0.0471 0.0456,-3.683 h 0.41391 c 0.36894,0 0.52832,0.25693 1.46756,2.36597 0.57952,1.30128 1.11717,2.38546 1.19478,2.40928 0.0776,0.0238 0.60633,-1.04086 1.17499,-2.36597 0.92865,-2.16408 1.07945,-2.41473 1.48166,-2.46286 l 0.44777,-0.0536 v 3.73658 3.73658 h -0.42333 -0.42334 v -2.45572 c 0,-1.35044 -0.0595,-2.45534 -0.13219,-2.45534 -0.0727,0 -0.50687,0.8763 -0.96481,1.94734 -1.11479,2.60734 -1.23978,2.60722 -2.37043,-0.002 -0.46352,-1.06978 -0.90558,-1.94507 -0.98236,-1.94507 -0.0768,0 -0.11663,1.10502 -0.0886,2.4556 l 0.051,2.4556 -0.46897,-3.4e-4 -0.46897,-3.4e-4 0.0456,-3.683 z m 8.2583,-0.0423 v -3.72534 h 0.42334 0.42333 v 3.29646 3.29645 l 1.89125,0.0479 c 1.8247,0.0462 1.89223,0.0613 1.91904,0.42888 0.0276,0.37809 0.01,0.381 -2.31459,0.381 h -2.34237 z m 6.04666,0.0423 0.0353,-3.68301 2.29303,-0.0471 2.29301,-0.0471 v 0.51278 0.51277 h -1.86266 -1.86267 v 1.18534 1.18533 h 1.60867 c 1.60302,0 1.60866,0.002 1.60866,0.42333 0,0.42185 -0.006,0.42334 -1.60866,0.42334 h -1.60867 v 1.18533 1.18533 h 1.86267 1.86266 v 0.42334 0.42333 l -2.32833,10e-6 -2.32833,1e-5 z m 6.31468,-0.0611 v -3.74407 l 1.82119,0.0623 c 1.56779,0.0537 1.89704,0.11636 2.36644,0.45059 1.11856,0.79649 1.0556,2.78035 -0.11009,3.46894 l -0.4943,0.29199 0.84608,1.60714 0.84607,1.60714 h -0.56749 c -0.54806,0 -0.59495,-0.0553 -1.37112,-1.6178 l -0.80364,-1.61781 -0.8009,0.0515 -0.80091,0.0515 v 1.56658 1.56658 l -0.46567,-1.7e-4 -0.46566,-1.7e-4 v -3.74406 z m 3.48831,-0.44953 c 0.63775,-0.42584 0.67913,-1.74451 0.0651,-2.07315 -0.17258,-0.0924 -0.85218,-0.16793 -1.51025,-0.16793 h -1.19646 v 1.18534 1.18533 l 1.22767,-0.003 c 0.67522,-0.001 1.3115,-0.0586 1.41398,-0.127 z m 3.41832,0.46841 0.0486,-3.72549 h 0.41704 0.41703 v 3.72534 3.72533 l -0.46567,1.5e-4 -0.46566,1.6e-4 z m 11.25858,3.51351 c 0.22518,-0.5757 1.19275,-3.15341 1.90685,-5.08 0.69369,-1.87155 0.84997,-2.159 1.17382,-2.159 0.3948,0 0.30451,-0.20935 2.46886,5.72451 l 0.63654,1.74518 -0.51245,-0.0518 c -0.43617,-0.0441 -0.55414,-0.16531 -0.79231,-0.81385 l -0.27986,-0.762 -1.40907,-0.0494 c -0.79575,-0.0279 -1.50057,0.0265 -1.61927,0.12499 -0.1156,0.0959 -0.30177,0.48014 -0.41371,0.85378 -0.18006,0.60098 -0.26344,0.67934 -0.72285,0.67934 -0.34673,0 -0.49182,-0.0703 -0.43655,-0.21167 z m 4.18679,-2.53673 c 0,-0.42915 -1.07291,-3.18855 -1.18945,-3.05914 -0.0668,0.0742 -0.35452,0.83972 -0.63933,1.70121 l -0.51788,1.56633 h 1.17333 c 0.81598,0 1.17333,-0.0635 1.17333,-0.2084 z m 3.25636,-0.9346 c 0.0454,-3.6643 0.0476,-3.68327 0.42307,-3.73664 0.31099,-0.0442 0.54591,0.20912 1.33472,1.43933 0.5265,0.82114 1.34726,2.09814 1.8239,2.83778 l 0.86662,1.3448 0.0465,-2.83731 0.0465,-2.83732 0.42715,0.0532 0.42714,0.0532 0.0344,3.68301 0.0344,3.68301 -0.45224,-10e-6 c -0.39965,-1e-5 -0.65571,-0.31955 -2.20134,-2.74708 l -1.74909,-2.74707 -0.0465,2.74707 -0.0465,2.74707 h -0.50712 -0.5071 z m 6.73551,3.556 c 0,-0.0699 0.5947,-1.7272 1.32009,-3.683 1.75693,-4.73712 1.66903,-4.73041 3.33085,-0.254 1.65701,4.46346 1.56098,4.064 0.977,4.064 -0.43623,0 -0.51695,-0.0878 -0.73947,-0.80433 l -0.24979,-0.80434 h -1.59188 -1.59189 l -0.24978,0.80434 c -0.22073,0.71074 -0.30545,0.80433 -0.72807,0.80433 -0.26304,0 -0.47772,-0.0571 -0.47706,-0.127 z m 4.18853,-2.62467 c -0.0439,-0.11641 -0.29637,-0.87841 -0.56102,-1.69333 -0.26465,-0.81492 -0.52925,-1.48167 -0.58798,-1.48167 -0.10133,0 -1.18435,2.99157 -1.18008,3.25967 0.002,0.0699 0.54356,0.127 1.20546,0.127 0.89246,0 1.18282,-0.0547 1.12362,-0.21167 z m 3.93827,1.22507 v -1.52661 l -1.05649,-2.07173 c -0.58107,-1.13945 -1.08272,-2.12888 -1.11479,-2.19873 -0.032,-0.0699 0.18298,-0.127 0.47788,-0.127 0.51399,0 0.5685,0.07 1.31959,1.69334 0.43091,0.93133 0.83273,1.69333 0.89293,1.69333 0.0602,0 0.46315,-0.762 0.89542,-1.69333 0.74002,-1.5944 0.81564,-1.69334 1.29437,-1.69334 0.27963,0 0.50842,0.042 0.50842,0.0934 0,0.0514 -0.4953,1.02957 -1.10067,2.17379 l -1.10066,2.0804 v 1.55155 1.55154 h -0.508 -0.508 z m 4.23333,-2.19873 v -3.72534 h 0.42333 0.42334 v 3.72534 3.72533 h -0.42334 -0.42333 z m 6.09578,1.23872 c -0.51211,-1.37554 -0.95651,-2.55987 -0.98755,-2.63185 -0.0311,-0.072 0.16898,-0.13087 0.44452,-0.13087 0.48554,0 0.51963,0.0554 1.10803,1.79948 0.58438,1.73226 0.73042,2.06414 0.84116,1.91174 0.0282,-0.0388 0.31953,-0.87066 0.64741,-1.84856 0.54434,-1.6235 0.63553,-1.78265 1.0494,-1.83158 0.24929,-0.0295 0.45186,0.009 0.45015,0.0847 -0.002,0.076 -0.41464,1.24315 -0.91767,2.59358 -0.79336,2.1299 -0.96691,2.4619 -1.30945,2.50485 -0.36361,0.0456 -0.46863,-0.14856 -1.326,-2.45146 z m 14.39356,-0.73072 v -3.21734 h -1.016 -1.016 v -0.508 -0.508 h 2.54 2.54 v 0.508 0.508 h -1.016 -1.016 v 3.21734 3.21733 h -0.508 -0.508 z m 4.23333,-0.508 v -3.72534 h 0.42333 0.42334 v 3.72534 3.72533 h -0.42334 -0.42333 z m 8.46667,3.6671 c 0,-0.032 0.6034,-1.68938 1.34088,-3.683 1.21358,-3.28058 1.37787,-3.62477 1.7303,-3.62477 0.42103,0 0.38413,-0.0818 2.31443,5.13136 l 0.83412,2.2527 -0.50602,-0.0514 c -0.42858,-0.0435 -0.54886,-0.16797 -0.78594,-0.81337 l -0.27991,-0.762 -1.54629,-0.0485 -1.54628,-0.0485 -0.28324,0.85282 c -0.25404,0.76478 -0.3343,0.85281 -0.77767,0.85281 -0.27191,0 -0.49438,-0.0262 -0.49438,-0.0582 z m 4.23333,-2.60127 c 0,-0.25739 -1.08053,-3.26706 -1.17236,-3.26545 -0.0537,0.001 -0.31845,0.66769 -0.58833,1.48166 -0.26987,0.81398 -0.52568,1.57521 -0.56846,1.69162 -0.0576,0.15678 0.23436,0.21167 1.1257,0.21167 0.66191,0 1.20345,-0.0538 1.20345,-0.1195 z m 3.21733,-1.06583 v -3.72534 l 1.48167,0.001 c 2.56217,0.002 3.41793,0.48005 3.54742,1.9832 0.0785,0.91058 -0.38542,1.8792 -0.97359,2.03301 -0.18159,0.0475 -0.33016,0.16098 -0.33016,0.2522 0,0.0912 0.3429,0.79491 0.762,1.56376 0.4191,0.76885 0.762,1.44733 0.762,1.50773 0,0.0604 -0.22557,0.10982 -0.50126,0.10982 -0.46089,0 -0.56663,-0.12618 -1.31234,-1.56633 l -0.81107,-1.56633 -0.80433,-0.0516 -0.80434,-0.0516 v 1.61795 1.61794 h -0.508 -0.508 v -3.72533 z m 3.8004,-0.71501 c 0.14499,-0.20699 0.2636,-0.57104 0.2636,-0.80899 0,-0.23796 -0.11861,-0.602 -0.2636,-0.80899 -0.23225,-0.33159 -0.41349,-0.37635 -1.524,-0.37635 h -1.2604 v 1.18534 1.18533 h 1.2604 c 1.11051,0 1.29175,-0.0448 1.524,-0.37634 z m 3.14227,0.71023 v -3.73011 l 2.32834,0.0471 2.32833,0.0471 0.0536,0.46567 0.0536,0.46566 h -1.96631 -1.96632 l 0.0501,1.143 0.0501,1.143 1.56634,0.0487 c 1.53155,0.0476 1.56633,0.0578 1.56633,0.45931 0,0.40151 -0.0348,0.41171 -1.56633,0.45932 l -1.56634,0.0487 v 1.10067 1.10067 l 1.90501,0.0479 c 1.89942,0.0477 1.905,0.0491 1.905,0.46566 v 0.41779 h -2.37067 -2.37067 z m 7.62,0.51278 v -3.21734 h -1.11191 -1.11191 l 0.0536,-0.46566 0.0536,-0.46567 2.58233,-0.0467 2.58233,-0.0468 v 0.51241 0.51241 h -1.10066 -1.10067 v 3.21734 3.21733 h -0.42333 -0.42334 z m 6.41269,2.42386 c 0.17617,-0.44836 0.72055,-1.9201 1.20972,-3.27053 1.09159,-3.01346 1.27642,-3.38667 1.67718,-3.38667 0.32102,0 0.38667,0.1556 2.48261,5.88434 l 0.57306,1.56633 h -0.47136 c -0.40554,0 -0.5217,-0.11916 -0.83192,-0.85343 l -0.36056,-0.85343 -1.48901,0.0491 -1.489,0.0491 -0.27988,0.762 c -0.24128,0.65692 -0.35306,0.76934 -0.81051,0.8152 l -0.53064,0.0532 z m 4.02944,-1.9582 c -0.0466,-0.11641 -0.29103,-0.82126 -0.54314,-1.56633 -0.2521,-0.74507 -0.51409,-1.41603 -0.58218,-1.49103 -0.11266,-0.12408 -1.18881,2.67425 -1.18881,3.09125 0,0.10742 0.47471,0.17778 1.19944,0.17778 0.89188,0 1.17772,-0.0543 1.11469,-0.21167 z m 2.93521,2.24367 c 0,-0.45155 0.0564,-0.508 0.508,-0.508 0.45156,0 0.508,0.0565 0.508,0.508 0,0.45156 -0.0564,0.508 -0.508,0.508 -0.45156,0 -0.508,-0.0564 -0.508,-0.508 z m 8.29733,0 c 0,-0.45155 0.0564,-0.508 0.508,-0.508 0.45156,0 0.508,0.0565 0.508,0.508 0,0.45156 -0.0564,0.508 -0.508,0.508 -0.45156,0 -0.508,-0.0564 -0.508,-0.508 z m -182.202683,-8.0437 c 0,-0.35748 0.07902,-0.42334 0.508,-0.42334 0.428978,0 0.508001,0.0659 0.508001,0.42334 0,0.35748 -0.07902,0.42333 -0.508001,0.42333 -0.428977,0 -0.508,-0.0659 -0.508,-0.42333 z m 18.965329,0 c 0,-0.35748 0.079,-0.42334 0.508004,-0.42334 0.42898,0 0.508,0.0659 0.508,0.42334 0,0.35748 -0.079,0.42333 -0.508,0.42333 -0.428974,0 -0.508004,-0.0659 -0.508004,-0.42333 z m 48.557224,0 c -0.0711,-0.37178 -0.0219,-0.42334 0.40361,-0.42334 0.40392,0 0.48451,0.0704 0.48451,0.42334 0,0.33314 -0.086,0.42333 -0.40359,0.42333 -0.29603,0 -0.42516,-0.11282 -0.48453,-0.42333 z m 37.80279,0 c 0,-0.33867 0.0847,-0.42334 0.42333,-0.42334 0.33867,0 0.42334,0.0847 0.42334,0.42334 0,0.33866 -0.0847,0.42333 -0.42334,0.42333 -0.33866,0 -0.42333,-0.0847 -0.42333,-0.42333 z m 24.72267,0 c 0,-0.33867 0.0847,-0.42334 0.42333,-0.42334 0.33867,0 0.42334,0.0847 0.42334,0.42334 0,0.33866 -0.0847,0.42333 -0.42334,0.42333 -0.33866,0 -0.42333,-0.0847 -0.42333,-0.42333 z M 58.400692,241.8705 c -1.323445,-0.19752 -2.869504,-0.76036 -3.754677,-1.36687 -1.645072,-1.12718 -2.322092,-2.55409 -2.319407,-4.88847 0.0037,-3.20987 1.247145,-5.07868 4.024304,-6.04821 0.781849,-0.27296 1.624892,-0.30179 8.823114,-0.30179 h 7.958667 l 1.091931,0.48195 c 0.600561,0.26508 1.497391,0.74133 1.992954,1.05834 0.495564,0.31701 0.947413,0.57637 1.004109,0.57637 0.0567,0 0.06714,-1.04775 0.02321,-2.32833 -0.08794,-2.56326 -0.246912,-3.13785 -1.153986,-4.17096 -1.269838,-1.44626 -2.995949,-1.83549 -8.122884,-1.83166 -2.002367,0.002 -4.805428,0.0817 -6.229025,0.17814 -2.178259,0.14763 -2.700391,0.23727 -3.295447,0.56578 -0.877586,0.4845 -1.407548,1.24967 -1.557337,2.24855 l -0.114944,0.76648 h -1.654735 c -0.910104,0 -1.692914,-0.0382 -1.739575,-0.0848 -0.04666,-0.0467 -0.0212,-0.55016 0.05657,-1.11888 0.273463,-1.9996 1.165958,-3.35234 2.743627,-4.15846 1.576278,-0.80542 2.550174,-0.89704 9.568254,-0.90022 6.264539,-0.003 6.573087,0.0123 8.585886,0.4198 3.374341,0.68323 4.459013,1.2276 5.215539,2.61759 0.884311,1.62477 0.946632,2.32002 0.949348,10.591 l 0.0025,7.62 h -1.608657 -1.608667 v -1.22769 c 0,-0.67522 -0.04223,-1.22767 -0.09385,-1.22767 -0.05162,0 -0.326588,0.21751 -0.611046,0.48336 -0.772719,0.72217 -2.196697,1.5368 -3.216495,1.8401 -0.74504,0.22158 -2.054591,0.2769 -7.423944,0.31361 -3.585633,0.0245 -6.976534,-0.0237 -7.535334,-0.10706 z m 14.32796,-2.7718 c 3.169479,-0.56535 4.785437,-2.01869 4.48348,-4.03229 -0.340375,-2.26978 -2.556702,-3.43188 -6.925108,-3.63108 -2.362914,-0.10774 -11.046325,0.21419 -12.042561,0.44647 -1.538967,0.35884 -2.301264,1.5403 -2.295386,3.55757 0.0068,2.34082 0.720911,3.20582 2.944914,3.56727 0.660019,0.10727 1.314335,0.21743 1.454035,0.2448 0.1397,0.0274 2.6924,0.0559 5.672667,0.0635 3.873615,0.01 5.78629,-0.0518 6.707959,-0.21624 z m 24.534048,2.77898 c -4.789527,-0.0869 -6.248945,-0.16724 -7.180372,-0.39538 -3.012792,-0.73795 -4.198474,-2.20277 -4.485384,-5.54136 l -0.11531,-1.34178 h 1.741865 1.741863 l 0.001,0.635 c 0.0024,1.60873 0.751498,2.90822 2.012687,3.49145 0.755425,0.34935 1.031587,0.36249 8.640317,0.41118 5.201094,0.0333 8.151124,-0.0119 8.720674,-0.13354 1.833,-0.39152 2.68104,-1.43495 2.68104,-3.29877 0,-1.11761 -0.26589,-1.81203 -0.91525,-2.39025 -1.06451,-0.94792 -2.41734,-1.08297 -10.86331,-1.08446 -4.471511,-8.5e-4 -7.713816,-0.0734 -8.462324,-0.18955 -3.345394,-0.51904 -4.770491,-2.23705 -4.760091,-5.7384 0.01045,-3.52025 1.909405,-5.10255 6.811881,-5.67603 2.890465,-0.33811 14.083924,-0.34431 15.964644,-0.009 2.33677,0.41682 3.54305,1.16176 4.30776,2.66026 0.31946,0.62601 0.74455,2.36049 0.75167,3.06695 0,0.0699 -0.79882,0.127 -1.77672,0.127 h -1.778 v -0.51474 c 0,-0.7445 -0.58017,-1.7692 -1.2224,-2.15905 -0.30558,-0.18549 -0.95939,-0.42177 -1.45293,-0.52506 -1.18561,-0.24815 -13.427966,-0.25381 -14.846006,-0.007 -2.11865,0.36894 -3.137325,1.3611 -3.137325,3.05567 0,1.79748 0.8383,2.73236 2.628184,2.93097 0.463731,0.0514 4.195947,0.175 8.293817,0.27454 9.37929,0.22783 10.31438,0.33765 11.87077,1.39409 1.0549,0.71604 1.6702,1.92835 1.92321,3.78918 0.398,2.92739 -0.42459,5.09889 -2.28682,6.03693 -1.24351,0.62638 -5.34848,1.32315 -7.49062,1.27144 -0.71897,-0.0173 -4.01231,-0.0806 -7.31854,-0.14059 z m 30.8431,-0.003 c -4.89224,-0.47196 -6.71612,-2.01217 -7.29283,-6.15861 -0.10025,-0.72077 -0.18227,-3.81957 -0.18227,-6.88623 v -5.57575 h -2.70934 -2.70933 v -1.27 -1.27 h 2.78934 2.78936 l 0.047,-2.413 0.047,-2.413 1.64644,-0.0484 1.64643,-0.0484 0.0469,2.46652 0.0469,2.46651 7.95867,0.0372 7.95867,0.0372 0.0497,1.22601 0.0497,1.226 -8.00838,0.044 -8.00839,0.044 v 6.43467 c 0,5.95353 0.0236,6.47898 0.31568,7.02733 0.41166,0.77291 1.08537,1.49005 1.70242,1.81217 1.7809,0.92968 7.89287,0.9303 9.67981,0.001 1.24157,-0.6457 1.65354,-1.67925 1.85325,-4.64948 l 0.1167,-1.73566 h 1.59042 1.59039 v 1.93899 c 0,2.9923 -0.41446,4.41723 -1.66895,5.73797 -1.32686,1.39692 -3.33784,1.97124 -7.22105,2.06225 -1.397,0.0327 -3.25291,-0.009 -4.12423,-0.0933 z m 13.52225,-19.80561 c -94.799531,-31.04715 -47.399767,-15.52358 0,0 z M 0.57335265,231.30308 V 220.71382 H 2.1820195 3.7906863 v 1.43934 c 0,1.35516 0.1862142,1.84776 0.4200229,1.11109 0.3079141,-0.97015 2.6173081,-2.23802 4.8401411,-2.65726 1.9456157,-0.36696 10.0168897,-0.24575 11.6557117,0.17505 1.517696,0.38969 3.306266,1.37514 4.319949,2.38018 l 0.860955,0.8536 1.101279,-1.11352 c 2.091669,-2.11494 3.620922,-2.51388 9.652612,-2.51813 6.644244,-0.005 9.260637,0.57171 10.959103,2.41433 0.385461,0.41818 0.859015,1.07037 1.052341,1.44933 0.80168,1.57142 0.85067,2.14451 0.86148,10.07792 l 0.01018,7.47007 h -1.657885 -1.657885 l -0.08467,-7.45066 c -0.07578,-6.66823 -0.116337,-7.52084 -0.386239,-8.11889 -0.477959,-1.05905 -1.031605,-1.67551 -1.957238,-2.1793 -1.361464,-0.741 -3.053842,-0.99136 -6.800524,-1.00602 -4.760463,-0.0186 -7.020085,0.47091 -8.360443,1.81127 -0.336562,0.33656 -0.770516,0.92279 -0.964345,1.30272 -0.729171,1.4293 -0.829154,2.55123 -0.832273,9.33914 l -0.0029,6.39826 -1.689997,-0.0483 -1.689998,-0.0483 -0.05565,-7.366 c -0.03883,-5.13928 -0.117079,-7.55091 -0.258861,-7.9777 -0.34001,-1.02347 -1.148069,-1.97275 -2.082225,-2.44612 -1.513984,-0.7672 -2.92859,-0.97277 -6.669272,-0.9692 -6.2157777,0.006 -8.7344736,0.89762 -9.939978,3.51902 -0.3842851,0.83564 -0.3899527,0.94041 -0.4350699,8.04334 l -0.045711,7.19666 -1.6899553,0.0483 -1.68995365,0.0483 z"
         id="path239"
         sodipodi:nodetypes="cssscsssssssssscsssssssssccscssssssssssssssscsssscsscsssscssccsssssscsssccsssssssscsssssssssscscssssscssssssssscssssssssssscccccccccccssccccscccccccccccccccccccccccccccsssccccsccccccsccsssssscsscssccccccccccccccccccccccccsscsssccccccccccssscccscccsscsccccccssssssccccccccccccccsssccccccccccccccssscsssscsscsscccccssssssccccssccssscccsccssccccccsscccccccccccccccccccccsssssscsscssccccccccccccccccccccccccccccccccccccccccsssccccccccccccssscscccccssscsccccccccccccsssccccccccccccssscccccccccccccsscccssccccccccccsscccccccccccccccsssscsscssssssssccsscssscccccccsscccccccsssscccsscssscssccscssssssscccccccccccccccscssssscsssscccccccccccccccccccccccccccssscsscccssccscssssccccsssssscccccccccsssscccssccccccccccsssccccscccccccccccccccccccccsssscsscccsscssssssssssssssssssssssssssssssssssssssssssssssscsssssccsscsccsccsscccssssssscssccsccccssccccsscssccsscscscssscscsssscccssscccccccccccccccccccscssscccsscssccccccssssscscscscccssscscccccssscsscccc" /><path
         style="fill:#e3010f;fill-opacity:1;stroke-width:0.169333"
         d="m 155.85266,241.78927 c -4.73806,-0.35448 -6.53299,-1.43296 -7.56755,-4.54693 -0.35455,-1.0672 -0.37753,-1.46648 -0.43743,-7.60335 l -0.0632,-6.477 h -2.69691 c -3.76483,0.22679 -3.63084,-2.37066 0.0971,-2.37066 h 2.794 v -2.49767 -2.49767 h 1.65124 1.65124 l 0.0847,2.45534 0.0847,2.45533 7.91634,0.044 7.91633,0.044 v 1.18366 1.18365 h -7.96443 -7.96442 l 0.0481,6.477 c 0.0478,6.44374 0.0502,6.48123 0.45349,7.30054 0.44152,0.89689 1.42804,1.64948 2.63999,2.01396 0.42032,0.1264 1.84376,0.20563 3.72795,0.20749 2.44859,0.002 3.23933,-0.0562 4.0209,-0.29783 1.21451,-0.37555 2.03857,-1.08226 2.30712,-1.97855 0.16786,-0.56029 0.50092,-3.36169 0.52422,-4.40927 0.005,-0.20926 0.28155,-0.24877 1.57204,-0.2243 l 1.56638,0.0297 -0.007,2.17163 c -0.006,1.8244 -0.0704,2.35962 -0.40571,3.3474 -0.68681,2.02327 -2.19513,3.20998 -4.75237,3.73904 -1.46617,0.30333 -4.89499,0.42266 -7.19667,0.25046 z m 55.20268,0.006 c -1.65249,-0.1906 -2.52835,-0.45108 -3.86099,-1.14827 -1.87608,-0.9815 -3.00264,-2.62263 -3.62826,-5.28547 -0.42792,-1.82142 -0.42848,-7.07032 -0.002,-8.64333 0.9111,-3.35195 2.60435,-5.08219 5.82654,-5.9538 1.18327,-0.32008 1.91037,-0.36698 6.79948,-0.43855 7.45866,-0.10919 9.70346,0.15434 11.78394,1.3834 1.71896,1.01547 2.9767,3.33205 2.97692,5.48295 l 3e-5,0.45734 -1.7357,-0.0293 -1.73572,-0.0293 -0.11186,-0.76737 c -0.24325,-1.66853 -1.23998,-2.71083 -3.21865,-3.36581 -0.95515,-0.31616 -1.57316,-0.36262 -5.66277,-0.42564 -8.06421,-0.12427 -9.89707,0.40451 -11.16413,3.22088 -0.4238,0.942 -0.48431,1.30136 -0.55229,3.2799 -0.12987,3.77979 0.38931,6.61455 1.44016,7.86341 1.13643,1.35058 2.76067,1.69307 8.55838,1.80465 5.07273,0.0976 6.73452,-0.0533 8.30888,-0.7547 1.57241,-0.70052 2.65628,-2.32021 2.65628,-3.96942 v -0.47809 h 1.76735 1.76737 l -0.0675,0.55033 c -0.0371,0.30268 -0.10302,0.98871 -0.14651,1.5245 -0.16232,2.0009 -1.38039,3.69154 -3.35651,4.65878 -1.96316,0.9609 -2.96899,1.08153 -9.53155,1.14317 -3.25967,0.0306 -6.46007,-0.006 -7.112,-0.081 z m -32.00108,-0.19452 c -1.472,-0.15494 -3.33942,-0.66661 -4.39112,-1.20314 -1.82869,-0.93293 -3.1808,-2.93563 -3.74855,-5.5522 -0.33558,-1.5466 -0.38238,-5.67941 -0.0825,-7.28133 0.89801,-4.79646 3.05885,-6.67048 8.38854,-7.27502 1.976,-0.22414 8.23651,-0.22158 10.83733,0.004 3.80826,0.33093 5.65731,0.88834 7.01469,2.11465 1.60048,1.44595 2.21457,3.21002 2.34008,6.72228 l 0.0893,2.49767 h -12.63835 -12.63835 l -0.0139,0.381 c -0.0479,1.31463 0.0833,2.51759 0.37895,3.47464 0.43452,1.40686 1.49142,2.51971 2.94692,3.10296 1.00346,0.4021 1.02395,0.40313 8.118,0.40526 6.45857,0.002 7.18491,-0.026 7.90556,-0.30409 0.9884,-0.38141 1.88411,-1.35279 2.28299,-2.47588 l 0.30493,-0.85856 h 1.71024 1.71023 l -0.14312,1.04656 c -0.24015,1.75589 -1.22992,3.0426 -3.04992,3.96486 -2.25516,1.14278 -4.45211,1.42251 -10.97491,1.39742 -2.74744,-0.0106 -5.60362,-0.0832 -6.34707,-0.16151 z m 16.88083,-13.61334 c -0.14477,-2.96592 -1.71664,-4.53233 -5.00035,-4.98291 -1.7125,-0.23498 -9.01283,-0.23525 -10.72815,-3.4e-4 -1.73143,0.23707 -3.43198,0.83406 -4.27279,1.49999 -0.84556,0.6697 -1.53754,2.05612 -1.6957,3.3974 -0.0663,0.5623 -0.083,1.05987 -0.0372,1.10571 0.0458,0.0458 4.96594,0.0637 10.93356,0.0398 l 10.85021,-0.0436 z m 40.43558,-1.35466 v -15.15534 h 1.60867 1.60867 v 6.28475 6.28475 l 1.13209,-1.05902 c 1.84328,-1.7243 3.67069,-2.40514 7.24991,-2.70109 4.09793,-0.33885 8.66759,-0.10252 11.31583,0.58522 3.10255,0.80572 4.55068,2.50595 5.18545,6.08816 0.10519,0.5936 0.17805,3.83308 0.17805,7.91633 v 6.91157 h -1.69333 -1.69334 v -7.19075 c 0,-6.19087 -0.0383,-7.30341 -0.27504,-8.001 -0.60988,-1.79659 -1.73923,-2.77646 -3.78896,-3.28742 -1.30341,-0.32491 -9.90623,-0.32496 -11.684,-6e-5 -2.75199,0.50295 -4.30338,1.51974 -5.13034,3.36245 -0.70798,1.57761 -0.81134,2.83414 -0.75941,9.23252 l 0.0477,5.88441 -1.651,-7e-5 -1.651,-8e-5 z"
         id="path239-6"
         sodipodi:nodetypes="sssccccccccccccccccsssccscsccsssscsscsssscccssssssssscccscsscccsscscsscccscsssscccsssccssssssccsccccccssssscccscsssscccc" /><path
         style="fill:#e3010f;fill-opacity:1;stroke-width:0.125064"
         d="m -46.848869,257.15956 c -0.777072,-0.30352 -1.056908,-0.55923 -1.346759,-1.23072 -0.225144,-0.52156 -0.233921,-1.26109 -0.233921,-19.71024 0,-13.9567 0.03857,-19.28392 0.141837,-19.59346 0.194071,-0.58169 0.802144,-1.19605 1.413236,-1.42781 0.413614,-0.15684 1.020208,-0.18631 3.251166,-0.15787 l 2.742677,0.0349 0.902044,1.72159 c 1.140329,2.17641 1.599401,2.88608 3.646209,5.63681 1.864564,2.5058 1.853893,2.47527 1.472311,4.21006 -0.239193,1.08746 -0.238748,3.92606 7.39e-4,5.29995 0.426228,2.44416 1.321631,4.613 2.895604,7.01373 l 0.980561,1.4956 v 2.56898 c 0,2.94357 0.136518,3.66313 1.118172,5.89367 1.406508,3.19586 3.70187,5.46835 7.448736,7.37439 2.475033,1.25909 3.84118,1.11932 -10.880602,1.11319 -12.410153,-0.007 -12.969243,-0.0153 -13.552106,-0.24286 z m 39.5029673,-0.38634 c -1.03049,-0.1747 -5.6339853,-1.33846 -7.4212903,-1.87609 -2.149975,-0.6467 -4.192807,-1.44838 -6.050581,-2.37451 -4.423454,-2.20515 -6.970513,-4.79807 -7.668142,-7.80618 -0.362016,-1.56101 -0.307127,-1.56774 1.317306,-0.16114 5.015252,4.34262 11.709777,7.07649 18.4469948,7.53325 0.61907,0.042 1.4491831,0.10799 1.8447018,0.14673 l 0.7191225,0.0704 v 2.30142 2.3014 l -0.2813934,-0.0146 c -0.1547674,-0.01 -0.5627896,-0.0623 -0.9067184,-0.12065 z M -9.5345265,245.5735 c -0.1719673,-0.0248 -0.8191775,-0.10683 -1.4382465,-0.18218 -6.703717,-0.81583 -11.426224,-2.8007 -15.093545,-6.34377 -2.250346,-2.17411 -3.551365,-4.02722 -4.607135,-6.56217 -0.590028,-1.41668 -0.93277,-2.67072 -1.063243,-3.89028 -0.104294,-0.97485 -0.09646,-0.97677 0.753626,-0.18697 1.323294,1.22952 4.135271,3.21285 6.157702,4.34316 4.789467,2.67678 10.851155,4.49744 16.7290789,5.0246 0.8254244,0.0741 1.599261,0.16391 1.7196327,0.19966 0.2020931,0.0602 0.2188665,0.35081 0.2188665,3.794 v 3.72891 l -0.2813934,0.0755 c -0.2931246,0.0786 -2.5507811,0.0782 -3.0953432,-4e-4 z m 0.8129123,-15.51418 c -2.5668528,-0.32788 -5.1474328,-0.73402 -6.2967718,-0.99101 -5.657197,-1.26502 -10.791897,-4.37062 -14.637741,-8.85329 -1.305029,-1.52113 -3.015657,-3.79633 -3.438724,-4.57367 l -0.342587,-0.62944 h 12.64333 c 11.1288672,0 12.69881,0.0232 13.1065872,0.19358 0.6179982,0.25822 1.0139317,0.63923 1.2933525,1.24468 0.2151084,0.46607 0.2310674,0.95096 0.2336317,7.09739 l 0.00269,6.59714 -1.0943163,-0.0188 c -0.601875,-0.0103 -1.2631507,-0.0402 -1.4695081,-0.0666 z"
         id="path239-3"
         sodipodi:nodetypes="cssssccssscscssssccssssssscccssssssssssscscssssssscssscccss" /></g></g></svg>
