<?xml version="1.0" encoding="UTF-8" standalone="no"?>
<!-- Created with Inkscape (http://www.inkscape.org/) -->

<svg
   width="160mm"
   height="160mm"
   viewBox="0 0 160 160"
   version="1.1"
   id="svg1964"
   inkscape:version="1.1.2 (0a00cf5339, 2022-02-04)"
   sodipodi:docname="MtTubes.svg"
   xmlns:inkscape="http://www.inkscape.org/namespaces/inkscape"
   xmlns:sodipodi="http://sodipodi.sourceforge.net/DTD/sodipodi-0.dtd"
   xmlns="http://www.w3.org/2000/svg"
   xmlns:svg="http://www.w3.org/2000/svg">
  <sodipodi:namedview
     id="namedview1966"
     pagecolor="#ffffff"
     bordercolor="#666666"
     borderopacity="1.0"
     inkscape:pageshadow="2"
     inkscape:pageopacity="0.0"
     inkscape:pagecheckerboard="0"
     inkscape:document-units="mm"
     showgrid="false"
     inkscape:zoom="1"
     inkscape:cx="261"
     inkscape:cy="287.5"
     inkscape:window-width="1920"
     inkscape:window-height="1011"
     inkscape:window-x="0"
     inkscape:window-y="0"
     inkscape:window-maximized="1"
     inkscape:current-layer="layer1" />
  <defs
     id="defs1961" />
  <g
     inkscape:label="Layer 1"
     inkscape:groupmode="layer"
     id="layer1">
    <path
       id="path2047-3"
       style="opacity:0.986316;fill:#000080;fill-opacity:0.692141;stroke:#000000;stroke-width:0.215039;stroke-linecap:round;paint-order:stroke markers fill"
       d="m 78.202161,55.994502 -1.075941,1.075937 v 1.06837 A 22.187858,22.187858 0 0 0 57.955511,77.29722 h -0.987815 l -1.075941,1.076042 1.075941,1.075938 v 1.343814 l -1.075941,1.075936 1.075941,1.075946 h 0.987815 A 22.187858,22.187858 0 0 0 77.12622,102.10318 v 0.82639 l 1.075941,1.07593 1.075943,-1.07593 h 1.343797 l 1.075942,1.07593 1.076048,-1.07593 v -0.82743 A 22.187858,22.187858 0 0 0 101.93598,82.944896 h 1.09633 l 1.07594,-1.075946 -1.07594,-1.075936 V 79.4492 l 1.07594,-1.075938 -1.07594,-1.076042 h -1.09929 A 22.187858,22.187858 0 0 0 82.773891,58.120609 v -1.05017 l -1.076048,-1.075937 -1.075942,1.075937 h -1.343797 z m 1.747945,3.71379 A 20.412835,20.412835 0 0 1 100.36293,80.121099 20.412835,20.412835 0 0 1 79.950106,100.53392 20.412835,20.412835 0 0 1 59.5374,80.121099 20.412835,20.412835 0 0 1 79.950106,59.708292 Z" />
    <path
       id="path2047-3-9"
       style="opacity:0.986316;fill:#000080;fill-opacity:0.692141;stroke:#000000;stroke-width:0.269746;stroke-linecap:round;paint-order:stroke markers fill"
       d="m 77.744781,49.887494 -1.349662,1.349662 v 1.340165 A 27.832447,27.832447 0 0 0 52.347378,76.60962 h -1.239114 l -1.349661,1.349794 1.349661,1.349668 v 1.685655 l -1.349661,1.349659 1.349661,1.349668 h 1.239114 a 27.832447,27.832447 0 0 0 24.047741,24.032166 v 1.03662 l 1.349662,1.34966 1.34966,-1.34966 h 1.68566 l 1.349662,1.34966 1.349794,-1.34966 V 107.7249 A 27.832447,27.832447 0 0 0 107.51648,83.694064 h 1.37525 l 1.34967,-1.349668 -1.34967,-1.349659 v -1.685655 l 1.34967,-1.349668 -1.34967,-1.349794 h -1.37895 A 27.832447,27.832447 0 0 0 83.479557,52.554498 v -1.317342 l -1.349794,-1.349662 -1.349662,1.349662 h -1.68566 z m 2.192623,4.658581 A 25.605856,25.605856 0 0 1 105.54323,80.151897 25.605856,25.605856 0 0 1 79.937404,105.75772 25.605856,25.605856 0 0 1 54.331701,80.151897 25.605856,25.605856 0 0 1 79.937404,54.546075 Z" />
    <path
       id="path2047-3-9-3"
       style="opacity:0.986316;fill:#000080;fill-opacity:0.692141;stroke:#000000;stroke-width:0.338366;stroke-linecap:round;paint-order:stroke markers fill"
       d="m 77.171064,42.226872 -1.693017,1.693017 v 1.681099 A 34.913024,34.913024 0 0 0 45.312563,75.747109 h -1.554346 l -1.693012,1.693201 1.693012,1.693002 v 2.114491 l -1.693012,1.693003 1.693012,1.693027 h 1.554346 a 34.913024,34.913024 0 0 0 30.165484,30.145947 v 1.30033 l 1.693017,1.69302 1.693012,-1.69302 h 2.114492 l 1.693015,1.69302 1.693174,-1.69302 v -1.30197 A 34.913024,34.913024 0 0 0 114.51669,84.633833 h 1.72511 l 1.693,-1.693027 -1.693,-1.693003 v -2.114491 l 1.693,-1.693002 -1.693,-1.693201 h -1.72975 A 34.913024,34.913024 0 0 0 84.364757,45.572362 v -1.652473 l -1.693174,-1.693017 -1.693015,1.693017 h -2.114492 z m 2.750425,5.843724 A 32.119993,32.119993 0 0 1 112.04145,80.190553 32.119993,32.119993 0 0 1 79.921489,112.31049 32.119993,32.119993 0 0 1 47.801695,80.190553 32.119993,32.119993 0 0 1 79.921489,48.070596 Z" />
    <path
       id="path2047-3-9-3-6"
       style="opacity:0.986316;fill:#000080;fill-opacity:0.692141;stroke:#000000;stroke-width:0.42445;stroke-linecap:round;paint-order:stroke markers fill"
       d="m 76.451373,32.617397 -2.123715,2.123718 v 2.108771 A 43.794907,43.794907 0 0 0 36.488072,74.665189 h -1.949775 l -2.123709,2.123921 2.123709,2.123712 v 2.652428 l -2.123709,2.123704 2.123709,2.123741 h 1.949775 a 43.794907,43.794907 0 0 0 37.839586,37.815075 v 1.63113 l 2.123715,2.1237 2.12372,-2.1237 h 2.652417 l 2.123716,2.1237 2.123914,-2.1237 v -1.6332 a 43.794907,43.794907 0 0 0 37.82258,-37.813005 h 2.16398 l 2.12371,-2.123741 -2.12371,-2.123704 v -2.652428 l 2.12371,-2.123712 -2.12371,-2.123921 h -2.16981 A 43.794907,43.794907 0 0 0 85.47514,36.813977 v -2.072862 l -2.123914,-2.123718 -2.123716,2.123718 h -2.652417 z m 3.450134,7.330367 A 40.291312,40.291312 0 0 1 120.19277,80.239043 40.291312,40.291312 0 0 1 79.901507,120.53029 40.291312,40.291312 0 0 1 39.610441,80.239043 40.291312,40.291312 0 0 1 79.901507,39.947764 Z" />
    <path
       id="path2047-3-9-3-6-0"
       style="opacity:0.986316;fill:#000080;fill-opacity:0.692141;stroke:#000000;stroke-width:0.532429;stroke-linecap:round;paint-order:stroke markers fill"
       d="m 75.548602,20.563246 -2.663992,2.663991 v 2.645247 A 54.936324,54.936324 0 0 0 25.41864,73.307989 h -2.445797 l -2.663985,2.664249 2.663985,2.664002 v 3.32719 l -2.663985,2.663995 2.663985,2.663994 h 2.445797 a 54.936324,54.936324 0 0 0 47.46597,47.435251 v 2.04607 l 2.663992,2.66401 2.663991,-2.66401 h 3.327192 l 2.663996,2.66401 2.664249,-2.66401 v -2.04869 a 54.936324,54.936324 0 0 0 47.44462,-47.432631 h 2.71449 l 2.664,-2.663994 -2.664,-2.663995 v -3.32719 l 2.664,-2.664002 -2.664,-2.664249 h -2.72179 A 54.936324,54.936324 0 0 0 86.86803,25.827436 v -2.600199 l -2.664249,-2.663991 -2.663996,2.663991 h -3.327192 z m 4.327847,9.195216 A 50.541424,50.541424 0 0 1 130.41783,80.299832 50.541424,50.541424 0 0 1 79.876449,130.84121 50.541424,50.541424 0 0 1 29.335337,80.299832 50.541424,50.541424 0 0 1 79.876449,29.758462 Z" />
    <path
       id="path2047-3-9-3-6-0-6"
       style="opacity:0.986316;fill:#000080;fill-opacity:0.692141;stroke:#000000;stroke-width:0.667884;stroke-linecap:round;paint-order:stroke markers fill"
       d="m 74.416166,5.4425419 -3.341714,3.341711 V 12.102453 A 68.912123,68.912123 0 0 0 11.53314,71.60556 H 8.4651323 l -3.3417024,3.342019 3.3417024,3.341716 v 4.173623 l -3.3417024,3.341716 3.3417024,3.341717 h 3.0680027 a 68.912123,68.912123 0 0 0 59.541317,59.502799 v 2.56661 l 3.341714,3.3417 3.34171,-3.3417 h 4.17363 l 3.34171,3.3417 3.342028,-3.3417 v -2.56989 A 68.912123,68.912123 0 0 0 148.12979,89.146351 h 3.40508 l 3.3417,-3.341717 -3.3417,-3.341716 v -4.173623 l 3.3417,-3.341716 -3.3417,-3.342019 h -3.41423 A 68.912123,68.912123 0 0 0 88.615244,12.045945 V 8.7842529 l -3.342028,-3.341711 -3.34171,3.341711 h -4.17363 z M 79.845015,16.977018 A 63.399162,63.399162 0 0 1 143.24413,80.376117 63.399162,63.399162 0 0 1 79.845015,143.7752 63.399162,63.399162 0 0 1 16.446248,80.376117 63.399162,63.399162 0 0 1 79.845015,16.977018 Z" />
  </g>
</svg>
