<?xml version="1.0" encoding="UTF-8" standalone="no"?>
<!-- Created with Inkscape (http://www.inkscape.org/) -->

<svg
   width="60"
   height="80"
   viewBox="0 0 15.874993 21.166672"
   version="1.1"
   id="svg1022"
   xml:space="preserve"
   sodipodi:docname="pdm_logo.svg"
   inkscape:version="1.2.2 (b0a8486541, 2022-12-01)"
   xmlns:inkscape="http://www.inkscape.org/namespaces/inkscape"
   xmlns:sodipodi="http://sodipodi.sourceforge.net/DTD/sodipodi-0.dtd"
   xmlns="http://www.w3.org/2000/svg"
   xmlns:svg="http://www.w3.org/2000/svg"><sodipodi:namedview
     id="namedview1024"
     pagecolor="#ffffff"
     bordercolor="#666666"
     borderopacity="1.0"
     inkscape:showpageshadow="2"
     inkscape:pageopacity="0.0"
     inkscape:pagecheckerboard="0"
     inkscape:deskcolor="#d1d1d1"
     inkscape:document-units="mm"
     showgrid="false"
     inkscape:zoom="9.475"
     inkscape:cx="29.973615"
     inkscape:cy="40"
     inkscape:window-width="1920"
     inkscape:window-height="961"
     inkscape:window-x="0"
     inkscape:window-y="0"
     inkscape:window-maximized="1"
     inkscape:current-layer="layer1" /><defs
     id="defs1019"><style
       id="style1068">
      .cls-1 {
        fill: none;
      }
    </style><style
       id="style2857">
      .cls-1 {
        fill: none;
      }
    </style><style
       id="style2933">.cls-1 {
        fill: none;
      }</style><style
       id="style2994">.cls-1 {
        fill: none;
      }</style><style
       id="style3092">
      .cls-1 {
        fill: none;
      }
    </style></defs><g
     inkscape:label="Layer 1"
     inkscape:groupmode="layer"
     id="layer1"><rect
       style="fill:#ffe08a;stroke:none;stroke-width:0.349559;fill-opacity:1"
       id="rect1241"
       width="15.875"
       height="10.583333"
       x="0"
       y="-2.220446e-16" /><rect
       style="fill:#3850b7;stroke:none;stroke-width:0.349559;fill-opacity:1"
       id="rect1241-1"
       width="15.875"
       height="10.583333"
       x="-1.110223e-16"
       y="-21.166666"
       transform="scale(1,-1)" /><g
       aria-label="PDM"
       id="text1137"
       style="font-size:5.64444px;fill:#ffffff;stroke-width:0.264583"><path
         d="m 3.2243951,13.859934 q 0.7902217,0 1.1514658,0.310444 0.3612442,0.310444 0.3612442,0.874888 0,0.333022 -0.1523999,0.626533 Q 4.4379498,15.959666 4.08235,16.140288 3.7323948,16.32091 3.1284397,16.32091 H 2.6655956 v 1.569154 H 2.1575959 v -4.03013 z m -0.045156,0.434622 h -0.513644 v 1.591732 h 0.4063997 q 0.5757329,0 0.8579549,-0.186267 0.282222,-0.186266 0.282222,-0.632177 0,-0.389466 -0.2483554,-0.581377 -0.2483554,-0.191911 -0.7845772,-0.191911 z"
         style="-inkscape-font-specification:sans-serif"
         id="path2649" /><path
         d="m 8.8010993,15.835488 q 0,1.021644 -0.5587995,1.540932 -0.5531552,0.513644 -1.5465766,0.513644 H 5.5724796 v -4.03013 h 1.2417768 q 0.6095995,0 1.0555103,0.225778 0.4459108,0.225777 0.6886217,0.666044 0.2427109,0.434621 0.2427109,1.083732 z m -0.5362218,0.01693 q 0,-0.807155 -0.4007552,-1.179688 Q 7.4690115,14.294556 6.7408787,14.294556 H 6.0804792 v 3.160886 h 0.5475107 q 1.6368876,0 1.6368876,-1.603021 z"
         style="-inkscape-font-specification:sans-serif"
         id="path2651" /><path
         d="m 11.470917,17.890064 -1.326444,-3.533419 h -0.02258 q 0.01693,0.174977 0.02822,0.474133 0.01129,0.293511 0.01129,0.615244 v 2.444042 H 9.6929181 v -4.03013 h 0.7507109 l 1.241777,3.301997 h 0.02258 l 1.264355,-3.301997 h 0.745066 v 4.03013 h -0.502355 v -2.477909 q 0,-0.293511 0.01129,-0.581377 0.01693,-0.287867 0.02822,-0.468489 h -0.02258 l -1.343377,3.527775 z"
         style="-inkscape-font-specification:sans-serif"
         id="path2653" /></g><path
       style="fill:#000000;stroke-width:0.0127594"
       d="m 2.8492133,5.1680392 c 0,-2.3579213 0.00148,-3.320624 0.00326,-2.1393399 0.0018,1.1812846 0.0018,3.1104927 0,4.2871299 -0.0018,1.1766371 -0.00326,0.210131 -0.00326,-2.14779 z m 10.0543397,0 c 0,-2.3579213 0.0015,-3.320624 0.0033,-2.1393399 0.0019,1.1812846 0.0019,3.1104927 0,4.2871299 -0.0019,1.1766371 -0.0033,0.210131 -0.0033,-2.14779 z M 4.8973073,8.7405603 C 3.957298,8.2705298 3.8866182,8.2329083 3.8508738,8.1835642 3.8297917,8.1544574 3.8066988,8.1089495 3.799558,8.0824312 3.7910779,8.0509351 3.7877708,7.6301028 3.7900267,6.8690737 l 0.00346,-1.1651434 0.027467,-0.051037 c 0.015104,-0.02807 0.042726,-0.065392 0.061374,-0.082935 0.01865,-0.017545 0.428303,-0.229987 0.9103427,-0.4720947 l 0.8764367,-0.4401968 0.00638,-1.0526429 0.00639,-1.0526435 0.033841,-0.057417 C 5.7343276,2.463384 5.7665936,2.425009 5.7874156,2.409688 5.8082376,2.394365 6.263828,2.1620166 6.7998383,1.893357 l 0.974563,-0.488471 0.095695,2e-7 h 0.09569 l 0.9837265,0.4930535 c 0.6569287,0.3292586 0.9972081,0.5065344 1.0243068,0.5336338 0.090232,0.090232 0.083806,0.00724 0.090874,1.1734521 l 0.0063,1.052643 0.876434,0.4401968 c 0.482042,0.2421075 0.891696,0.4545504 0.910343,0.4720944 0.01865,0.017545 0.04629,0.054866 0.06136,0.082935 l 0.02748,0.051037 0.0035,1.1665849 c 0.0038,1.3080172 0.0079,1.2463435 -0.0874,1.3416307 -0.03807,0.038067 -0.266332,0.1576724 -1.025056,0.5370979 l -0.9761927,0.4881216 -0.092548,0.00523 -0.092546,0.00523 L 8.7732811,8.7966092 7.8700706,8.3454083 6.9673486,8.7956156 C 6.0659335,9.245171 6.0645147,9.2458214 5.9850158,9.2452233 5.9061457,9.2446511 5.8959833,9.2399392 4.897302,8.7405463 Z M 5.6754761,7.6816502 V 6.9352549 L 5.0503205,6.6226263 C 4.7064849,6.4506805 4.4222714,6.3099977 4.4187348,6.3099977 c -0.00353,0 -0.00643,0.3345324 -0.00643,0.7434056 v 0.7434051 l 0.6220211,0.3139349 c 0.3421089,0.1726621 0.6263223,0.3146903 0.6315856,0.3156163 0.00525,9.682e-4 0.00957,-0.3341937 0.00957,-0.7447094 z M 7.5510953,7.0563927 c 0,-0.4105173 -0.00286,-0.746395 -0.00634,-0.746395 -0.0035,0 -0.2848322,0.1392089 -0.6252063,0.3093522 L 6.3006836,6.9287017 V 7.6783982 8.4280957 L 6.925889,8.1154407 7.5510954,7.8027866 Z M 9.4394728,7.678374 V 6.9287017 L 8.8206127,6.6193499 C 8.4802391,6.4492066 8.198896,6.3099977 8.195406,6.3099977 c -0.00349,0 -0.00634,0.3358777 -0.00634,0.7463946 v 0.7463936 l 0.6220217,0.3119319 c 0.3421094,0.1715623 0.6234519,0.3122456 0.6252061,0.3126283 0.00177,3.721e-4 0.00317,-0.3366545 0.00317,-0.7489721 z M 10.702697,8.1154157 11.327853,7.8027866 V 7.0563927 c 0,-0.4105173 -0.0029,-0.746395 -0.0064,-0.746395 -0.0036,0 -0.28775,0.1406828 -0.631583,0.3126286 l -0.62515,0.3126286 v 0.7463953 c 0,0.4105157 0.0029,0.7463935 0.0064,0.7463935 0.0036,0 0.28775,-0.1406819 0.631585,-0.312628 z M 6.5686826,6.0930623 C 6.8914632,5.9316418 7.1555568,5.7967248 7.1555568,5.7932457 c 0,-0.00347 -0.2626829,-0.1376909 -0.5837393,-0.298249 L 5.9880783,5.203073 5.394826,5.499754 4.8015735,5.7964354 5.3884466,6.0907977 c 0.3227806,0.1618998 0.5883332,0.2946771 0.5901175,0.2950596 0.00178,4.03e-4 0.2673376,-0.1313746 0.5901185,-0.292795 z M 10.348574,6.0914965 10.938583,5.7964374 10.34533,5.4997566 9.7520774,5.2030751 9.1683395,5.4949988 c -0.3210571,0.160558 -0.5837401,0.2947698 -0.5837401,0.2982484 0,0.00478 1.1543844,0.5891042 1.1707219,0.5926118 0.00176,4.073e-4 0.2687467,-0.1320797 0.5932527,-0.2943625 z M 7.5510953,4.5300993 V 3.7837048 L 6.925889,3.4710507 6.3006823,3.1583964 v 0.7496968 0.7496964 l 0.6156372,0.3086352 c 0.3386002,0.1697497 0.619943,0.3089579 0.6252061,0.3093519 0.00525,3.828e-4 0.00957,-0.3351608 0.00957,-0.7456774 z M 8.8206127,4.9671415 9.4394728,4.6577893 V 3.9108676 3.163946 L 8.8143153,3.4769899 8.1891561,3.7900333 8.1891079,4.5332634 c -2.55e-5,0.4087764 0.00282,0.7432299 0.0063,0.7432299 0.00349,0 0.2848326,-0.1392082 0.6252068,-0.3093518 z M 8.4570613,2.9542714 C 8.7798417,2.7928508 9.043935,2.6579334 9.043935,2.6544548 c 0,-0.00348 -0.2641173,-0.1384088 -0.5869283,-0.2998444 L 7.870078,2.0610918 7.280019,2.3561761 6.68996,2.6512603 7.2002735,2.9069488 c 0.4114903,0.2061737 0.6192245,0.3117929 0.6666691,0.3389566 0.00178,0.00103 0.2673377,-0.130214 0.5901187,-0.291634 z"
       id="path3234" /></g></svg>
