<?xml version="1.0" encoding="UTF-8" standalone="no"?>
<!-- Created with Inkscape (http://www.inkscape.org/) -->

<svg
   width="120"
   height="40"
   viewBox="0 0 31.749977 10.58334"
   version="1.1"
   id="svg1022"
   xml:space="preserve"
   sodipodi:docname="pdm_logo.svg"
   inkscape:version="1.2.2 (b0a8486541, 2022-12-01)"
   xmlns:inkscape="http://www.inkscape.org/namespaces/inkscape"
   xmlns:sodipodi="http://sodipodi.sourceforge.net/DTD/sodipodi-0.dtd"
   xmlns="http://www.w3.org/2000/svg"
   xmlns:svg="http://www.w3.org/2000/svg"><sodipodi:namedview
     id="namedview1024"
     pagecolor="#ffffff"
     bordercolor="#666666"
     borderopacity="1.0"
     inkscape:showpageshadow="2"
     inkscape:pageopacity="0.0"
     inkscape:pagecheckerboard="0"
     inkscape:deskcolor="#d1d1d1"
     inkscape:document-units="mm"
     showgrid="false"
     inkscape:zoom="3.3499184"
     inkscape:cx="21.642318"
     inkscape:cy="32.836621"
     inkscape:window-width="1920"
     inkscape:window-height="961"
     inkscape:window-x="0"
     inkscape:window-y="0"
     inkscape:window-maximized="1"
     inkscape:current-layer="layer1" /><defs
     id="defs1019"><style
       id="style1068">
      .cls-1 {
        fill: none;
      }
    </style><style
       id="style2857">
      .cls-1 {
        fill: none;
      }
    </style><style
       id="style2933">.cls-1 {
        fill: none;
      }</style><style
       id="style2994">.cls-1 {
        fill: none;
      }</style><style
       id="style3092">
      .cls-1 {
        fill: none;
      }
    </style></defs><g
     inkscape:label="Layer 1"
     inkscape:groupmode="layer"
     id="layer1"><rect
       style="fill:#202767;fill-opacity:1;stroke:none;stroke-width:0.349559"
       id="rect1241-1"
       width="15.875"
       height="10.583333"
       x="-2.15e-05"
       y="-10.583333"
       transform="scale(1,-1)" /><g
       aria-label="PDM"
       id="text277"
       style="font-size:6.35px;line-height:1.25;stroke-width:0.264583"><path
         d="m 1.2477551,7.4919415 v -4.3307 q 0.3048,-0.0635 0.65405,-0.0889 0.3492499,-0.03175 0.6222999,-0.03175 0.97155,0 1.47955,0.34925 0.51435,0.34925 0.51435,1.1049 0,0.5207 -0.23495,0.8509 -0.23495,0.32385 -0.69215,0.47625 -0.45085,0.14605 -1.09855,0.14605 H 2.1177051 v 1.524 z m 0.86995,-2.26695 H 2.479655 q 0.3683,0 0.6223,-0.0635 0.26035,-0.0635 0.38735,-0.22225 0.13335,-0.15875 0.13335,-0.45085 0,-0.2794 -0.13335,-0.4318 -0.13335,-0.1524 -0.37465,-0.20955 -0.23495,-0.0635 -0.53975,-0.0635 -0.13335,0 -0.254,0.0127 -0.1206499,0.00635 -0.2031999,0.0127 z"
         style="font-weight:bold;font-family:Ubuntu;-inkscape-font-specification:'Ubuntu Bold';fill:#f2f2f2"
         id="path5362" /><path
         d="m 6.5373011,7.5427415 q -0.2667,0 -0.6096,-0.0254 -0.3429,-0.01905 -0.6604,-0.0889 v -4.27355 q 0.3175,-0.0635 0.6731,-0.0889 0.3556,-0.0254 0.6223,-0.0254 0.74295,0 1.30175,0.23495 0.5587999,0.23495 0.8699499,0.73025 0.31115,0.4953 0.31115,1.2827 0,0.75565 -0.31115,1.2573 -0.3048,0.50165 -0.8699499,0.7493 -0.56515,0.24765 -1.32715,0.24765 z m 0.0508,-0.74295 q 0.7874,0 1.1684,-0.40005 0.38735,-0.4064 0.38735,-1.11125 0,-0.73025 -0.37465,-1.1176 -0.3683,-0.38735 -1.1557,-0.38735 -0.15875,0 -0.2794,0.00635 -0.1143,0.00635 -0.19685,0.01905 v 2.9718 q 0.0635,0.00635 0.1651,0.0127 0.10795,0.00635 0.28575,0.00635 z"
         style="font-weight:bold;font-family:Ubuntu;-inkscape-font-specification:'Ubuntu Bold';fill:#f2f2f2"
         id="path5364" /><path
         d="m 9.775802,7.4919415 q 0.0254,-0.53975 0.05715,-1.12395 0.0381,-0.5842 0.0762,-1.1684 0.04445,-0.5842 0.09525,-1.12395 0.0508,-0.53975 0.1143,-0.98425 h 0.81915 q 0.13335,0.23495 0.2921,0.56515 0.15875,0.3302 0.3302,0.7112 0.1778,0.381 0.34925,0.76835 0.17145,0.38735 0.31115,0.71755 0.14605,-0.3302 0.31115,-0.71755 0.17145,-0.38735 0.3429,-0.76835 0.1778,-0.381 0.33655,-0.7112 0.1651,-0.3302 0.2921,-0.56515 h 0.78105 q 0.0635,0.4445 0.1143,0.98425 0.0508,0.53975 0.0889,1.12395 0.04445,0.5842 0.0762,1.1684 0.0381,0.5842 0.0635,1.12395 h -0.84455 q -0.01905,-0.48895 -0.04445,-1.0033 -0.01905,-0.51435 -0.0508,-1.0414 -0.0254,-0.5334 -0.06985,-1.0414 -0.08255,0.1905 -0.19685,0.4445 -0.1143,0.254 -0.24765,0.5461 -0.127,0.28575 -0.254,0.5715 -0.12065,0.2794 -0.2286,0.52705 -0.10795,0.24765 -0.1778,0.4191 h -0.6223 q -0.0762,-0.17145 -0.18415,-0.4191 -0.1016,-0.24765 -0.2286,-0.52705 -0.127,-0.28575 -0.254,-0.5715 -0.127,-0.2921 -0.2413,-0.5461 -0.1143,-0.254 -0.19685,-0.4445 -0.04445,0.508 -0.0762,1.0414 -0.03175,0.52705 -0.0508,1.0414 -0.01905,0.51435 -0.0381,1.0033 z"
         style="font-weight:bold;font-family:Ubuntu;-inkscape-font-specification:'Ubuntu Bold';fill:#f2f2f2"
         id="path5366" /></g><rect
       style="fill:#79aea3;fill-opacity:1;stroke:none;stroke-width:0.349559"
       id="rect1241"
       width="15.875"
       height="10.583333"
       x="15.874989"
       y="0" /><path
       style="fill:#000000;stroke-width:0.0127594"
       d="m 18.785199,5.2229062 c 0,-2.3579213 0.0015,-3.320624 0.0033,-2.1393399 0.0018,1.1812846 0.0018,3.1104927 0,4.2871299 -0.0018,1.1766371 -0.0033,0.210131 -0.0033,-2.14779 z m 10.05434,0 c 0,-2.3579213 0.0015,-3.320624 0.0033,-2.1393399 0.0019,1.1812846 0.0019,3.1104927 0,4.2871299 -0.0019,1.1766371 -0.0033,0.210131 -0.0033,-2.14779 z m -8.006246,3.5725211 c -0.940009,-0.4700305 -1.010689,-0.507652 -1.046434,-0.5569961 -0.02108,-0.029107 -0.04417,-0.074615 -0.05131,-0.101133 -0.0085,-0.031496 -0.01179,-0.4523284 -0.0095,-1.2133575 l 0.0035,-1.1651434 0.02747,-0.051037 c 0.0151,-0.02807 0.04273,-0.065392 0.06137,-0.082935 0.01865,-0.017545 0.428303,-0.229987 0.910343,-0.4720947 l 0.876437,-0.4401968 0.0064,-1.0526429 0.0064,-1.0526435 0.03384,-0.057417 c 0.01861,-0.031579 0.05088,-0.069954 0.0717,-0.085275 0.02082,-0.015323 0.476413,-0.2476714 1.012423,-0.516331 l 0.974563,-0.488471 0.09569,2e-7 h 0.09569 l 0.983726,0.4930535 c 0.656929,0.3292586 0.997208,0.5065344 1.024307,0.5336338 0.09023,0.090232 0.08381,0.00724 0.09087,1.1734521 l 0.0063,1.052643 0.876434,0.4401968 c 0.482042,0.2421075 0.891696,0.4545504 0.910343,0.4720944 0.01865,0.017545 0.04629,0.054866 0.06136,0.082935 l 0.02748,0.051037 0.0035,1.1665849 c 0.0038,1.3080172 0.0079,1.2463435 -0.0874,1.3416307 -0.03807,0.038067 -0.266332,0.1576724 -1.025056,0.5370979 l -0.976266,0.4881216 -0.09255,0.00523 -0.09255,0.00523 L 24.709267,8.8514762 23.806056,8.4002753 22.903334,8.8504826 C 22.001919,9.300038 22.0005,9.3006884 21.921001,9.3000903 c -0.07887,-5.722e-4 -0.08903,-0.00528 -1.087713,-0.504677 z M 21.611462,7.7365172 V 6.9901219 L 20.986306,6.6774933 C 20.64247,6.5055475 20.358257,6.3648647 20.35472,6.3648647 c -0.0035,0 -0.0064,0.3345324 -0.0064,0.7434056 v 0.7434051 l 0.622021,0.3139349 c 0.342109,0.1726621 0.626323,0.3146903 0.631586,0.3156163 0.0053,9.682e-4 0.0096,-0.3341937 0.0096,-0.7447094 z m 1.875619,-0.6252575 c 0,-0.4105173 -0.0029,-0.746395 -0.0063,-0.746395 -0.0035,0 -0.284832,0.1392089 -0.625206,0.3093522 l -0.618866,0.3093518 v 0.7496965 0.7496975 l 0.625206,-0.312655 0.625206,-0.3126541 z M 25.375458,7.733241 V 6.9835687 L 24.756598,6.6742169 C 24.416225,6.5040736 24.134882,6.3648647 24.131392,6.3648647 c -0.0035,0 -0.0063,0.3358777 -0.0063,0.7463946 v 0.7463936 l 0.622021,0.3119319 c 0.34211,0.1715623 0.623452,0.3122456 0.625206,0.3126283 0.0018,3.721e-4 0.0032,-0.3366545 0.0032,-0.7489721 z m 1.263225,0.4370417 0.625156,-0.3126291 V 7.1112597 c 0,-0.4105173 -0.0029,-0.746395 -0.0064,-0.746395 -0.0036,0 -0.28775,0.1406828 -0.631583,0.3126286 l -0.62515,0.3126286 v 0.7463953 c 0,0.4105157 0.0029,0.7463935 0.0064,0.7463935 0.0036,0 0.28775,-0.1406819 0.631585,-0.312628 z M 22.504668,6.1479293 c 0.322781,-0.1614205 0.586874,-0.2963375 0.586874,-0.2998166 0,-0.00347 -0.262683,-0.1376909 -0.583739,-0.298249 L 21.924064,5.25794 21.330812,5.554621 20.737559,5.8513024 21.324432,6.1456647 c 0.322781,0.1618998 0.588333,0.2946771 0.590118,0.2950596 0.0018,4.03e-4 0.267337,-0.1313746 0.590118,-0.292795 z M 26.28456,6.1463635 26.874569,5.8513044 26.281316,5.5546236 25.688063,5.2579421 25.104325,5.5498658 c -0.321057,0.160558 -0.58374,0.2947698 -0.58374,0.2982484 0,0.00478 1.154384,0.5891042 1.170722,0.5926118 0.0018,4.073e-4 0.268747,-0.1320797 0.593253,-0.2943625 z M 23.487081,4.5849663 V 3.8385718 L 22.861875,3.5259177 22.236668,3.2132634 v 0.7496968 0.7496964 l 0.615637,0.3086352 c 0.3386,0.1697497 0.619943,0.3089579 0.625206,0.3093519 0.0053,3.828e-4 0.0096,-0.3351608 0.0096,-0.7456774 z m 1.269517,0.4370422 0.61886,-0.3093522 V 3.9657346 3.218813 l -0.625157,0.3130439 -0.625159,0.3130434 -4.9e-5,0.7432301 c -2.5e-5,0.4087764 0.0028,0.7432299 0.0063,0.7432299 0.0035,0 0.284833,-0.1392082 0.625207,-0.3093518 z M 24.393047,3.0091384 c 0.32278,-0.1614206 0.586874,-0.296338 0.586874,-0.2998166 0,-0.00348 -0.264118,-0.1384088 -0.586929,-0.2998444 l -0.586928,-0.2935186 -0.590059,0.2950843 -0.590059,0.2950842 0.510313,0.2556885 c 0.41149,0.2061737 0.619225,0.3117929 0.666669,0.3389566 0.0018,0.00103 0.267338,-0.130214 0.590119,-0.291634 z"
       id="path3234" /></g></svg>
