<?xml version="1.0" encoding="UTF-8" standalone="no"?>
<!-- Created with Inkscape (http://www.inkscape.org/) -->

<svg
   width="40"
   height="40"
   viewBox="0 0 10.583326 10.58334"
   version="1.1"
   id="svg1022"
   xml:space="preserve"
   sodipodi:docname="pdm_logo2.svg"
   inkscape:version="1.2.2 (b0a8486541, 2022-12-01)"
   xmlns:inkscape="http://www.inkscape.org/namespaces/inkscape"
   xmlns:sodipodi="http://sodipodi.sourceforge.net/DTD/sodipodi-0.dtd"
   xmlns="http://www.w3.org/2000/svg"
   xmlns:svg="http://www.w3.org/2000/svg"><sodipodi:namedview
     id="namedview1024"
     pagecolor="#ffffff"
     bordercolor="#666666"
     borderopacity="1.0"
     inkscape:showpageshadow="2"
     inkscape:pageopacity="0.0"
     inkscape:pagecheckerboard="0"
     inkscape:deskcolor="#d1d1d1"
     inkscape:document-units="mm"
     showgrid="false"
     inkscape:zoom="3.3499184"
     inkscape:cx="16.119796"
     inkscape:cy="32.836621"
     inkscape:window-width="1920"
     inkscape:window-height="961"
     inkscape:window-x="0"
     inkscape:window-y="0"
     inkscape:window-maximized="1"
     inkscape:current-layer="layer1" /><defs
     id="defs1019"><style
       id="style1068">
      .cls-1 {
        fill: none;
      }
    </style><style
       id="style2857">
      .cls-1 {
        fill: none;
      }
    </style><style
       id="style2933">.cls-1 {
        fill: none;
      }</style><style
       id="style2994">.cls-1 {
        fill: none;
      }</style><style
       id="style3092">
      .cls-1 {
        fill: none;
      }
    </style></defs><g
     inkscape:label="Layer 1"
     inkscape:groupmode="layer"
     id="layer1"><path
       style="fill:#000000;stroke-width:0.0127594"
       d="m 0.2621305,5.2229062 c 0,-2.3579213 0.0015,-3.320624 0.0033,-2.1393399 0.0018,1.1812846 0.0018,3.1104927 0,4.2871299 -0.0018,1.1766371 -0.0033,0.210131 -0.0033,-2.14779 z m 10.0543405,0 c 0,-2.3579213 0.0015,-3.320624 0.0033,-2.1393399 0.0019,1.1812846 0.0019,3.1104927 0,4.2871299 -0.0019,1.1766371 -0.0033,0.210131 -0.0033,-2.14779 z M 2.3102245,8.7954273 c -0.940009,-0.4700305 -1.010689,-0.507652 -1.046434,-0.5569961 -0.02108,-0.029107 -0.04417,-0.074615 -0.05131,-0.101133 -0.0085,-0.031496 -0.01179,-0.4523284 -0.0095,-1.2133575 l 0.0035,-1.1651434 0.02747,-0.051037 c 0.0151,-0.02807 0.04273,-0.065392 0.06137,-0.082935 0.01865,-0.017545 0.428303,-0.229987 0.910343,-0.4720947 l 0.876437,-0.4401968 0.0064,-1.0526429 0.0064,-1.0526435 0.03384,-0.057417 c 0.01861,-0.031579 0.05088,-0.069954 0.0717,-0.085275 0.02082,-0.015323 0.476413,-0.2476714 1.012423,-0.516331 l 0.974563,-0.488471 0.09569,2e-7 h 0.09569 l 0.983726,0.4930535 c 0.656929,0.3292586 0.997208,0.5065344 1.024307,0.5336338 0.09023,0.090232 0.08381,0.00724 0.09087,1.1734521 l 0.0063,1.052643 0.876434,0.4401968 c 0.482042,0.2421075 0.891696,0.4545504 0.910343,0.4720944 0.01865,0.017545 0.04629,0.054866 0.06136,0.082935 l 0.02748,0.051037 0.0035,1.1665849 c 0.0038,1.3080172 0.0079,1.2463435 -0.0874,1.3416307 -0.03807,0.038067 -0.266332,0.1576724 -1.025056,0.5370979 l -0.976266,0.4881216 -0.09255,0.00523 -0.09255,0.00523 -0.903106,-0.4512181 -0.903211,-0.4512009 -0.902722,0.4502073 c -0.901415,0.4495554 -0.902834,0.4502058 -0.982333,0.4496077 -0.07887,-5.722e-4 -0.08903,-0.00528 -1.087713,-0.504677 z M 3.0883935,7.7365172 V 6.9901219 L 2.4632375,6.6774933 C 2.1194015,6.5055475 1.8351885,6.3648647 1.8316515,6.3648647 c -0.0035,0 -0.0064,0.3345324 -0.0064,0.7434056 v 0.7434051 l 0.622021,0.3139349 c 0.342109,0.1726621 0.626323,0.3146903 0.631586,0.3156163 0.0053,9.682e-4 0.0096,-0.3341937 0.0096,-0.7447094 z m 1.875619,-0.6252575 c 0,-0.4105173 -0.0029,-0.746395 -0.0063,-0.746395 -0.0035,0 -0.284832,0.1392089 -0.625206,0.3093522 l -0.618866,0.3093518 v 0.7496965 0.7496975 l 0.625206,-0.312655 0.625206,-0.3126541 z M 6.8523895,7.733241 V 6.9835687 L 6.2335295,6.6742169 C 5.8931565,6.5040736 5.6118135,6.3648647 5.6083235,6.3648647 c -0.0035,0 -0.0063,0.3358777 -0.0063,0.7463946 v 0.7463936 l 0.622021,0.3119319 c 0.34211,0.1715623 0.623452,0.3122456 0.625206,0.3126283 0.0018,3.721e-4 0.0032,-0.3366545 0.0032,-0.7489721 z m 1.263225,0.4370417 0.625156,-0.3126291 V 7.1112597 c 0,-0.4105173 -0.0029,-0.746395 -0.0064,-0.746395 -0.0036,0 -0.28775,0.1406828 -0.631583,0.3126286 l -0.62515,0.3126286 v 0.7463953 c 0,0.4105157 0.0029,0.7463935 0.0064,0.7463935 0.0036,0 0.28775,-0.1406819 0.631585,-0.312628 z M 3.9815995,6.1479293 c 0.322781,-0.1614205 0.586874,-0.2963375 0.586874,-0.2998166 0,-0.00347 -0.262683,-0.1376909 -0.583739,-0.298249 L 3.4009955,5.25794 2.8077435,5.554621 2.2144905,5.8513024 2.8013635,6.1456647 c 0.322781,0.1618998 0.588333,0.2946771 0.590118,0.2950596 0.0018,4.03e-4 0.267337,-0.1313746 0.590118,-0.292795 z m 3.779892,-0.00157 0.590009,-0.2950591 -0.593253,-0.2966808 -0.593253,-0.2966815 -0.583738,0.2919237 c -0.321057,0.160558 -0.58374,0.2947698 -0.58374,0.2982484 0,0.00478 1.154384,0.5891042 1.170722,0.5926118 0.0018,4.073e-4 0.268747,-0.1320797 0.593253,-0.2943625 z M 4.9640125,4.5849663 V 3.8385718 L 4.3388065,3.5259177 3.7135995,3.2132634 v 0.7496968 0.7496964 l 0.615637,0.3086352 c 0.3386,0.1697497 0.619943,0.3089579 0.625206,0.3093519 0.0053,3.828e-4 0.0096,-0.3351608 0.0096,-0.7456774 z m 1.269517,0.4370422 0.61886,-0.3093522 V 3.9657346 3.218813 l -0.625157,0.3130439 -0.625159,0.3130434 -4.9e-5,0.7432301 c -2.5e-5,0.4087764 0.0028,0.7432299 0.0063,0.7432299 0.0035,0 0.284833,-0.1392082 0.625207,-0.3093518 z M 5.8699785,3.0091384 c 0.32278,-0.1614206 0.586874,-0.296338 0.586874,-0.2998166 0,-0.00348 -0.264118,-0.1384088 -0.586929,-0.2998444 l -0.586928,-0.2935186 -0.590059,0.2950843 -0.590059,0.2950842 0.510313,0.2556885 c 0.41149,0.2061737 0.619225,0.3117929 0.666669,0.3389566 0.0018,0.00103 0.267338,-0.130214 0.590119,-0.291634 z"
       id="path3234" /></g></svg>
