<?xml version="1.0" encoding="UTF-8" standalone="no"?>
<svg
   id="icon"
   width="32"
   height="32"
   viewBox="0 0 32 32"
   version="1.1"
   sodipodi:docname="result.svg"
   inkscape:version="1.2.2 (b0a8486541, 2022-12-01)"
   xmlns:inkscape="http://www.inkscape.org/namespaces/inkscape"
   xmlns:sodipodi="http://sodipodi.sourceforge.net/DTD/sodipodi-0.dtd"
   xmlns="http://www.w3.org/2000/svg"
   xmlns:svg="http://www.w3.org/2000/svg">
  <sodipodi:namedview
     id="namedview3100"
     pagecolor="#ffffff"
     bordercolor="#666666"
     borderopacity="1.0"
     inkscape:showpageshadow="2"
     inkscape:pageopacity="0.0"
     inkscape:pagecheckerboard="0"
     inkscape:deskcolor="#d1d1d1"
     showgrid="false"
     inkscape:zoom="24.625"
     inkscape:cx="15.817259"
     inkscape:cy="16"
     inkscape:window-width="1920"
     inkscape:window-height="961"
     inkscape:window-x="0"
     inkscape:window-y="0"
     inkscape:window-maximized="1"
     inkscape:current-layer="icon" />
  <defs
     id="defs3094">
    <style
       id="style3092">
      .cls-1 {
        fill: none;
      }
    </style>
  </defs>
  <rect
     id="_Transparent_Rectangle_"
     data-name="&lt;Transparent Rectangle&gt;"
     class="cls-1"
     width="32"
     height="32" />
  <path
     style="fill:#000000;stroke-width:0.0403594"
     d="m 1.2686954,14.890099 c 0,-7.4584242 0.00465,-10.5035852 0.01033,-6.7670219 0.00567,3.7365629 0.00567,9.8389119 0,13.5607749 -0.00568,3.721862 -0.01033,0.664675 -0.01033,-6.793753 z m 31.8032436,0 c 0,-7.4584242 0.0047,-10.5035852 0.01031,-6.7670219 0.0057,3.7365629 0.0057,9.8389119 0,13.5607749 -0.0057,3.721862 -0.01031,0.664675 -0.01031,-6.793753 z M 7.7470962,26.190473 C 4.7737176,24.703698 4.5501497,24.584695 4.4370838,24.428619 4.3703951,24.336555 4.2973524,24.192601 4.2747629,24.10872 4.2479459,24.0091 4.2374829,22.677944 4.2446159,20.270702 l 0.01093,-3.685505 0.08688,-0.161436 c 0.047785,-0.08879 0.1351461,-0.206843 0.1941345,-0.262339 0.058988,-0.0555 1.3547796,-0.727479 2.879538,-1.493297 l 2.7722846,-1.392403 0.02018,-3.3296527 0.02018,-3.3296556 0.107045,-0.1816187 c 0.05887,-0.099889 0.160934,-0.2212717 0.226799,-0.269739 0.06586,-0.048466 1.506957,-0.7834184 3.20243,-1.6332246 l 3.082675,-1.5451021 0.302696,1.5e-6 h 0.302692 l 3.11166,1.559593 c 2.077955,1.0414885 3.154306,1.6022356 3.240024,1.6879555 0.285421,0.2854188 0.265088,0.022886 0.287446,3.71179 l 0.02017,3.3296527 2.772285,1.392403 c 1.524758,0.765818 2.82055,1.437805 2.879539,1.493297 0.05899,0.05549 0.146348,0.173548 0.194135,0.262339 l 0.08688,0.161436 0.01093,3.690065 c 0.01225,4.13744 0.02495,3.942357 -0.276454,4.243761 -0.120423,0.120423 -0.842444,0.498742 -3.242394,1.698916 l -3.087476,1.543993 -0.292739,0.01654 -0.292739,0.01654 -2.856974,-1.427212 -2.85698,-1.427203 -2.855431,1.424062 c -2.851311,1.422007 -2.855798,1.424061 -3.107265,1.422172 -0.249475,-0.002 -0.281622,-0.0168 -3.440586,-1.59637 z M 10.20855,22.840992 V 20.480046 L 8.2310969,19.491158 C 7.1435008,18.94727 6.2444929,18.502271 6.2333048,18.502271 c -0.011182,0 -0.020342,1.058172 -0.020342,2.351494 v 2.351494 l 1.9675252,0.993012 c 1.082137,0.546155 1.981145,0.995413 1.997793,0.99834 0.01664,0.0029 0.03027,-1.057098 0.03027,-2.355619 z m 5.932838,-1.977774 c 0,-1.29852 -0.009,-2.360947 -0.02005,-2.360947 -0.01106,0 -0.900963,0.440337 -1.977613,0.978525 l -1.957543,0.978521 v 2.37139 2.371395 l 1.977614,-0.988965 1.977613,-0.988972 z m 5.973201,1.96741 v -2.371311 l -1.957545,-0.978521 c -1.076648,-0.538188 -1.966574,-0.978525 -1.977612,-0.978525 -0.01104,0 -0.02006,1.062427 -0.02006,2.360945 v 2.360947 l 1.967523,0.986683 c 1.082136,0.542677 1.972063,0.987674 1.977613,0.988888 0.0055,0.0013 0.01009,-1.064885 0.01009,-2.369106 z m 3.995745,1.382425 1.977451,-0.988888 v -2.360947 c 0,-1.29852 -0.0091,-2.360947 -0.02033,-2.360947 -0.01118,0 -0.910198,0.444999 -1.997792,0.988887 l -1.977455,0.988888 v 2.360946 c 0,1.298521 0.0091,2.360945 0.02034,2.360945 0.01119,0 0.910192,-0.444995 1.997792,-0.988884 z M 13.033883,17.816074 c 1.021,-0.510594 1.856364,-0.937357 1.856364,-0.948361 0,-0.01099 -0.830902,-0.435535 -1.846447,-0.943403 l -1.846448,-0.923393 -1.8765367,0.938442 -1.8765375,0.938444 1.8563594,0.931108 c 1.0209978,0.51211 1.8609778,0.932103 1.8666208,0.933313 0.0056,0.0012 0.845625,-0.415554 1.866625,-0.92615 z m 11.956313,-0.005 1.866275,-0.933311 -1.876535,-0.938442 -1.87654,-0.938444 -1.846444,0.923394 c -1.015547,0.507866 -1.846447,0.932396 -1.846447,0.943401 0,0.01508 3.65147,1.863418 3.703151,1.874513 0.0057,0.0012 0.850086,-0.417789 1.87654,-0.931111 z M 16.141388,12.872209 V 10.511262 L 14.163776,9.5222941 12.186162,8.5333264 v 2.3713926 2.371393 l 1.947344,0.976255 c 1.071039,0.53694 1.960963,0.977277 1.977613,0.978521 0.01663,0.0013 0.03026,-1.060161 0.03026,-2.358679 z m 4.015656,1.382425 1.957545,-0.978524 V 10.913496 8.5508804 l -1.977464,0.9901996 -1.977463,0.990199 -1.5e-4,2.350938 c -7.8e-5,1.293018 0.0089,2.350938 0.01992,2.350938 0.01105,0 0.900966,-0.440333 1.977614,-0.978521 z M 19.007083,7.8876495 c 1.020996,-0.5105942 1.85636,-0.9373558 1.85636,-0.9483598 0,-0.010999 -0.83544,-0.437806 -1.856534,-0.9484472 l -1.856535,-0.9284383 -1.866437,0.9333899 -1.866436,0.9333911 1.61419,0.8087786 c 1.301599,0.6521548 1.958693,0.9862428 2.108765,1.0721652 0.0056,0.00323 0.845626,-0.4118844 1.866627,-0.9224795 z"
     id="path3234" />
</svg>
