<svg transform="scale(1)" id="_0710_Database_1" data-name="0710_Database 1" xmlns="http://www.w3.org/2000/svg" viewBox="0 0 500 500" class="show_show__wrapper__graphic__5Waiy "><title>React</title><defs><style>.cls-1{fill:#231f20;}.cls-2{fill:#fff;}.cls-3{fill:#4356af;}</style></defs><g id="line"><path class="cls-1" d="M471.71,374.53H26.1a.75.75,0,0,1,0-1.5H471.71a.75.75,0,1,1,0,1.5Z"/></g><g id="computer"><path class="cls-2" d="M259.93,312.39s5.77,59-7,67c-11.83,7.41-23.43,7.75-30.72,7.75s-12.93,2.21-14,5.83l-1.94,6.42h91.16s10.78-6.7,16.9-17.47,2.34-66.77,2.34-66.77l-56.69-2.75Z"/><path class="cls-1" d="M297.39,400.14H206.23a.74.74,0,0,1-.6-.3.78.78,0,0,1-.12-.66l1.94-6.42c1.2-3.93,6.84-6.37,14.75-6.37,5.88,0,18.13,0,30.33-7.64,5-3.13,7.74-15.53,7.94-35.86.15-15.53-1.27-30.28-1.29-30.43a.74.74,0,0,1,.43-.75.7.7,0,0,1,.49,0l56.56,2.75a.73.73,0,0,1,.71.69c.16,2.3,3.74,56.35-2.43,67.19s-16.7,17.46-17.15,17.74A.8.8,0,0,1,297.39,400.14Zm-90.15-1.5h89.93c1.41-.92,10.94-7.37,16.47-17.09s2.68-59.33,2.28-65.68l-55.17-2.68c.31,3.41,1.35,16.27,1.22,29.7-.21,21.18-3.12,33.67-8.65,37.13-12.56,7.87-25.1,7.87-31.12,7.87-7,0-12.35,2.13-13.31,5.3Z"/><path class="cls-2" d="M312.26,368.51c0,14.57-4.38,18.94-10.2,18.94H279.18A7.7,7.7,0,0,0,272,392.5l-2.52,6.89h35.24c9,0,15.43-13.69,15.73-28.24s0-56,0-56h-7.86s-.28,38.81-.28,53.38Z"/><path class="cls-1" d="M304.67,400.14H269.43a.75.75,0,0,1-.61-.32.72.72,0,0,1-.09-.68l2.52-6.9a8.47,8.47,0,0,1,7.93-5.54h22.88c2.34,0,9.44,0,9.44-18.19,0-14.41.29-53,.29-53.36a.75.75,0,0,1,.75-.74h7.86a.75.75,0,0,1,.75.74c0,.41.28,41.6,0,56C320.78,389.3,312.48,400.14,304.67,400.14Zm-34.17-1.5h34.17c8.9,0,14.71-14.28,15-27.51s0-49.56,0-55.22h-6.37c0,5.45-.28,39.31-.28,52.6v0h0c0,13.23-3.58,19.67-10.94,19.67H279.18a7,7,0,0,0-6.52,4.56Z"/><path class="cls-2" d="M149.17,151.7,135.36,309.44c-.67,7.76,4.86,14.12,12.34,14.12H415.81c7.49,0,14.13-6.36,14.81-14.12l13.8-157.74c.68-7.8-4.86-14.12-12.34-14.12H164c-7.49,0-14.13,6.32-14.81,14.12Z"/><path class="cls-1" d="M415.81,324.31H147.7a12.83,12.83,0,0,1-9.58-4.17,13.9,13.9,0,0,1-3.5-10.77l13.8-157.73,0-.15c.78-8.09,7.72-14.66,15.54-14.66H432.08a12.82,12.82,0,0,1,9.59,4.17,13.94,13.94,0,0,1,3.5,10.77L431.36,309.51C430.65,317.67,423.67,324.31,415.81,324.31ZM149.9,151.91l-13.79,157.6a12.44,12.44,0,0,0,3.11,9.61,11.35,11.35,0,0,0,8.48,3.69H415.81c7.1,0,13.41-6,14.06-13.44l13.8-157.73a12.44,12.44,0,0,0-3.1-9.63,11.38,11.38,0,0,0-8.49-3.68H164c-7.11,0-13.42,6-14.06,13.44A.39.39,0,0,1,149.9,151.91Z"/><path class="cls-2" d="M148.54,151.06,135.36,301.68c-.65,7.41,4.63,13.47,11.79,13.47H406.74c7.15,0,13.49-6,14.14-13.47l13.18-150.62c.66-7.45-4.63-13.48-11.78-13.48H162.69c-7.15,0-13.49,6-14.15,13.48Z"/><path class="cls-1" d="M406.74,315.91H147.15a12.29,12.29,0,0,1-9.19-4,13.28,13.28,0,0,1-3.34-10.3L147.8,151c.68-7.81,7.36-14.17,14.89-14.17H422.28a12.3,12.3,0,0,1,9.19,4,13.32,13.32,0,0,1,3.34,10.31L421.63,301.74C421,309.55,414.27,315.91,406.74,315.91Zm-244-177.58c-6.77,0-12.78,5.74-13.4,12.8L136.11,301.74a11.87,11.87,0,0,0,3,9.16,10.82,10.82,0,0,0,8.08,3.51H406.74c6.77,0,12.78-5.74,13.4-12.8L433.32,151a11.9,11.9,0,0,0-2.95-9.17,10.85,10.85,0,0,0-8.09-3.5Zm-14.15,12.73h0Z"/><polygon class="cls-2" points="241.34 199.95 245.49 152.51 163.45 152.51 159.28 199.95 241.34 199.95"/><path class="cls-1" d="M241.34,200.7H159.28a.8.8,0,0,1-.56-.24.77.77,0,0,1-.19-.58l4.17-47.43a.75.75,0,0,1,.75-.69h82a.75.75,0,0,1,.74.82L242.09,200A.76.76,0,0,1,241.34,200.7Zm-81.25-1.5h80.56l4-45.94H164.13Z"/><polygon class="cls-2" points="330.26 199.95 334.41 152.51 252.37 152.51 248.2 199.95 330.26 199.95"/><path class="cls-1" d="M330.26,200.7H248.2a.76.76,0,0,1-.55-.24.82.82,0,0,1-.2-.58l4.17-47.43a.76.76,0,0,1,.75-.69h82a.73.73,0,0,1,.55.25.71.71,0,0,1,.2.57L331,200A.75.75,0,0,1,330.26,200.7ZM249,199.2h80.56l4-45.94H253.06Z"/><polygon class="cls-2" points="419.19 199.95 423.34 152.51 341.3 152.51 337.13 199.95 419.19 199.95"/><path class="cls-1" d="M419.19,200.7H337.13a.8.8,0,0,1-.56-.24.77.77,0,0,1-.19-.58l4.17-47.43a.75.75,0,0,1,.75-.69h82a.75.75,0,0,1,.74.82L419.94,200A.76.76,0,0,1,419.19,200.7ZM338,199.2H418.5l4-45.94H342Z"/><polygon class="cls-2" points="306.39 240.11 310.54 192.68 228.5 192.68 224.32 240.11 306.39 240.11"/><path class="cls-1" d="M306.39,240.86H224.33a.78.78,0,0,1-.56-.24.76.76,0,0,1-.19-.57l4.17-47.44a.74.74,0,0,1,.75-.68h82a.74.74,0,0,1,.74.81l-4.14,47.44A.76.76,0,0,1,306.39,240.86Zm-81.25-1.5H305.7l4-45.93H229.18Z"/><polygon class="cls-2" points="319.91 247.11 324.05 199.68 242.01 199.68 237.84 247.11 319.91 247.11"/><path class="cls-1" d="M319.91,247.86H237.84a.72.72,0,0,1-.55-.24.74.74,0,0,1-.19-.57l4.17-47.43a.74.74,0,0,1,.74-.69h82a.8.8,0,0,1,.56.24.77.77,0,0,1,.19.58l-4.15,47.43A.74.74,0,0,1,319.91,247.86Zm-81.25-1.5h80.56l4-45.93H242.7Z"/><polygon class="cls-2" points="315.67 244.18 319.82 196.75 237.78 196.75 233.61 244.18 315.67 244.18"/><path class="cls-1" d="M315.67,244.93H233.61a.76.76,0,0,1-.55-.24.72.72,0,0,1-.2-.57L237,196.68a.76.76,0,0,1,.75-.68h82a.76.76,0,0,1,.55.24.82.82,0,0,1,.2.58l-4.15,47.43A.75.75,0,0,1,315.67,244.93Zm-81.24-1.5H315l4-45.93H238.47Z"/><polygon class="cls-2" points="411.6 240.11 415.75 192.68 333.71 192.68 329.54 240.11 411.6 240.11"/><path class="cls-1" d="M411.6,240.86H329.54a.8.8,0,0,1-.56-.24.76.76,0,0,1-.19-.57L333,192.61a.74.74,0,0,1,.75-.68h82a.74.74,0,0,1,.74.81l-4.14,47.44A.76.76,0,0,1,411.6,240.86Zm-81.24-1.5h80.55l4-45.93H334.39Z"/><polygon class="cls-2" points="409.08 245.32 413.22 197.89 331.18 197.89 327.01 245.32 409.08 245.32"/><path class="cls-1" d="M409.08,246.07H327a.74.74,0,0,1-.74-.81l4.17-47.44a.74.74,0,0,1,.74-.68h82a.8.8,0,0,1,.56.24.77.77,0,0,1,.19.58l-4.15,47.43A.74.74,0,0,1,409.08,246.07Zm-81.25-1.5h80.56l4-45.93H331.87Z"/><polygon class="cls-2" points="406.47 242.72 410.62 195.28 328.58 195.28 324.41 242.72 406.47 242.72"/><path class="cls-1" d="M406.47,243.47H324.41a.77.77,0,0,1-.56-.25.74.74,0,0,1-.19-.57l4.17-47.43a.76.76,0,0,1,.75-.69h82a.73.73,0,0,1,.55.25.78.78,0,0,1,.2.57l-4.15,47.43A.76.76,0,0,1,406.47,243.47ZM325.23,242h80.55l4-45.94H329.26Z"/><polygon class="cls-2" points="235.97 256.63 240.11 209.19 158.07 209.19 153.9 256.63 235.97 256.63"/><path class="cls-1" d="M236,257.38H153.9a.73.73,0,0,1-.55-.25.78.78,0,0,1-.2-.57l4.18-47.43a.74.74,0,0,1,.74-.69h82a.73.73,0,0,1,.55.25.71.71,0,0,1,.2.57l-4.15,47.43A.75.75,0,0,1,236,257.38Zm-81.24-1.5h80.56l4-45.94H158.76Z"/><polygon class="cls-1" points="324.89 256.63 329.04 209.19 247 209.19 242.83 256.63 324.89 256.63"/><path class="cls-1" d="M324.89,257.38H242.83a.77.77,0,0,1-.56-.25.74.74,0,0,1-.19-.57l4.17-47.43a.76.76,0,0,1,.75-.69h82a.73.73,0,0,1,.55.25.78.78,0,0,1,.2.57l-4.15,47.43A.76.76,0,0,1,324.89,257.38Zm-81.24-1.5H324.2l4-45.94H247.68Z"/><polygon class="cls-2" points="301.93 256.63 306.07 209.19 224.03 209.19 219.86 256.63 301.93 256.63"/><path class="cls-1" d="M301.93,257.38H219.86a.75.75,0,0,1-.74-.82l4.17-47.43a.74.74,0,0,1,.74-.69h82a.77.77,0,0,1,.56.25.74.74,0,0,1,.19.57l-4.15,47.43A.75.75,0,0,1,301.93,257.38Zm-81.25-1.5h80.56l4-45.94H224.72Z"/><polygon class="cls-1" points="413.82 256.63 417.96 209.19 335.92 209.19 331.75 256.63 413.82 256.63"/><path class="cls-1" d="M413.82,257.38H331.75a.73.73,0,0,1-.55-.25.78.78,0,0,1-.2-.57l4.18-47.43a.75.75,0,0,1,.74-.69h82a.77.77,0,0,1,.56.25.74.74,0,0,1,.19.57l-4.15,47.43A.75.75,0,0,1,413.82,257.38Zm-81.25-1.5h80.56l4-45.94H336.61Z"/><polygon class="cls-2" points="401.76 256.63 405.91 209.19 323.87 209.19 319.7 256.63 401.76 256.63"/><path class="cls-1" d="M401.76,257.38H319.7a.73.73,0,0,1-.55-.25.71.71,0,0,1-.2-.57l4.17-47.43a.76.76,0,0,1,.75-.69h82a.73.73,0,0,1,.55.25.71.71,0,0,1,.2.57l-4.15,47.43A.75.75,0,0,1,401.76,257.38Zm-81.24-1.5h80.56l4-45.94H324.56Z"/><path class="cls-2" d="M137.59,276.39l-2.21,25.29c-.65,7.41,4.63,13.47,11.78,13.47H406.74c7.15,0,13.49-6,14.14-13.47l2.22-25.29H137.59Z"/><path class="cls-1" d="M406.74,315.91H147.16a12.28,12.28,0,0,1-9.18-4,13.29,13.29,0,0,1-3.35-10.3l2.2-25.14v-.08a.74.74,0,0,1,.75-.75H423.1a.74.74,0,0,1,.74.81l-2.21,25.29C421,309.55,414.27,315.91,406.74,315.91ZM138.28,277.14l-2.16,24.6a11.87,11.87,0,0,0,3,9.16,10.82,10.82,0,0,0,8.08,3.51H406.74c6.77,0,12.78-5.74,13.4-12.8l2.14-24.47Z"/><ellipse class="cls-2" cx="278.65" cy="295.78" rx="9" ry="8.16" transform="translate(-122.19 362.59) rotate(-56.17)"/><path class="cls-1" d="M277.87,305.29a8.25,8.25,0,0,1-4.64-1.41,8.45,8.45,0,0,1-3.65-5.91,10.21,10.21,0,0,1,1.67-7.15c3-4.46,8.75-5.87,12.83-3.13h0a8.45,8.45,0,0,1,3.65,5.91A10.43,10.43,0,0,1,280.08,305,9.36,9.36,0,0,1,277.87,305.29Zm1.56-17.5a8.48,8.48,0,0,0-6.93,3.87,8.68,8.68,0,0,0-1.44,6.09,6.87,6.87,0,0,0,8.66,5.8,8.91,8.91,0,0,0,6.53-9.73,7,7,0,0,0-3-4.89A6.86,6.86,0,0,0,279.43,287.79Z"/><path class="cls-1" d="M279.18,388.2H222a.75.75,0,0,1,0-1.5h57.15a.75.75,0,0,1,0,1.5Z"/><path class="cls-1" d="M270.89,236.58H246.46a.75.75,0,0,1-.74-.67l-.65-6.19a.74.74,0,0,1,.66-.82.75.75,0,0,1,.83.67l.58,5.51h23.24l2.09-5.54a.75.75,0,0,1,1.41.53l-2.28,6A.75.75,0,0,1,270.89,236.58Z"/><path class="cls-1" d="M206.07,236.58H181.64a.75.75,0,0,1-.74-.67l-.66-6.19a.75.75,0,0,1,1.5-.15l.58,5.51h23.23l2.1-5.54a.75.75,0,0,1,1-.43.73.73,0,0,1,.43,1l-2.28,6A.75.75,0,0,1,206.07,236.58Z"/><path class="cls-1" d="M212.1,178.6H187.67a.76.76,0,0,1-.75-.67l-.65-6.19a.75.75,0,0,1,.67-.82.74.74,0,0,1,.82.67l.58,5.51h23.24l2.1-5.54a.73.73,0,0,1,1-.43.74.74,0,0,1,.44,1l-2.28,6A.75.75,0,0,1,212.1,178.6Z"/><path class="cls-1" d="M301.35,178.6H276.92a.76.76,0,0,1-.75-.67l-.65-6.19a.75.75,0,0,1,.67-.82.73.73,0,0,1,.82.67l.58,5.51h23.24l2.1-5.54a.75.75,0,0,1,1.4.53l-2.28,6A.75.75,0,0,1,301.35,178.6Z"/><path class="cls-1" d="M389.46,178.6H365a.75.75,0,0,1-.74-.67l-.66-6.19a.75.75,0,0,1,1.5-.15l.58,5.51h23.23l2.1-5.54a.75.75,0,0,1,1.4.53l-2.28,6A.75.75,0,0,1,389.46,178.6Z"/><path class="cls-1" d="M372.85,237.07H348.42a.76.76,0,0,1-.75-.67l-.65-6.19a.75.75,0,0,1,.67-.82.74.74,0,0,1,.82.67l.58,5.51h23.24l2.1-5.54a.75.75,0,0,1,1.4.53l-2.28,6A.75.75,0,0,1,372.85,237.07Z"/></g><g id="Character"><path class="cls-2" d="M230.85,176.77l14.64-1.85s11.48,9.29,15.14,12.46-15.14,3.91-16.61,2.2-10.26-2-14.9-1.47a23.74,23.74,0,0,1-6.84,0Z"/><path class="cls-1" d="M250.19,191.24c-3.19,0-6-.35-6.74-1.17-1.08-1.26-9.07-1.76-14.25-1.21a24.76,24.76,0,0,1-7.08,0,.75.75,0,0,1-.44-1.19l8.57-11.34a.73.73,0,0,1,.5-.3l14.64-1.84a.74.74,0,0,1,.57.16c.11.09,11.53,9.33,15.16,12.47a1.64,1.64,0,0,1,.7,1.68c-.21.85-1.21,1.47-3.15,1.93A40.46,40.46,0,0,1,250.19,191.24ZM234,187.15c4.26,0,9.29.44,10.58,1.94.82.7,8.16,1,13,0,2.11-.41,2.61-.85,2.71-1a2.05,2.05,0,0,0-.2-.19c-3.31-2.87-13.18-10.87-14.88-12.24l-14,1.76-7.59,10.06a32.34,32.34,0,0,0,5.38-.16A49.69,49.69,0,0,1,234,187.15Z"/><polygon class="cls-2" points="314.93 184.86 312.81 209.2 230.75 209.2 232.89 184.86 314.93 184.86"/><path class="cls-1" d="M312.81,210H230.75a.73.73,0,0,1-.55-.25.71.71,0,0,1-.2-.57l2.14-24.34a.75.75,0,0,1,.75-.68h82a.72.72,0,0,1,.55.24.74.74,0,0,1,.2.57l-2.12,24.34A.76.76,0,0,1,312.81,210Zm-81.24-1.5h80.55l2-22.84H233.58Z"/><polygon class="cls-2" points="311.13 184.86 309 209.2 230.75 209.2 232.89 184.86 311.13 184.86"/><path class="cls-1" d="M309,210H230.75a.73.73,0,0,1-.55-.25.71.71,0,0,1-.2-.57l2.14-24.34a.75.75,0,0,1,.75-.68h78.23a.74.74,0,0,1,.75.81l-2.12,24.34A.75.75,0,0,1,309,210Zm-77.43-1.5h76.75l2-22.84H233.58Z"/><path class="cls-2" d="M103.68,392.09s-3.38,8.78-5.65,12.16-2.12,5.21-.09,6.38,15.44,1.77,20.49-.22.59-7.71.58-9.82-.1-14.36-.1-14.36l-13.55-2.55Z"/><path class="cls-1" d="M107.63,412.47c-4.53,0-8.8-.47-10.06-1.19A3.56,3.56,0,0,1,95.7,409c-.31-1.34.23-3,1.7-5.18,2.11-3.13,5.26-11.18,5.56-11.95l1.66-8.35a.75.75,0,0,1,.88-.59l13.55,2.55a.75.75,0,0,1,.61.73s.09,12.26.1,14.37a8.19,8.19,0,0,0,.67,2.12c.74,1.87,1.67,4.21.83,6.15a4.36,4.36,0,0,1-2.55,2.25C116.27,412.07,111.84,412.47,107.63,412.47ZM106,384.55l-1.53,7.68a.65.65,0,0,1,0,.13c-.14.36-3.43,8.9-5.73,12.31-1.19,1.77-1.69,3.12-1.49,4A2.12,2.12,0,0,0,98.32,410c1.86,1.07,15,1.65,19.84-.27a2.84,2.84,0,0,0,1.72-1.45c.59-1.37-.2-3.38-.84-5a8.39,8.39,0,0,1-.78-2.66c0-1.83-.08-11.24-.1-13.75Zm-2.27,7.54h0Z"/><path class="cls-2" d="M155,388.77s-2.53,8.9-1.87,14.86,1.6,5.23,1.6,5.23l12.29.19.77-2.25a53.68,53.68,0,0,0,11.69,3.51c5.57.82,17.87.24,17.52-2.18s-13.87-6.89-17.35-11.22-11.7-15.42-11.7-15.42L155,388.77Z"/><path class="cls-1" d="M185.39,411.41a44.08,44.08,0,0,1-6-.36,51.67,51.67,0,0,1-11.13-3.25l-.51,1.5a.73.73,0,0,1-.72.5l-12.15-.19a.94.94,0,0,1-.61-.05c-.63-.26-1.34-1.16-1.86-5.85-.67-6,1.79-14.78,1.89-15.15a.77.77,0,0,1,.44-.49l12.86-7.23a.74.74,0,0,1,1,.21c.08.11,8.26,11.13,11.69,15.39,1.69,2.11,6.1,4.35,10,6.32,4.8,2.44,7.31,3.78,7.52,5.26a1.53,1.53,0,0,1-.48,1.33C195.75,410.83,190.27,411.41,185.39,411.41Zm-17.62-5.36a.67.67,0,0,1,.31.07,53.39,53.39,0,0,0,11.49,3.45c6.29.92,16.17-.09,16.67-1.36-.16-.78-4-2.71-6.72-4.11-4-2-8.57-4.36-10.47-6.72-3-3.74-9.64-12.64-11.33-14.91l-12.1,6.81c-.42,1.59-2.33,9.13-1.76,14.27.36,3.22.77,4.25.95,4.56l11.66.18.6-1.73a.74.74,0,0,1,.4-.45A.8.8,0,0,1,167.77,406.05Zm-12.88,2.18h0Z"/><path class="cls-1" d="M104.05,256.23,98.58,387.54l24.26,1.75,13.7-107.21s15.14,93.23,16.08,106.66c0,0,14.81.77,24-1.2L164.56,239.15l-57.29-.76Z"/><path class="cls-1" d="M122.84,390h0l-24.26-1.75a.75.75,0,0,1-.7-.78l5.48-131.31a.41.41,0,0,1,0-.11l3.21-17.84a.76.76,0,0,1,.74-.61h0l57.29.76a.76.76,0,0,1,.73.69l12.06,148.39a.75.75,0,0,1-.59.79c-9.17,2-23.58,1.25-24.19,1.22a.75.75,0,0,1-.71-.7c-.8-11.42-12.07-81.76-15.25-101.47l-13,102.06A.76.76,0,0,1,122.84,390Zm-23.48-3.2,22.83,1.65L135.79,282a.76.76,0,0,1,.73-.66h0a.76.76,0,0,1,.74.63c.15.92,14.7,90.61,16,106.06,2.88.11,14.6.46,22.5-1.08l-11.94-147-56-.74-3.09,17.16Z"/><path class="cls-1" d="M159.27,240.87l-47.5-1.74c1.76-14.35-1-18.61,1-32.91,1.9-13.38,2-28.92,10.32-40.31,3.68-5.06,10.75-11.32,17.37-9.7,6.39,1.58,13.77,6.87,19.58,10.16L159,245.79Z"/><path class="cls-1" d="M159,246.54h0a.75.75,0,0,1-.72-.76l.06-4.19-46.57-1.72a.7.7,0,0,1-.54-.26A.75.75,0,0,1,111,239a84.79,84.79,0,0,0,.43-16,80.65,80.65,0,0,1,.6-16.94c.35-2.52.64-5.06,1-7.75,1.31-11.55,2.67-23.5,9.5-32.9,4.11-5.65,11.34-11.66,18.16-10C145.55,156.69,151,160,155.8,163c1.63,1,3.18,1.94,4.63,2.76a.74.74,0,0,1,.38.67l-1,74h0a.79.79,0,0,1,.19.55l-.27,4.91A.75.75,0,0,1,159,246.54Zm-46.39-8.13,45.72,1.68,1-73.29c-1.36-.78-2.79-1.65-4.29-2.57-4.71-2.88-10.05-6.14-14.72-7.29-6.52-1.6-13.5,5.16-16.59,9.41-6.6,9.08-7.93,20.83-9.22,32.19-.31,2.7-.6,5.25-1,7.79a78.89,78.89,0,0,0-.59,16.66A86.11,86.11,0,0,1,112.61,238.41Z"/><polygon class="cls-2" points="144.66 166 140.43 168.87 143.2 170.42 138.18 216.95 142.75 223.09 148.16 215.17 145.96 170.84 148.24 168.46 144.66 166"/><path class="cls-1" d="M142.75,223.85a.76.76,0,0,1-.6-.31l-4.57-6.14a.78.78,0,0,1-.15-.53l5-46-2.34-1.31a.75.75,0,0,1-.05-1.27l4.23-2.88a.74.74,0,0,1,.84,0l3.58,2.46a.77.77,0,0,1,.32.54.74.74,0,0,1-.2.6l-2.06,2.15,2.18,44a.74.74,0,0,1-.12.46l-5.41,7.93a.75.75,0,0,1-.6.33ZM139,216.74l3.77,5.06,4.66-6.85-2.18-44.07a.72.72,0,0,1,.2-.55l1.68-1.75-2.43-1.68-2.81,1.91,1.72,1a.72.72,0,0,1,.37.73Z"/><path class="cls-3" d="M151.53,155.83s3.57,97.36,3.12,103.3L171.2,258s-3.31-42.6-1.62-57.84c0,0,8.16-25.57,3-33.08S151.53,155.83,151.53,155.83Z"/><path class="cls-3" d="M132.2,154.58s-20.69,4.21-35,14.44-32.87,36.52-33,43S94,244.92,94,244.92l8.36-12.34s-16.48-20.15-14.17-25.7,17.35-16.69,17.35-16.69,1.63,17.31.8,23.63-8.67,42-7.91,51.64l18.31-4.91s1.2-15.89,6.56-27.11,7.22-18.55,10.46-36.38-1.54-42.48-1.54-42.48Z"/><path class="cls-1" d="M129.78,135.65a71.25,71.25,0,0,1-2.21-9.29,14,14,0,0,1,1.64-9.21,5.76,5.76,0,0,1,2.83-2.47,3.16,3.16,0,0,1,3.48.88,8.35,8.35,0,0,1,3.39-2.79,19.17,19.17,0,0,1,10.15-2.3,12.91,12.91,0,0,1,8,3.19c1.9,1.85,2.65,4.61,3.11,7.14a19.57,19.57,0,0,1,.23,7.31c-1.21,6.07-6.79,7.85-12.11,9.16a21.86,21.86,0,0,1-7.36.79,9.4,9.4,0,0,1-6.47-3.28"/><path class="cls-1" d="M142.36,138.88c-.51,0-1,0-1.53-.08a10.09,10.09,0,0,1-7-3.56.75.75,0,1,1,1.18-.92,8.61,8.61,0,0,0,5.95,3,21.39,21.39,0,0,0,7.11-.77c5.24-1.28,10.44-3,11.55-8.57a19,19,0,0,0-.23-7c-.4-2.21-1.09-5-2.9-6.74a12.08,12.08,0,0,0-7.5-3,18.32,18.32,0,0,0-9.76,2.22,7.84,7.84,0,0,0-3.1,2.53.73.73,0,0,1-.6.35.75.75,0,0,1-.63-.29,2.41,2.41,0,0,0-2.63-.63,5.15,5.15,0,0,0-2.45,2.16c-1.8,2.82-1.82,6.3-1.53,8.72a45.94,45.94,0,0,0,1.53,6.74c.23.81.45,1.63.67,2.45a.75.75,0,0,1-1.46.37c-.21-.81-.43-1.61-.66-2.42a46.88,46.88,0,0,1-1.57-7c-.32-2.66-.28-6.51,1.75-9.7a6.59,6.59,0,0,1,3.22-2.77,4,4,0,0,1,3.62.45,10.39,10.39,0,0,1,3.15-2.33,19.77,19.77,0,0,1,10.56-2.38,13.54,13.54,0,0,1,8.44,3.4c2.11,2,2.89,5.11,3.33,7.54a20.89,20.89,0,0,1,.23,7.6c-1.29,6.44-7,8.34-12.67,9.73A25.68,25.68,0,0,1,142.36,138.88Z"/><path class="cls-2" d="M151.32,148.88l.86,11.25s-1.27,7.3-8.66,5.85a15,15,0,0,1-10.27-7.75l-.82-20.62s5.3-3.12,3.18-14.82a36.34,36.34,0,0,0,19.11,1.81s3.87,12.61,3.23,18.31-6.64,6-6.64,6Z"/><path class="cls-1" d="M145.38,166.92a11,11,0,0,1-2-.2,15.64,15.64,0,0,1-10.81-8.18.64.64,0,0,1-.06-.28l-.82-20.62a.75.75,0,0,1,.37-.67s4.8-3.09,2.82-14a.76.76,0,0,1,1-.82,35.65,35.65,0,0,0,18.67,1.76.75.75,0,0,1,.84.52c.16.52,3.91,12.83,3.27,18.61a7.47,7.47,0,0,1-6.58,6.56l.81,10.52a.62.62,0,0,1,0,.19,9,9,0,0,1-3.41,5.44A7.15,7.15,0,0,1,145.38,166.92ZM134,158a14.43,14.43,0,0,0,9.67,7.21,6.48,6.48,0,0,0,5-.78,7.63,7.63,0,0,0,2.77-4.39l-.85-11a.77.77,0,0,1,0-.15.75.75,0,0,1,.72-.77c.21,0,5.37-.32,5.93-5.3.53-4.77-2.26-14.79-3-17.39A37.54,37.54,0,0,1,136.56,124c1.34,9.39-2.16,13.07-3.36,14Z"/><path class="cls-1" d="M151.77,154.76s-2.89.7-6.26-2.26-3.15-4.77-3.15-4.77a13.71,13.71,0,0,0,9,1.15l.45,5.88Z"/><path class="cls-1" d="M151,155.58a9,9,0,0,1-5.93-2.52c-3.54-3.12-3.43-5.19-3.4-5.41a.74.74,0,0,1,.39-.59.77.77,0,0,1,.71,0,13,13,0,0,0,8.42,1.08.75.75,0,0,1,.93.67l.45,5.88a.75.75,0,0,1-.57.79A4.74,4.74,0,0,1,151,155.58Zm-7.4-6.52a11,11,0,0,0,2.46,2.88,7.52,7.52,0,0,0,4.92,2.15h0l-.33-4.3A14.21,14.21,0,0,1,143.55,149.06Z"/><path class="cls-2" d="M148.41,132.09s3.7,6.26,2.68,7.25-3.67.14-3.67.14"/><path class="cls-1" d="M149.48,140.58a8.22,8.22,0,0,1-2.29-.38.75.75,0,0,1-.49-.94.76.76,0,0,1,.94-.49c.87.28,2.35.48,2.88.08.13-.71-1.13-3.64-2.75-6.38a.75.75,0,1,1,1.29-.76c2.65,4.49,3.51,7.24,2.55,8.17A3,3,0,0,1,149.48,140.58Z"/><ellipse class="cls-1" cx="142.6" cy="131.64" rx="1.64" ry="0.71" transform="translate(6.5 270) rotate(-88.18)"/><ellipse class="cls-1" cx="151.75" cy="131.3" rx="0.71" ry="1.64" transform="translate(-8.11 10) rotate(-3.68)"/><path class="cls-2" d="M137,134.42a9.91,9.91,0,0,0-2.62-2.78,3.38,3.38,0,0,0-1.9-.76,3,3,0,0,0-1.59.53,6,6,0,0,0-2.68,4.05,4.67,4.67,0,0,0,.16,2.29,5.2,5.2,0,0,0,2.38,2.67,15,15,0,0,0,3.38,1.33"/><path class="cls-1" d="M134.16,142.5l-.22,0a16.17,16.17,0,0,1-3.54-1.4,6.07,6.07,0,0,1-2.71-3.07,5.38,5.38,0,0,1-.19-2.66,6.68,6.68,0,0,1,3-4.56,3.82,3.82,0,0,1,2-.65,4.11,4.11,0,0,1,2.33.9,10.85,10.85,0,0,1,2.82,3,.75.75,0,0,1-.24,1,.74.74,0,0,1-1-.23,9.4,9.4,0,0,0-2.42-2.57,3.23,3.23,0,0,0-1.48-.62,2.38,2.38,0,0,0-1.19.42,5.18,5.18,0,0,0-2.33,3.53,3.88,3.88,0,0,0,.13,1.93,4.55,4.55,0,0,0,2,2.27,14.6,14.6,0,0,0,3.22,1.25.75.75,0,0,1,.5.94A.76.76,0,0,1,134.16,142.5Z"/><path class="cls-2" d="M95.43,242.79s6.15,4.28,8.55,5,11-5,13-5.24,7.85,2.27,8.7,1.16-2.28-3.47-5.53-4.36c0,0,7,2.24,8.07,2.06s2.71-.7,1.43-2.49-7.13-3.17-7.13-3.17,8.52,2.81,8.92,1.51-3-4.32-7.19-4.93c0,0,7.84,2.43,7.28.09s-9.93-4.22-14.6-2.8-11.42,5.43-12.36,5.24-2.28-2.25-2.28-2.25l-6.91,10.21Z"/><path class="cls-1" d="M104.44,248.56a2.29,2.29,0,0,1-.66-.09c-2.5-.7-8.52-4.89-8.78-5.07l-.1-.08h0a.76.76,0,0,1-.09-.95l6.91-10.21a.76.76,0,0,1,.62-.33h0a.77.77,0,0,1,.62.34,5.76,5.76,0,0,0,1.81,1.92,36.53,36.53,0,0,0,3.85-1.73,64.18,64.18,0,0,1,8.13-3.49c3.93-1.2,10.93-.16,13.89,1.54a3.14,3.14,0,0,1,1.66,1.81,1.41,1.41,0,0,1-.38,1.4,2.61,2.61,0,0,1-1.58.52,6.89,6.89,0,0,1,1.48,1.58,2.08,2.08,0,0,1,.37,1.73,1.08,1.08,0,0,1-.57.66,3,3,0,0,1-1.44.19l.11.15a2.27,2.27,0,0,1,.49,2.26c-.3.73-1.11,1.21-2.4,1.41a8.32,8.32,0,0,1-2.42-.35,2.84,2.84,0,0,1,.55.93,1.5,1.5,0,0,1-.19,1.43c-.75,1-2.48.59-5.47-.17a14.86,14.86,0,0,0-3.74-.7,24.53,24.53,0,0,0-4.42,2C109,247.17,106.17,248.56,104.44,248.56Zm-8-6c2,1.38,6,4,7.73,4.45,1.16.34,5.17-1.73,7.81-3.1,2.48-1.28,4-2.06,4.93-2.17a15,15,0,0,1,4.3.73,14.58,14.58,0,0,0,3.87.7c-.11-.54-1.76-2-4.15-2.85l-1-.31a.76.76,0,0,1-.49-.93.75.75,0,0,1,.92-.51,9.42,9.42,0,0,1,1,.3,40.23,40.23,0,0,0,6.81,1.74c.88-.14,1.2-.38,1.25-.51s0-.37-.32-.8a8.44,8.44,0,0,0-3.4-1.89c-1.31-.35-2.54-.73-3.35-1a.73.73,0,0,1-.49-.91.75.75,0,0,1,.89-.53,33.35,33.35,0,0,1,3.3,1,18.9,18.9,0,0,0,4.7.86,8.15,8.15,0,0,0-4.11-3.13c-1-.22-1.92-.49-2.56-.69a.76.76,0,0,1-.51-.88.78.78,0,0,1,.85-.58,12.51,12.51,0,0,1,2.56.68,9.4,9.4,0,0,0,3.87.33,2,2,0,0,0-.94-.85c-2.65-1.52-9.16-2.48-12.7-1.4a61,61,0,0,0-7.91,3.4c-3.3,1.59-4.2,2-4.82,1.85a4.48,4.48,0,0,1-2.1-1.67Z"/><path class="cls-2" d="M143.75,141.94a8.18,8.18,0,0,0,5.38,2.23c3.49.16,4.5-2,4.5-2"/><path class="cls-1" d="M149.5,144.92h-.41a8.88,8.88,0,0,1-5.89-2.47.75.75,0,1,1,1.1-1h0a7.52,7.52,0,0,0,4.86,2c2.89.13,3.76-1.49,3.8-1.56a.75.75,0,0,1,1-.34.74.74,0,0,1,.35,1C154.26,142.61,153.12,144.92,149.5,144.92Z"/><path class="cls-3" d="M159.41,158.26s11.55,6.2,27.26,14.32c6.47,3.35,48.08,2.72,48.08,2.72L226.45,191s-19.38,3.07-32.66,5.83c-8.4,1.75-30.13-8.31-30.13-8.31Z"/><path class="cls-1" d="M169.18,201.84l-.23,0a.75.75,0,0,1-.48-.95l4.08-12.67a.75.75,0,0,1,.94-.49.76.76,0,0,1,.49,1l-4.08,12.67A.76.76,0,0,1,169.18,201.84Z"/><path class="cls-1" d="M99.38,195.94a.75.75,0,0,1-.46-1.34l9.62-7.43a.75.75,0,0,1,1,.13.74.74,0,0,1-.13,1l-9.62,7.44A.79.79,0,0,1,99.38,195.94Z"/><path class="cls-2" d="M235.47,181s1.95,8.55,4.64,8.79,1-8.06,1-8.06"/><path class="cls-1" d="M240.23,190.58H240c-3.07-.28-4.95-7.86-5.3-9.37a.75.75,0,0,1,1.46-.34c.88,3.86,2.66,8.1,4,8.22a.29.29,0,0,0,.25-.09c.77-.87.42-4.66-.07-7.08a.75.75,0,1,1,1.46-.3c.23,1.1,1.27,6.64-.27,8.37A1.71,1.71,0,0,1,240.23,190.58Z"/></g></svg>