<?xml version="1.0" encoding="UTF-8" standalone="no"?>
<svg
   viewBox="0 0 500 500"
   version="1.1"
   id="svg175"
   sodipodi:docname="toc_icon.svg"
   inkscape:version="1.3 (0e150ed6c4, 2023-07-21)"
   xmlns:inkscape="http://www.inkscape.org/namespaces/inkscape"
   xmlns:sodipodi="http://sodipodi.sourceforge.net/DTD/sodipodi-0.dtd"
   xmlns="http://www.w3.org/2000/svg"
   xmlns:svg="http://www.w3.org/2000/svg">
  <defs
     id="defs175" />
  <sodipodi:namedview
     id="namedview175"
     pagecolor="#ffffff"
     bordercolor="#000000"
     borderopacity="0.25"
     inkscape:showpageshadow="2"
     inkscape:pageopacity="0.0"
     inkscape:pagecheckerboard="0"
     inkscape:deskcolor="#d1d1d1"
     showgrid="false"
     inkscape:zoom="2.458"
     inkscape:cx="250"
     inkscape:cy="282.54679"
     inkscape:window-width="2560"
     inkscape:window-height="1506"
     inkscape:window-x="-11"
     inkscape:window-y="-11"
     inkscape:window-maximized="1"
     inkscape:current-layer="svg175" />
  <rect
     y="382.39999"
     width="500"
     height="0.25"
     style="fill:#ebebeb"
     id="rect1"
     x="0" />
  <rect
     x="416.78"
     y="398.48999"
     width="33.119999"
     height="0.25"
     style="fill:#ebebeb"
     id="rect2" />
  <rect
     x="322.53"
     y="401.20999"
     width="8.6899996"
     height="0.25"
     style="fill:#ebebeb"
     id="rect3" />
  <rect
     x="396.59"
     y="389.20999"
     width="19.190001"
     height="0.25"
     style="fill:#ebebeb"
     id="rect4" />
  <rect
     x="52.459999"
     y="390.89001"
     width="43.189999"
     height="0.25"
     style="fill:#ebebeb"
     id="rect5" />
  <rect
     x="104.56"
     y="390.89001"
     width="6.3299999"
     height="0.25"
     style="fill:#ebebeb"
     id="rect6" />
  <rect
     x="131.47"
     y="395.10999"
     width="93.68"
     height="0.25"
     style="fill:#ebebeb"
     id="rect7" />
  <polyline
     points="291.36 197.92 288.86 197.92 288.86 200.42"
     style="fill:none;stroke:#ebebeb;stroke-width:2px;stroke-linecap:round;stroke-linejoin:round"
     id="polyline48" />
  <line
     x1="288.85999"
     y1="205.73"
     x2="288.85999"
     y2="213.7"
     style="fill:none;stroke:#ebebeb;stroke-width:2px;stroke-linecap:round;stroke-linejoin:round;stroke-dasharray:5.31336, 5.31336"
     id="line49" />
  <polyline
     points="288.86 216.36 288.86 218.86 286.36 218.86"
     style="fill:none;stroke:#ebebeb;stroke-width:2px;stroke-linecap:round;stroke-linejoin:round"
     id="polyline49" />
  <line
     x1="280.82999"
     y1="218.86"
     x2="272.51999"
     y2="218.86"
     style="fill:none;stroke:#ebebeb;stroke-width:2px;stroke-linecap:round;stroke-linejoin:round;stroke-dasharray:5.53728, 5.53728"
     id="line50" />
  <line
     x1="269.75"
     y1="218.86"
     x2="267.25"
     y2="218.86"
     style="fill:none;stroke:#ebebeb;stroke-width:2px;stroke-linecap:round;stroke-linejoin:round"
     id="line51" />
  <g
     id="freepik--Shadow--inject-102">
    <ellipse
       id="freepik--path--inject-102"
       cx="250"
       cy="416.24"
       rx="193.89"
       ry="11.32"
       style="fill:#f5f5f5" />
  </g>
  <g
     id="freepik--Character--inject-102">
    <path
       d="M112.78,141.55s-5,1.85-6.58,8.7,2.62,21.63,3.29,28.62-7,21.16,12.93,22.45,22.81-53.09,13.58-56.89S112.78,141.55,112.78,141.55Z"
       style="fill:#263238"
       id="path54" />
    <path
       d="M135.06,145.22c5.56-2.62,7.94,15.48,6,28.54"
       style="fill:none;stroke:#263238;stroke-linecap:round;stroke-linejoin:round;stroke-width:0.5px"
       id="path55" />
    <path
       d="M182.33,137.91l2.37-6.52s-1-1.19,3.56-3.37,7.34-3.36,9.21-2.77,4.44,4.8,4.24,6.26S189.05,135,189.05,135l-1.78,5Z"
       style="fill:#e4897b"
       id="path56" />
    <path
       d="M143.78,171.25s21.76-6.53,25.32-9.87,13.63-28.22,13.63-28.22l7.31,3s-7.49,28.9-13.82,35.59-30.66,18.55-30.66,18.55Z"
       style="fill:#144AC5"
       id="path57" />
    <path
       d="M143.78,171.25s21.76-6.53,25.32-9.87,13.63-28.22,13.63-28.22l7.31,3s-7.49,28.9-13.82,35.59-30.66,18.55-30.66,18.55Z"
       style="fill:#fff;opacity:0.6000000000000001;isolation:isolate"
       id="path58" />
    <path
       d="M104.42,393.06l4.83,2.84a92.41,92.41,0,0,1,7.34-8.7h0c1.4-1.48,2.87-3.12,4.4-4.88,3.06-3.51,6.37-7.52,9.84-11.83l3.11-3.89C146,351.38,159.1,333.5,164,321.41c1.52-3.76,2.26-7,1.93-9.34-1-7.22-3.8-18.09-7-28.59-4.88-16.05-10.37-31.26-10.37-31.26l-13.49,22.85s4.14,9.87,7.91,20.38c3.71,10.32,7.06,21.27,5.82,24.12-.12.28-.27.61-.44,1-2.24,4.64-8.44,15.15-15.48,26.76l-2.15,3.53c-3.78,6.2-7.71,12.57-11.35,18.42-1.42,2.3-2.8,4.52-4.11,6.62C109.05,385.83,104.42,393.06,104.42,393.06Z"
       style="fill:#e4897b"
       id="path59" />
    <path
       d="M134.22,366.59c-6.38,8-12.51,15.3-17.07,20.6-.65-3.26-1.31-7.12-1.83-11.33,5.27-8.46,11.72-18.9,17.58-28.57A110.64,110.64,0,0,0,134.22,366.59Z"
       style="opacity:0.2;isolation:isolate"
       id="path60" />
    <path
       d="M110.14,300.47c1.67,11.39,4,21.71,5.6,27.86.93,3.69,1.56,5.87,1.56,5.87a308.47,308.47,0,0,0,2.06,35c.51,4.58,1.06,9,1.63,13.07,2.1,15.14,4.31,26,4.31,26l5.75-.75-.22-37.09-.12-19.66-.16-26.75-.06-4.66-.28-20.34-.41-30-20-9C107.12,271.47,108.12,286.75,110.14,300.47Z"
       style="fill:#e4897b"
       id="path61" />
    <path
       d="M163.66,300.66c-5.11,3.53-12,5.65-16.73,6.79-1.09-3.73-2.5-7.92-4-12-3.77-10.51-7.91-20.38-7.91-20.38l13.49-22.85s5.49,15.21,10.37,31.26C160.7,289.32,162.36,295.28,163.66,300.66Z"
       style="opacity:0.2;isolation:isolate"
       id="path62" />
    <path
       d="M130.38,311.66a185,185,0,0,1-18.59-1.34c-.58-3.13-1.15-6.44-1.65-9.85-2-13.72-3-29-.34-40.4l20,9,.41,30Z"
       style="opacity:0.2;isolation:isolate"
       id="path63" />
    <path
       d="M164.63,298.67c-12.51,7.35-49.31,10.47-49.31,10.47l-6-16.92L110,309h-1.79s-13.44-45.5,4.42-75.32l32-2.47,3.5,16.48S157.11,271.27,164.63,298.67Z"
       style="fill:#263238"
       id="path64" />
    <path
       d="M141.16,415.69a9.06,9.06,0,0,0-3.06-1.14h0s-3.54-2.63-6.34-11.68l-4.21-.48a3.49,3.49,0,0,0-3.48,2,1.9,1.9,0,0,0-.18.57,24,24,0,0,0,0,3.06,85.44,85.44,0,0,0,1.38,10.17l.74-.1-.62-6.42c-.2-2.18,1.82.12,2.63,2.39s2.16,4.6,6.92,4C140.49,417.39,142.76,416.85,141.16,415.69Z"
       style="fill:#2e353a"
       id="path65" />
    <path
       d="M130.6,399.67s1.5,4.09,3.5,8.59a19.58,19.58,0,0,0,4,6.29s-3.48,1.13-5.35-1.05-5.09-10.05-8.68-9.14a8.21,8.21,0,0,1,.8-1.83C125.41,401.64,130.6,399.67,130.6,399.67Z"
       style="fill:#e4897b"
       id="path66" />
    <path
       d="M105.93,412.14a8.93,8.93,0,0,0-1.18-3.06h0s-.37-4.39,4.55-12.48l-2.43-3.47a3.49,3.49,0,0,0-3.78-1.31,2.24,2.24,0,0,0-.55.24,24.72,24.72,0,0,0-2.3,2,85,85,0,0,0-6.7,7.78l.57.48,4.4-4.72c1.5-1.59,1.11,1.45-.05,3.55s-2,4.67,1.56,7.87C104.21,412.76,106.12,414.1,105.93,412.14Z"
       style="fill:#2e353a"
       id="path67" />
    <path
       d="M110.93,393.6s-2.07,3.84-4.12,8.32a19.7,19.7,0,0,0-2.06,7.16s-3.14-1.85-2.75-4.7,4.15-10.46,1.09-12.56a8.66,8.66,0,0,1,1.9-.61C106,391,110.93,393.6,110.93,393.6Z"
       style="fill:#e4897b"
       id="path68" />
    <polygon
       points="112.3 230.37 112.12 235.2 145.19 233.91 145.41 228.2 112.3 230.37"
       style="fill:#263238"
       id="polygon68" />
    <polygon
       points="112.3 230.37 112.12 235.2 145.19 233.91 145.41 228.2 112.3 230.37"
       style="fill:#fff;opacity:0.2;isolation:isolate"
       id="polygon69" />
    <rect
       x="121.87"
       y="228.77"
       width="1.64"
       height="8.35"
       transform="translate(-3.1 1.66) rotate(-0.77)"
       style="fill:#263238"
       id="rect69" />
    <rect
       x="130.63"
       y="228.95"
       width="7.24"
       height="5.49"
       transform="translate(-11.78 7.24) rotate(-2.96)"
       style="fill:#fff"
       id="rect70" />
    <rect
       x="142.1"
       y="227.31"
       width="1.64"
       height="8.35"
       transform="translate(-3.05 1.91) rotate(-0.76)"
       style="fill:#263238"
       id="rect71" />
    <path
       d="M103.32,232.41l7.56,4.32a8,8,0,0,1,4.15,3.59c1.85,3-.81,14.44-2.25,14.44s-9.57-1.78-9.46-3.36,3.26-9.1,3.26-9.1l-7.31-4.55Z"
       style="fill:#e4897b"
       id="path71" />
    <path
       d="M112.12,230.36s-2-29.32-8.8-46.08c0,0,14-7.52,40.46-13,0,0,7.58,18.45,1.63,57.27Z"
       style="fill:#144AC5"
       id="path72" />
    <circle
       cx="134.11"
       cy="201.32"
       r="0.94"
       style="fill:#fff;opacity:0.6000000000000001;isolation:isolate"
       id="circle72" />
    <path
       d="M136,212.7a.95.95,0,0,1-1.89,0,.95.95,0,1,1,1.89,0Z"
       style="fill:#fff;opacity:0.6000000000000001;isolation:isolate"
       id="path73" />
    <path
       d="M136,223.51a.95.95,0,0,1-1.89,0,.95.95,0,1,1,1.89,0Z"
       style="fill:#fff;opacity:0.6000000000000001;isolation:isolate"
       id="path74" />
    <path
       d="M103.32,184.28c-6.22,3.42-28.77,29.34-27,37.05s27,19.78,27,19.78l4.33-7.47s-16.52-12.31-17.31-14.29,18.18-16.9,18.18-16.9a66,66,0,0,0-.35-11.87A8.13,8.13,0,0,0,103.32,184.28Z"
       style="fill:#144AC5"
       id="path75" />
    <path
       d="M103.32,184.28c-6.22,3.42-28.77,29.34-27,37.05s27,19.78,27,19.78l4.33-7.47s-16.52-12.31-17.31-14.29,18.18-16.9,18.18-16.9a66,66,0,0,0-.35-11.87A8.13,8.13,0,0,0,103.32,184.28Z"
       style="fill:#fff;opacity:0.6000000000000001;isolation:isolate"
       id="path76" />
    <path
       d="M115,189.48s-6.33-10.34,7.52-13.91,18.07,4.75,18.07,4.75l-6.9-1.19-.87,16.49a26.46,26.46,0,0,0-14.57-12.14Z"
       style="fill:#144AC5"
       id="path77" />
    <path
       d="M115,189.48s-6.33-10.34,7.52-13.91,18.07,4.75,18.07,4.75l-6.9-1.19-.87,16.49a26.46,26.46,0,0,0-14.57-12.14Z"
       style="fill:#fff;opacity:0.6000000000000001;isolation:isolate"
       id="path78" />
    <path
       d="M130.73,187.51a90.45,90.45,0,0,1-13.3-7.65c3.25-3.06,2.66-7.58,1.83-10.4a16.16,16.16,0,0,0-1-2.6l9.57,1.79a27.54,27.54,0,0,0-.37,4,12.07,12.07,0,0,0,.27,3c.65,2.86,2.28,2.9,2.28,2.9C131.71,181.68,130.73,187.51,130.73,187.51Z"
       style="fill:#e4897b"
       id="path79" />
    <path
       d="M127.48,172.68a12.07,12.07,0,0,0,.27,3c-3.8-.5-6.68-3.54-8.49-6.18a16.16,16.16,0,0,0-1-2.6l9.57,1.79A27.54,27.54,0,0,0,127.48,172.68Z"
       style="opacity:0.2;isolation:isolate"
       id="path80" />
    <path
       d="M125.58,141.71c10.31,0,11.17,5,11.76,13.57.74,10.72-1.65,18.34-12.06,16C111.15,168.16,111.75,141.71,125.58,141.71Z"
       style="fill:#e4897b"
       id="path81" />
    <path
       d="M132,154.8a17.49,17.49,0,0,0,2.42,3.46,2.31,2.31,0,0,1-2.2.94Z"
       style="fill:#de5753"
       id="path82" />
    <path
       d="M126.87,154.11c0,.68-.35,1.24-.8,1.25s-.84-.53-.85-1.22.34-1.24.79-1.25S126.85,153.42,126.87,154.11Z"
       style="fill:#263238"
       id="path83" />
    <path
       d="M125.83,152.92l1.47-.61S126.59,153.58,125.83,152.92Z"
       style="fill:#263238"
       id="path84" />
    <path
       d="M135.37,153.79c0,.68-.35,1.24-.8,1.25s-.84-.54-.85-1.22.34-1.25.8-1.26S135.35,153.1,135.37,153.79Z"
       style="fill:#263238"
       id="path85" />
    <path
       d="M134.33,152.6l1.47-.61S135.09,153.25,134.33,152.6Z"
       style="fill:#263238"
       id="path86" />
    <path
       d="M126.8,148.36a4.35,4.35,0,0,0-3.62,1.25"
       style="fill:none;stroke:#263238;stroke-linecap:round;stroke-linejoin:round;stroke-width:0.707962px"
       id="path87" />
    <path
       d="M132.85,148a3.9,3.9,0,0,1,3.32.69"
       style="fill:none;stroke:#263238;stroke-linecap:round;stroke-linejoin:round;stroke-width:0.707962px"
       id="path88" />
    <path
       d="M116.62,156.23s3.91-6.84,3.33-12.12c0,0,5.88-6.06,13.79-.07,0,0,3.3,5.69,3.51,10.12,0,0,1.64-14.87-12.67-15.24s-14.3,20.58-6.92,26.84C117.66,165.76,114.2,160.5,116.62,156.23Z"
       style="fill:#263238"
       id="path89" />
    <path
       d="M118,158a3.65,3.65,0,0,0-3.93-3.35c-2.58.28-3.82,5.57,2.6,6.86C117.57,161.68,118.09,160.79,118,158Z"
       style="fill:#e4897b"
       id="path90" />
    <path
       d="M131.05,163.71s-3.49.79-4.93-2.33"
       style="fill:none;stroke:#263238;stroke-linecap:round;stroke-linejoin:round;stroke-width:0.707962px"
       id="path91" />
    <path
       d="M120,144.11s9.52-4.22,15.82,1.35c0,0,2.47-7.34-6-9.84s-17,5.93-17,5.93Z"
       style="fill:#263238"
       id="path92" />
    <path
       d="M120,144.11s-5.55,5.48-4.75,16.4-.25,17.81-2.42,24.64,3.51,8.87,3.51,8.87-6.47,1.6-7.8-5.33c-.88-4.54,1.2-14.38.16-26.1S111.78,142.58,120,144.11Z"
       style="fill:#263238"
       id="path93" />
  </g>
  <path
     d="m 274.45,119.78 a 9.2,9.2 0 1 0 9.2,9.2 9.2,9.2 0 0 0 -9.2,-9.2 z m 0,8.31 a 2.67,2.67 0 1 1 2.67,-2.67 2.67,2.67 0 0 1 -2.67,2.67 z"
     style="fill:#144ac5"
     id="path94" />
  <path
     d="m 274.45,119.78 a 9.2,9.2 0 1 0 9.2,9.2 9.2,9.2 0 0 0 -9.2,-9.2 z m 0,8.31 a 2.67,2.67 0 1 1 2.67,-2.67 2.67,2.67 0 0 1 -2.67,2.67 z"
     style="opacity:0.6;isolation:isolate;fill:#ffffff"
     id="path95" />
  <rect
     x="175.92"
     y="131.86"
     width="197.05"
     height="286.29999"
     rx="7.4899998"
     style="fill:#00007f"
     id="rect95" />
  <rect
     x="186.35001"
     y="148.5"
     width="176.19"
     height="256.04001"
     style="opacity:0.8;isolation:isolate;fill:#ffffff"
     id="rect96" />
  <rect
     x="225.66"
     y="129.42"
     width="97.580002"
     height="15.88"
     rx="1.9299999"
     style="fill:#144ac5"
     id="rect97" />
  <rect
     x="225.66"
     y="129.42"
     width="97.580002"
     height="15.88"
     rx="1.9299999"
     style="opacity:0.4;isolation:isolate;fill:#ffffff"
     id="rect98" />
  <path
     d="m 310.52,160.05 h -28.24 a 3.15,3.15 0 0 1 -2.82,-1.64 5.67,5.67 0 0 0 -10,0 3.16,3.16 0 0 1 -2.82,1.64 h -28.27 a 3,3 0 0 1 -3,-3 V 140.2 a 3,3 0 0 1 3,-3 h 72.15 a 3,3 0 0 1 3,3 V 157 a 3,3 0 0 1 -3,3.05 z m -36.07,-6.65 a 7.64,7.64 0 0 1 6.77,4.07 1.19,1.19 0 0 0 1.06,0.58 h 28.24 a 1,1 0 0 0 1,-1 V 140.2 a 1,1 0 0 0 -1,-1 h -72.15 a 1,1 0 0 0 -1,1 V 157 a 1,1 0 0 0 1,1 h 28.26 a 1.18,1.18 0 0 0 1.05,-0.58 7.65,7.65 0 0 1 6.77,-4.02 z"
     style="fill:#263238"
     id="path98" />
  <g
     style="opacity:0.2;isolation:isolate"
     id="g99">
    <path
       d="m 310.52,160.05 h -28.24 a 3.15,3.15 0 0 1 -2.82,-1.64 5.67,5.67 0 0 0 -10,0 3.16,3.16 0 0 1 -2.82,1.64 h -28.27 a 3,3 0 0 1 -3,-3 V 140.2 a 3,3 0 0 1 3,-3 h 72.15 a 3,3 0 0 1 3,3 V 157 a 3,3 0 0 1 -3,3.05 z m -36.07,-6.65 a 7.64,7.64 0 0 1 6.77,4.07 1.19,1.19 0 0 0 1.06,0.58 h 28.24 a 1,1 0 0 0 1,-1 V 140.2 a 1,1 0 0 0 -1,-1 h -72.15 a 1,1 0 0 0 -1,1 V 157 a 1,1 0 0 0 1,1 h 28.26 a 1.18,1.18 0 0 0 1.05,-0.58 7.65,7.65 0 0 1 6.77,-4.02 z"
       style="fill:#ffffff"
       id="path99" />
  </g>
  <rect
     x="241.53"
     y="134.27"
     width="65.870003"
     height="6.8200002"
     rx="1.16"
     style="fill:#144ac5"
     id="rect99" />
  <rect
     x="241.5"
     y="134.27"
     width="65.870003"
     height="6.8200002"
     rx="1.16"
     style="opacity:0.6;isolation:isolate;fill:#ffffff"
     id="rect100" />
  <rect
     x="273.01001"
     y="288.34"
     width="17.799999"
     height="17.799999"
     style="opacity:0.3;isolation:isolate"
     id="rect101" />
  <path
     d="m 288.73,313.3 h -13.64 a 2.08,2.08 0 0 1 -2.08,-2.08 v 0 a 2.08,2.08 0 0 1 2.08,-2.07 h 13.64 a 2.08,2.08 0 0 1 2.08,2.07 v 0 a 2.08,2.08 0 0 1 -2.08,2.08 z"
     style="opacity:0.3;isolation:isolate"
     id="path101" />
  <rect
     x="298.32999"
     y="288.34"
     width="49.580002"
     height="3.8099999"
     rx="1.9"
     style="opacity:0.3;isolation:isolate"
     id="rect102" />
  <rect
     x="298.32999"
     y="298.34"
     width="39.580002"
     height="3.8099999"
     rx="1.9"
     style="opacity:0.3;isolation:isolate"
     id="rect103" />
  <rect
     x="298.32999"
     y="308.34"
     width="49.580002"
     height="3.8099999"
     rx="1.9"
     style="opacity:0.3;isolation:isolate"
     id="rect104" />
  <rect
     x="298.32999"
     y="318.34"
     width="23.58"
     height="3.8099999"
     rx="1.9"
     style="opacity:0.3;isolation:isolate"
     id="rect105" />
  <path
     d="M 327.06,174.87 H 221.34 a 3.46,3.46 0 0 1 -3.45,-3.45 v 0 a 3.45,3.45 0 0 1 3.45,-3.45 h 105.72 a 3.45,3.45 0 0 1 3.45,3.45 v 0 a 3.46,3.46 0 0 1 -3.45,3.45 z"
     style="opacity:0.3;isolation:isolate"
     id="path105" />
  <path
     d="m 344.69,195.29 h -69.78 a 1.91,1.91 0 0 1 -1.9,-1.91 v 0 a 1.9,1.9 0 0 1 1.9,-1.9 h 69.78 a 1.9,1.9 0 0 1 1.9,1.9 v 0 a 1.91,1.91 0 0 1 -1.9,1.91 z"
     style="opacity:0.3;isolation:isolate"
     id="path106" />
  <path
     d="m 334.69,205.29 h -59.78 a 1.91,1.91 0 0 1 -1.9,-1.91 v 0 a 1.9,1.9 0 0 1 1.9,-1.9 h 59.78 a 1.9,1.9 0 0 1 1.9,1.9 v 0 a 1.91,1.91 0 0 1 -1.9,1.91 z"
     style="opacity:0.3;isolation:isolate"
     id="path107" />
  <path
     d="m 344.69,215.29 h -69.78 a 1.91,1.91 0 0 1 -1.9,-1.91 v 0 a 1.9,1.9 0 0 1 1.9,-1.9 h 69.78 a 1.9,1.9 0 0 1 1.9,1.9 v 0 a 1.91,1.91 0 0 1 -1.9,1.91 z"
     style="opacity:0.3;isolation:isolate"
     id="path108" />
  <path
     d="m 324.69,225.29 h -49.78 a 1.91,1.91 0 0 1 -1.9,-1.91 v 0 a 1.9,1.9 0 0 1 1.9,-1.9 h 49.78 a 1.9,1.9 0 0 1 1.9,1.9 v 0 a 1.91,1.91 0 0 1 -1.9,1.91 z"
     style="opacity:0.3;isolation:isolate"
     id="path109" />
  <polygon
     points="281.56,239.79 279.78,241.52 280.2,243.97 278,242.81 275.81,243.97 276.23,241.52 274.45,239.79 276.9,239.43 278,237.21 279.1,239.43 "
     style="opacity:0.3;isolation:isolate"
     id="polygon109" />
  <polygon
     points="293.97,239.79 292.19,241.52 292.61,243.97 290.42,242.81 288.22,243.97 288.64,241.52 286.86,239.79 289.32,239.43 290.42,237.21 291.52,239.43 "
     style="opacity:0.3;isolation:isolate"
     id="polygon110" />
  <polygon
     points="306.39,239.79 304.61,241.52 305.03,243.97 302.83,242.81 300.63,243.97 301.05,241.52 299.28,239.79 301.73,239.43 302.83,237.21 303.93,239.43 "
     style="opacity:0.3;isolation:isolate"
     id="polygon111" />
  <polygon
     points="318.8,239.79 317.02,241.52 317.44,243.97 315.25,242.81 313.05,243.97 313.47,241.52 311.69,239.79 314.15,239.43 315.25,237.21 316.34,239.43 "
     style="opacity:0.3;isolation:isolate"
     id="polygon112" />
  <polygon
     points="331.21,239.79 329.44,241.52 329.86,243.97 327.66,242.81 325.46,243.97 325.88,241.52 324.11,239.79 326.56,239.43 327.66,237.21 328.76,239.43 "
     style="opacity:0.3;isolation:isolate"
     id="polygon113" />
  <polygon
     points="281.56,252.53 279.78,254.26 280.2,256.71 278,255.55 275.81,256.71 276.23,254.26 274.45,252.53 276.9,252.17 278,249.95 279.1,252.17 "
     style="opacity:0.3;isolation:isolate"
     id="polygon114" />
  <polygon
     points="293.97,252.53 292.19,254.26 292.61,256.71 290.42,255.55 288.22,256.71 288.64,254.26 286.86,252.53 289.32,252.17 290.42,249.95 291.52,252.17 "
     style="opacity:0.3;isolation:isolate"
     id="polygon115" />
  <polygon
     points="306.39,252.53 304.61,254.26 305.03,256.71 302.83,255.55 300.63,256.71 301.05,254.26 299.28,252.53 301.73,252.17 302.83,249.95 303.93,252.17 "
     style="opacity:0.3;isolation:isolate"
     id="polygon116" />
  <polygon
     points="318.8,252.53 317.02,254.26 317.44,256.71 315.25,255.55 313.05,256.71 313.47,254.26 311.69,252.53 314.15,252.17 315.25,249.95 316.34,252.17 "
     style="opacity:0.1;isolation:isolate"
     id="polygon117" />
  <polygon
     points="331.21,252.53 329.44,254.26 329.86,256.71 327.66,255.55 325.46,256.71 325.88,254.26 324.11,252.53 326.56,252.17 327.66,249.95 328.76,252.17 "
     style="opacity:0.1;isolation:isolate"
     id="polygon118" />
  <polygon
     points="281.56,265.27 279.78,267 280.2,269.45 278,268.29 275.81,269.45 276.23,267 274.45,265.27 276.9,264.91 278,262.69 279.1,264.91 "
     style="opacity:0.3;isolation:isolate"
     id="polygon119" />
  <polygon
     points="293.97,265.27 292.19,267 292.61,269.45 290.42,268.29 288.22,269.45 288.64,267 286.86,265.27 289.32,264.91 290.42,262.69 291.52,264.91 "
     style="opacity:0.3;isolation:isolate"
     id="polygon120" />
  <polygon
     points="306.39,265.27 304.61,267 305.03,269.45 302.83,268.29 300.63,269.45 301.05,267 299.28,265.27 301.73,264.91 302.83,262.69 303.93,264.91 "
     style="opacity:0.3;isolation:isolate"
     id="polygon121" />
  <polygon
     points="318.8,265.27 317.02,267 317.44,269.45 315.25,268.29 313.05,269.45 313.47,267 311.69,265.27 314.15,264.91 315.25,262.69 316.34,264.91 "
     style="opacity:0.3;isolation:isolate"
     id="polygon122" />
  <polygon
     points="331.21,265.27 329.44,267 329.86,269.45 327.66,268.29 325.46,269.45 325.88,267 324.11,265.27 326.56,264.91 327.66,262.69 328.76,264.91 "
     style="opacity:0.1;isolation:isolate"
     id="polygon123" />
  <rect
     x="273.01001"
     y="338.34"
     width="17.799999"
     height="17.799999"
     style="opacity:0.3;isolation:isolate"
     id="rect123" />
  <path
     d="m 288.73,363.3 h -13.64 a 2.08,2.08 0 0 1 -2.08,-2.08 v 0 a 2.08,2.08 0 0 1 2.08,-2.07 h 13.64 a 2.08,2.08 0 0 1 2.08,2.07 v 0 a 2.08,2.08 0 0 1 -2.08,2.08 z"
     style="opacity:0.3;isolation:isolate"
     id="path123" />
  <rect
     x="298.32999"
     y="338.34"
     width="49.580002"
     height="3.8099999"
     rx="1.9"
     style="opacity:0.3;isolation:isolate"
     id="rect124" />
  <rect
     x="298.32999"
     y="348.34"
     width="39.580002"
     height="3.8099999"
     rx="1.9"
     style="opacity:0.3;isolation:isolate"
     id="rect125" />
  <rect
     x="298.32999"
     y="358.34"
     width="49.580002"
     height="3.8099999"
     rx="1.9"
     style="opacity:0.3;isolation:isolate"
     id="rect126" />
  <rect
     x="298.32999"
     y="368.34"
     width="23.58"
     height="3.8099999"
     rx="1.9"
     style="opacity:0.3;isolation:isolate"
     id="rect127" />
  <rect
     x="197.47"
     y="286.63"
     width="64.18"
     height="85.099998"
     style="opacity:0.3;isolation:isolate"
     id="rect155" />
  <path
     d="m 250.86,299.82 h -43.77 a 1.91,1.91 0 0 1 -1.9,-1.91 v 0 a 1.9,1.9 0 0 1 1.9,-1.9 h 43.77 a 1.9,1.9 0 0 1 1.91,1.9 v 0 a 1.91,1.91 0 0 1 -1.91,1.91 z"
     style="opacity:0.3;isolation:isolate;fill:#ffffff"
     id="path156" />
  <rect
     x="205.19"
     y="306.64999"
     width="47.580002"
     height="3.8099999"
     rx="1.9"
     style="opacity:0.3;isolation:isolate;fill:#ffffff"
     id="rect156" />
  <path
     d="m 230.86,321.11 h -23.77 a 1.91,1.91 0 0 1 -1.9,-1.91 v 0 a 1.9,1.9 0 0 1 1.9,-1.9 h 23.77 a 1.9,1.9 0 0 1 1.91,1.9 v 0 a 1.91,1.91 0 0 1 -1.91,1.91 z"
     style="opacity:0.3;isolation:isolate;fill:#ffffff"
     id="path157" />
  <path
     d="m 250.86,331.75 h -43.77 a 1.9,1.9 0 0 1 -1.9,-1.9 v 0 a 1.91,1.91 0 0 1 1.9,-1.91 h 43.77 a 1.91,1.91 0 0 1 1.91,1.91 v 0 a 1.9,1.9 0 0 1 -1.91,1.9 z"
     style="opacity:0.3;isolation:isolate;fill:#ffffff"
     id="path158" />
  <path
     d="m 250.86,342.39 h -43.77 a 1.9,1.9 0 0 1 -1.9,-1.9 v 0 a 1.9,1.9 0 0 1 1.9,-1.9 h 43.77 a 1.9,1.9 0 0 1 1.91,1.9 v 0 a 1.9,1.9 0 0 1 -1.91,1.9 z"
     style="opacity:0.3;isolation:isolate;fill:#ffffff"
     id="path159" />
  <path
     d="m 220.86,353 h -13.77 a 1.9,1.9 0 0 1 -1.9,-1.9 v 0 a 1.9,1.9 0 0 1 1.9,-1.91 h 13.77 a 1.9,1.9 0 0 1 1.91,1.91 v 0 a 1.9,1.9 0 0 1 -1.91,1.9 z"
     style="opacity:0.3;isolation:isolate;fill:#ffffff"
     id="path160" />
  <path
     d="m 240.86,363.68 h -33.77 a 1.9,1.9 0 0 1 -1.9,-1.9 v 0 a 1.9,1.9 0 0 1 1.9,-1.9 h 33.77 a 1.9,1.9 0 0 1 1.91,1.9 v 0 a 1.9,1.9 0 0 1 -1.91,1.9 z"
     style="opacity:0.3;isolation:isolate;fill:#ffffff"
     id="path161" />
  <g
     id="freepik--chart-1--inject-117"
     transform="matrix(0.6235254,0,0,0.6235254,107.85021,151.64753)"
     style="stroke-width:1.6038">
    <rect
       x="149.61"
       y="71.080002"
       width="99.82"
       height="87.75"
       rx="4.3699999"
       style="fill:#263238;stroke-width:1.6038"
       id="rect123-3" />
    <path
       d="M 245.06,159.34 H 154 a 4.88,4.88 0 0 1 -4.87,-4.87 v -79 A 4.88,4.88 0 0 1 154,70.58 h 91.08 a 4.88,4.88 0 0 1 4.87,4.87 v 79 a 4.88,4.88 0 0 1 -4.89,4.89 z M 154,71.58 a 3.88,3.88 0 0 0 -3.87,3.87 v 79 a 3.88,3.88 0 0 0 3.87,3.87 h 91.08 a 3.88,3.88 0 0 0 3.87,-3.87 v -79 a 3.88,3.88 0 0 0 -3.87,-3.87 z"
       style="fill:#263238;stroke-width:1.6038"
       id="path123-8" />
    <rect
       x="145.38"
       y="66"
       width="99.82"
       height="87.75"
       rx="4.3699999"
       style="fill:#ffffff;stroke-width:1.6038"
       id="rect124-2" />
    <path
       d="m 240.83,154.26 h -91.08 a 4.88,4.88 0 0 1 -4.87,-4.87 v -79 a 4.88,4.88 0 0 1 4.87,-4.88 h 91.08 a 4.88,4.88 0 0 1 4.87,4.88 v 79 a 4.88,4.88 0 0 1 -4.87,4.87 z M 149.75,66.5 a 3.88,3.88 0 0 0 -3.87,3.88 v 79 a 3.88,3.88 0 0 0 3.87,3.87 h 91.08 a 3.88,3.88 0 0 0 3.87,-3.87 v -79 a 3.88,3.88 0 0 0 -3.87,-3.88 z"
       style="fill:#263238;stroke-width:1.6038"
       id="path124" />
    <rect
       x="155.24001"
       y="137.14999"
       width="1"
       height="3.3900001"
       style="fill:#263238;stroke-width:1.6038"
       id="rect125-7" />
    <rect
       x="163.37"
       y="137.14999"
       width="1"
       height="3.3900001"
       style="fill:#263238;stroke-width:1.6038"
       id="rect126-8" />
    <rect
       x="171.5"
       y="137.14999"
       width="1"
       height="3.3900001"
       style="fill:#263238;stroke-width:1.6038"
       id="rect127-6" />
    <rect
       x="179.63"
       y="137.14999"
       width="1"
       height="3.3900001"
       style="fill:#263238;stroke-width:1.6038"
       id="rect128-2" />
    <rect
       x="187.75999"
       y="137.14999"
       width="1"
       height="3.3900001"
       style="fill:#263238;stroke-width:1.6038"
       id="rect129-0" />
    <rect
       x="195.89"
       y="137.14999"
       width="1"
       height="3.3900001"
       style="fill:#263238;stroke-width:1.6038"
       id="rect130" />
    <rect
       x="204.02"
       y="137.14999"
       width="1"
       height="3.3900001"
       style="fill:#263238;stroke-width:1.6038"
       id="rect131" />
    <rect
       x="212.14999"
       y="137.14999"
       width="1"
       height="3.3900001"
       style="fill:#263238;stroke-width:1.6038"
       id="rect132" />
    <rect
       x="220.28"
       y="137.14999"
       width="1"
       height="3.3900001"
       style="fill:#263238;stroke-width:1.6038"
       id="rect133" />
    <rect
       x="228.41"
       y="137.14999"
       width="1"
       height="3.3900001"
       style="fill:#263238;stroke-width:1.6038"
       id="rect134" />
    <rect
       x="236.53999"
       y="137.14999"
       width="1"
       height="3.3900001"
       style="fill:#263238;stroke-width:1.6038"
       id="rect135" />
    <polygon
       points="176.4,108.69 167.59,100.22 158.79,106.66 158.79,128 233.65,128 233.65,89.72 224.84,94.47 217.73,80.24 208.58,92.09 200.45,84.98 192.66,76.17 184.53,85.66 "
       style="fill:#92e3a9;stroke-width:1.6038"
       id="polygon135" />
    <path
       d="m 233.65,128.5 h -74.86 a 0.5,0.5 0 0 1 -0.5,-0.5 v -21.34 a 0.48,0.48 0 0 1 0.2,-0.4 l 8.81,-6.44 a 0.51,0.51 0 0 1 0.64,0 l 8.25,7.93 7.87,-22.3 a 0.51,0.51 0 0 1 0.09,-0.16 l 8.13,-9.48 a 0.48,0.48 0 0 1 0.38,-0.18 0.52,0.52 0 0 1 0.38,0.17 l 7.79,8.81 7.68,6.72 8.82,-11.44 a 0.51,0.51 0 0 1 0.45,-0.19 0.49,0.49 0 0 1 0.39,0.27 l 6.89,13.77 8.35,-4.5 a 0.5,0.5 0 0 1 0.49,0 0.5,0.5 0 0 1 0.25,0.43 V 128 a 0.5,0.5 0 0 1 -0.5,0.5 z m -74.36,-1 h 73.86 V 90.56 l -8.07,4.35 a 0.53,0.53 0 0 1 -0.39,0 0.5,0.5 0 0 1 -0.3,-0.25 L 217.64,81.14 209,92.4 a 0.49,0.49 0 0 1 -0.35,0.19 0.49,0.49 0 0 1 -0.38,-0.12 l -8.13,-7.11 -7.45,-8.43 -7.7,9 -8.1,23 a 0.49,0.49 0 0 1 -0.35,0.32 0.51,0.51 0 0 1 -0.47,-0.13 l -8.5,-8.18 -8.26,6 z"
       style="fill:#263238;stroke-width:1.6038"
       id="path135" />
    <rect
       x="158.99001"
       y="75.480003"
       width="9.21"
       height="1"
       style="fill:#263238;stroke-width:1.6038"
       id="rect136" />
    <rect
       x="158.99001"
       y="79.32"
       width="9.21"
       height="1"
       style="fill:#263238;stroke-width:1.6038"
       id="rect137" />
    <rect
       x="158.99001"
       y="83.150002"
       width="9.21"
       height="1"
       style="fill:#263238;stroke-width:1.6038"
       id="rect138" />
    <polygon
       points="176.4,121.22 167.59,112.76 158.79,123.94 158.79,132.06 233.65,132.06 233.65,108.48 224.84,111.74 217.73,95.92 208.58,107 200.45,104.29 192.66,121.22 184.53,98.53 "
       style="fill:#263238;stroke-width:1.6038"
       id="polygon138" />
    <path
       d="m 233.65,132.56 h -74.86 a 0.5,0.5 0 0 1 -0.5,-0.5 v -8.13 a 0.5,0.5 0 0 1 0.1,-0.31 l 8.81,-11.17 a 0.52,0.52 0 0 1 0.36,-0.19 0.53,0.53 0 0 1 0.38,0.14 l 8.25,7.93 7.87,-22 A 0.5,0.5 0 0 1 184.53,98 v 0 a 0.5,0.5 0 0 1 0.47,0.33 l 7.72,21.54 7.28,-15.79 a 0.5,0.5 0 0 1 0.61,-0.27 l 7.8,2.6 8.93,-10.81 a 0.5,0.5 0 0 1 0.84,0.11 l 6.93,15.4 8.36,-3.1 a 0.47,0.47 0 0 1 0.46,0.06 0.48,0.48 0 0 1 0.22,0.41 v 23.58 a 0.5,0.5 0 0 1 -0.5,0.5 z m -74.36,-1 h 73.86 V 109.2 l -8.14,3 a 0.51,0.51 0 0 1 -0.63,-0.26 l -6.78,-15.1 -8.6,10.48 a 0.5,0.5 0 0 1 -0.55,0.15 l -7.7,-2.57 -7.61,16.53 a 0.48,0.48 0 0 1 -0.47,0.29 0.49,0.49 0 0 1 -0.45,-0.33 l -7.69,-21.39 -7.66,21.38 a 0.49,0.49 0 0 1 -0.35,0.32 0.51,0.51 0 0 1 -0.47,-0.13 l -8.4,-8.08 -8.36,10.61 z"
       style="fill:#263238;stroke-width:1.6038"
       id="path138" />
  </g>
</svg>
