<?xml version="1.0" standalone="no"?>
<!DOCTYPE svg PUBLIC "-//W3C//DTD SVG 20010904//EN"
 "http://www.w3.org/TR/2001/REC-SVG-20010904/DTD/svg10.dtd">
<svg version="1.0" xmlns="http://www.w3.org/2000/svg"
 width="300.000000pt" height="300.000000pt" viewBox="0 0 300.000000 300.000000"
 preserveAspectRatio="xMidYMid meet">
<metadata>
Created by potrace 1.10, written by Peter Selinger 2001-2011
</metadata>
<g transform="translate(0.000000,300.000000) scale(0.100000,-0.100000)"
fill="#000000" stroke="none">
<path d="M1213 2851 c-65 -19 -155 -61 -188 -89 -55 -46 -65 -71 -65 -161 -1
-80 -2 -88 -28 -112 -15 -14 -36 -29 -47 -34 -13 -5 -16 -9 -7 -12 7 -3 24 2
37 11 13 9 29 16 35 16 6 0 10 -50 10 -140 0 -115 -3 -140 -14 -140 -8 0 -18
-5 -22 -11 -4 -8 0 -9 15 -4 21 6 21 5 21 -138 0 -138 -1 -145 -22 -161 l-23
-17 23 5 22 4 0 -149 c0 -123 -3 -149 -14 -149 -8 0 -18 -5 -22 -12 -5 -8 0
-9 14 -6 21 6 22 3 22 -79 0 -78 -2 -88 -25 -109 -13 -12 -34 -25 -45 -29 -11
-4 -18 -11 -14 -16 3 -6 19 -2 39 10 18 11 36 17 39 14 3 -4 6 -24 6 -45 0
-26 -4 -38 -14 -38 -8 0 -18 -5 -22 -12 -5 -7 0 -9 14 -6 17 5 21 1 24 -20 3
-22 11 -29 58 -43 l55 -17 -32 -12 c-18 -7 -33 -16 -33 -22 0 -6 8 -7 18 -3
71 30 66 30 199 -11 l128 -40 5 -484 c3 -267 6 -486 8 -487 1 -2 21 -12 45
-24 82 -43 271 -36 331 12 l26 20 0 416 0 415 28 -7 c35 -7 188 36 255 72 26
15 64 44 83 65 l34 38 0 745 c0 410 -2 745 -4 745 -2 0 -46 13 -97 29 -532
166 -691 215 -729 227 -54 17 -50 17 -127 -5z m157 -22 c36 -11 224 -70 419
-130 195 -60 356 -111 359 -114 9 -8 -40 -55 -84 -81 -44 -26 -134 -59 -203
-75 -39 -9 -59 -5 -205 42 -88 28 -179 57 -201 64 -42 14 -149 48 -347 110
-65 20 -120 40 -122 44 -7 10 49 62 96 90 46 27 164 69 198 70 14 0 54 -9 90
-20z m-107 -248 c155 -49 342 -108 415 -130 l132 -42 0 -729 c0 -618 -2 -730
-14 -730 -8 0 -43 9 -78 20 -69 21 -82 40 -40 60 14 6 22 13 20 16 -3 2 -17
-1 -32 -7 -17 -8 -26 -20 -26 -35 0 -18 10 -26 50 -39 l50 -17 0 -408 c0 -355
-2 -411 -15 -424 -18 -17 -139 -56 -176 -56 -47 0 -134 30 -151 51 -17 20 -18
58 -18 486 0 438 1 465 18 461 80 -23 202 -64 202 -70 0 -4 -9 -10 -20 -13
-11 -3 -20 -11 -20 -17 0 -12 62 23 67 38 2 6 -2 11 -10 11 -7 0 -120 34 -252
77 -132 43 -244 78 -249 80 -16 4 26 37 55 43 26 5 34 14 30 36 -1 4 10 12 23
17 33 12 42 30 17 30 -12 0 -30 -9 -41 -20 -11 -11 -27 -20 -35 -20 -18 0 -20
-17 -3 -22 6 -2 -12 -14 -41 -26 -46 -20 -56 -21 -92 -10 -47 13 -74 52 -48
69 8 5 19 7 26 5 14 -6 27 24 15 36 -6 6 -16 3 -25 -6 -9 -9 -18 -16 -20 -16
-3 0 -3 66 -2 147 4 144 4 148 26 153 29 7 37 30 10 30 -12 0 -21 -4 -21 -10
0 -5 -3 -10 -7 -10 -5 0 -7 66 -7 147 2 145 2 148 25 153 28 7 36 25 14 34 -9
3 -18 -1 -21 -9 -4 -8 -9 -15 -13 -15 -9 0 -8 290 2 291 4 1 13 2 20 3 14 1
27 16 27 33 0 14 -33 10 -38 -5 -2 -7 -7 -12 -10 -12 -6 0 -7 171 -3 283 1 10
9 17 22 17 12 0 23 8 26 19 5 18 42 41 67 41 19 0 29 30 12 36 -8 3 -23 -3
-34 -14 -10 -10 -33 -25 -50 -33 -18 -8 -32 -20 -32 -26 0 -7 -3 -13 -7 -13
-5 0 -8 34 -8 75 0 41 2 75 3 75 2 0 131 -40 285 -89z m877 -755 l0 -704 -26
-31 c-14 -17 -45 -43 -69 -57 -45 -26 -177 -73 -207 -74 -17 0 -18 41 -18 723
l0 724 58 12 c70 16 194 66 225 92 12 10 25 18 30 19 4 0 7 -317 7 -704z"/>
<path d="M1170 2480 c0 -5 -17 -18 -37 -29 -27 -14 -32 -20 -18 -20 11 0 29 6
39 14 10 8 23 12 29 8 5 -3 13 1 18 8 14 22 11 29 -11 29 -11 0 -20 -4 -20
-10z"/>
<path d="M1620 2428 c0 -7 -20 -22 -43 -32 -23 -11 -51 -28 -62 -38 -11 -10
-29 -25 -40 -34 -11 -8 -14 -13 -7 -9 6 3 12 4 12 1 0 -3 -15 -13 -32 -22 -18
-10 -28 -19 -21 -21 6 -2 23 3 37 12 14 9 30 14 35 11 6 -4 15 2 20 13 8 14 8
21 -2 24 -6 3 0 6 15 6 17 1 29 8 33 19 5 19 44 42 69 42 12 0 26 20 26 36 0
11 -40 2 -40 -8z"/>
<path d="M1350 2422 c0 -5 -17 -16 -37 -27 -21 -10 -32 -20 -25 -22 7 -3 24 3
38 12 14 9 28 14 31 11 7 -7 33 13 33 25 0 5 -9 9 -20 9 -11 0 -20 -4 -20 -8z"/>
<path d="M1194 2395 c-11 -12 -27 -24 -35 -27 -8 -3 -11 -8 -8 -12 4 -4 22 1
40 10 19 10 40 20 48 24 8 3 17 12 19 18 7 21 -42 11 -64 -13z"/>
<path d="M1080 2312 c0 -5 -16 -16 -36 -26 -20 -9 -34 -19 -31 -22 3 -3 19 2
37 11 18 9 34 14 38 11 6 -7 32 13 32 25 0 5 -9 9 -20 9 -11 0 -20 -4 -20 -8z"/>
<path d="M1700 2311 c0 -6 -13 -18 -30 -28 -43 -25 -37 -37 7 -13 20 10 40 17
44 14 4 -2 13 5 19 16 9 18 8 20 -15 20 -14 0 -25 -4 -25 -9z"/>
<path d="M1753 2237 c-4 -7 -21 -21 -36 -31 -16 -9 -26 -20 -23 -23 3 -3 17 2
30 11 14 9 34 16 45 16 19 0 35 23 24 34 -11 10 -32 7 -40 -7z"/>
<path d="M1170 2170 c0 -5 -17 -18 -37 -29 -28 -15 -33 -20 -18 -21 11 0 30 7
41 15 12 8 24 11 28 7 4 -3 11 0 16 8 15 23 12 30 -10 30 -11 0 -20 -4 -20
-10z"/>
<path d="M1618 2142 c-1 -4 -19 -17 -38 -30 -19 -12 -28 -22 -20 -22 9 0 26 7
38 16 13 9 26 13 29 10 7 -7 33 13 33 25 0 11 -37 12 -42 1z"/>
<path d="M1350 2112 c0 -5 -17 -16 -37 -27 -21 -10 -32 -20 -25 -22 7 -3 24 3
38 12 14 9 28 14 31 11 7 -7 33 13 33 25 0 5 -9 9 -20 9 -11 0 -20 -4 -20 -8z"/>
<path d="M1520 2054 c-8 -8 -26 -24 -40 -35 -26 -22 -26 -22 45 5 30 11 45 24
45 39 0 12 -34 6 -50 -9z"/>
<path d="M1080 2030 c0 -5 -17 -18 -37 -29 -21 -11 -32 -20 -25 -21 7 0 26 7
41 15 16 8 32 11 35 7 7 -6 26 16 26 31 0 4 -9 7 -20 7 -11 0 -20 -4 -20 -10z"/>
<path d="M1696 1995 c-3 -8 -17 -20 -31 -27 -14 -6 -25 -15 -25 -20 0 -5 15
-1 33 9 17 9 37 16 44 15 7 -2 17 7 23 18 9 18 8 20 -14 20 -13 0 -26 -7 -30
-15z"/>
<path d="M1170 1860 c0 -5 -13 -16 -30 -25 -16 -9 -30 -20 -30 -26 0 -7 10 -5
25 5 13 9 33 16 44 16 10 0 22 7 25 16 9 23 8 24 -14 24 -11 0 -20 -4 -20 -10z"/>
<path d="M1620 1860 c0 -6 -16 -18 -35 -27 -19 -9 -35 -20 -35 -24 0 -10 93
23 102 36 13 17 9 25 -12 25 -11 0 -20 -5 -20 -10z"/>
<path d="M1350 1802 c0 -5 -17 -16 -37 -27 -21 -10 -33 -20 -26 -22 6 -2 25 3
42 12 17 8 31 13 31 9 0 -4 7 -1 15 6 21 17 19 30 -5 30 -11 0 -20 -4 -20 -8z"/>
<path d="M1069 1742 c-8 -9 -26 -25 -39 -35 -26 -19 -22 -19 45 7 45 16 59 41
27 43 -11 1 -25 -6 -33 -15z"/>
<path d="M1520 1741 c-9 -9 -27 -24 -40 -34 -26 -19 -22 -18 45 7 44 16 60 41
28 42 -10 1 -25 -6 -33 -15z"/>
<path d="M1695 1680 c-10 -11 -26 -22 -36 -25 -11 -4 -19 -11 -19 -16 0 -5 13
-3 30 6 16 8 36 15 44 15 8 0 20 9 26 20 9 17 8 20 -8 20 -10 0 -27 -9 -37
-20z"/>
<path d="M1604 1566 c-11 -11 -29 -27 -40 -34 -19 -13 -19 -13 1 -6 78 26 99
39 89 56 -8 13 -28 7 -50 -16z"/>
<path d="M1160 1542 c-9 -9 -27 -25 -40 -35 -20 -14 -21 -17 -5 -11 76 25 94
37 95 57 0 13 -35 6 -50 -11z"/>
<path d="M1350 1490 c0 -5 -17 -17 -37 -26 -20 -10 -31 -20 -25 -22 6 -2 24 4
40 12 16 8 33 12 36 8 7 -6 26 16 26 31 0 4 -9 7 -20 7 -11 0 -20 -4 -20 -10z"/>
<path d="M1080 1461 c0 -5 -17 -17 -37 -27 -21 -9 -32 -19 -25 -22 7 -2 24 4
38 13 14 9 28 14 31 11 7 -7 33 13 33 25 0 5 -9 9 -20 9 -11 0 -20 -4 -20 -9z"/>
<path d="M1520 1434 c-8 -8 -26 -24 -40 -35 -26 -22 -26 -22 45 5 33 12 46 26
39 38 -8 12 -27 8 -44 -8z"/>
<path d="M1704 1376 c-3 -8 -19 -20 -35 -26 -16 -7 -29 -16 -29 -21 0 -5 13
-3 30 6 16 8 36 15 44 15 8 0 20 9 26 20 9 17 8 20 -10 20 -11 0 -23 -6 -26
-14z"/>
<path d="M1620 1290 c0 -6 -16 -18 -35 -27 -19 -9 -32 -20 -29 -24 3 -5 19 0
36 11 17 10 36 16 41 13 5 -3 13 1 18 8 14 22 11 29 -11 29 -11 0 -20 -5 -20
-10z"/>
<path d="M1484 1196 c-3 -8 -19 -20 -35 -26 -16 -7 -29 -17 -29 -22 0 -5 3 -8
8 -6 4 2 21 10 37 17 52 23 59 27 63 39 5 17 -38 15 -44 -2z"/>
<path d="M1348 1181 c-1 -5 -19 -18 -38 -30 -39 -24 -24 -29 19 -6 16 8 32 11
35 7 7 -6 26 16 26 31 0 10 -38 9 -42 -2z"/>
<path d="M1520 1122 c-9 -9 -27 -25 -40 -35 -20 -14 -21 -17 -5 -11 79 27 99
39 89 56 -8 13 -28 8 -44 -10z"/>
<path d="M1728 1091 c-28 -21 -34 -31 -25 -40 17 -17 27 -13 37 15 7 17 15 24
25 20 9 -3 19 3 25 14 16 30 -17 25 -62 -9z"/>
</g>
</svg>
