<?xml version="1.0" encoding="UTF-8" standalone="no"?>
<!-- Created with Inkscape (http://www.inkscape.org/) -->

<svg
   width="400"
   height="400"
   viewBox="0 0 105.83333 105.83333"
   version="1.1"
   id="svg1"
   inkscape:version="1.3 (0e150ed6c4, 2023-07-21)"
   sodipodi:docname="XZOffsets.svg"
   xmlns:inkscape="http://www.inkscape.org/namespaces/inkscape"
   xmlns:sodipodi="http://sodipodi.sourceforge.net/DTD/sodipodi-0.dtd"
   xmlns="http://www.w3.org/2000/svg"
   xmlns:svg="http://www.w3.org/2000/svg">
  <sodipodi:namedview
     id="namedview1"
     pagecolor="#ffffff"
     bordercolor="#000000"
     borderopacity="0.25"
     inkscape:showpageshadow="2"
     inkscape:pageopacity="0.0"
     inkscape:pagecheckerboard="0"
     inkscape:deskcolor="#d1d1d1"
     inkscape:document-units="mm"
     inkscape:zoom="3.0725"
     inkscape:cx="172.6607"
     inkscape:cy="207.48576"
     inkscape:window-width="2560"
     inkscape:window-height="1506"
     inkscape:window-x="-11"
     inkscape:window-y="-11"
     inkscape:window-maximized="1"
     inkscape:current-layer="layer1" />
  <defs
     id="defs1" />
  <g
     inkscape:label="Layer 1"
     inkscape:groupmode="layer"
     id="layer1">
    <rect
       style="fill:#808080;fill-opacity:0.895196;stroke:#000071;stroke-width:0.699998;stroke-linecap:round;stroke-linejoin:round;stroke-dasharray:none;stroke-opacity:1"
       id="rect1"
       width="9.7308111"
       height="41.248302"
       x="48.051262"
       y="60.709919" />
    <path
       style="fill:#228b22;fill-opacity:0.895196;stroke:#000071;stroke-width:0.7;stroke-linecap:round;stroke-linejoin:round;stroke-dasharray:none;stroke-opacity:1"
       d="m 25.145104,43.796476 c 0.114818,0 0.263265,0.06687 0.344454,0 0.197884,-0.162979 0.100058,-0.857121 0.08611,-1.063864 -0.03984,-0.5906 -0.04267,-1.182685 -0.08611,-1.773111 -0.128156,-1.741596 -0.475648,-1.678899 0.344453,-3.617143 0.679326,-1.605532 1.79664,-3.252853 3.272309,-4.468239 0.523806,-0.431415 1.193842,-0.72319 1.808379,-1.063864 2.681656,-1.486596 5.012555,-2.559018 8.180771,-3.191598 3.419796,-0.682813 6.92662,-0.604867 10.419718,-0.63832 1.521232,-0.01457 3.044478,-0.06105 4.56401,0 0.462295,0.01857 0.916659,0.109293 1.377812,0.141848 0.544145,0.03841 1.101283,-0.01998 1.636154,0.07092 3.267993,0.555403 2.945646,0.503797 4.994577,1.347564 0.344453,0.141848 0.718735,0.242631 1.033359,0.425546 0.183155,0.106482 0.276635,0.291306 0.430567,0.425546 1.521762,1.327073 1.408263,0.836465 2.583402,3.191597 1.263362,2.531946 1.377813,5.04813 1.377813,7.73076 0,0.709245 0.103182,1.423596 0,2.127731 -0.15112,1.031285 -1.266897,3.813158 -1.80838,4.539163 -0.671409,0.900205 -1.625327,1.636571 -2.497288,2.41143 -0.222475,0.197699 -0.483598,0.373791 -0.77502,0.496469 -1.709052,0.719441 -5.590688,1.99285 -7.405751,2.340506 -4.189809,0.802511 -8.575678,0.423104 -12.744778,-0.212773 -0.241152,-0.03678 -0.458235,-0.144169 -0.688906,-0.212774 -0.802712,-0.238739 -1.609114,-0.469028 -2.411175,-0.709245 -1.349375,-0.404132 -2.591879,-0.890046 -3.875103,-1.418486 -0.596823,-0.245778 -2.080728,-0.836706 -2.583399,-1.134791 -0.296493,-0.175821 -0.501071,-0.439233 -0.775021,-0.63832 -0.542819,-0.394479 -1.149593,-0.683957 -1.636154,-1.134791 -0.190704,-0.176697 -0.32598,-0.390696 -0.516681,-0.567394 -0.134847,-0.124945 -0.29691,-0.228814 -0.430567,-0.354622 -0.34227,-0.322171 0.01527,-0.129268 -0.430567,-0.496471 -0.04539,-0.03738 -0.126841,-0.03355 -0.172225,-0.07092 -0.364416,0.112852 -0.123341,-0.2233 -0.172228,-0.283697 -0.03063,-0.03784 -0.644157,-0.601464 -0.688906,-0.63832 -0.07318,-0.06027 -0.185158,-0.08157 -0.258342,-0.14185 -0.07318,-0.06027 -0.09904,-0.152499 -0.172225,-0.212772 -0.568889,-0.468546 -1.611159,-0.911724 -2.325062,-1.205715 z"
       id="path1" />
    <path
       style="fill:#808080;fill-opacity:0.895196;stroke:#000071;stroke-width:0.7;stroke-linecap:round;stroke-linejoin:round;stroke-dasharray:none;stroke-opacity:1"
       d="M 52.916667,95.81635 V 10.942702"
       id="path3" />
    <path
       style="fill:#808080;fill-opacity:0.895196;stroke:#000071;stroke-width:0.7;stroke-linecap:round;stroke-linejoin:round;stroke-dasharray:none;stroke-opacity:1"
       d="M 14.401118,60.168866 V 43.954153"
       id="path3-8" />
    <path
       style="fill:#808080;fill-opacity:0.895196;stroke:#000071;stroke-width:0.7;stroke-linecap:round;stroke-linejoin:round;stroke-dasharray:none;stroke-opacity:1"
       d="M 9.2063377,43.659476 H 39.792169"
       id="path5" />
    <path
       style="fill:#808080;fill-opacity:0.89519602;stroke:#590071;stroke-width:0.699999;stroke-linecap:round;stroke-linejoin:round;stroke-dasharray:none;stroke-opacity:1"
       d="M 10.495657,60.789744 H 44.23015"
       id="path5-9" />
    <path
       style="fill:#808080;fill-opacity:0.895196;stroke:#000071;stroke-width:0.7;stroke-linecap:round;stroke-linejoin:round;stroke-dasharray:none;stroke-opacity:1"
       d="m 13.419141,57.864398 c 0,0 0.912711,2.508333 0.949402,2.37455 0.03666,-0.133776 0.935647,-2.369774 0.935647,-2.369774 z"
       id="path6"
       sodipodi:nodetypes="cscc" />
    <path
       style="fill:#808080;fill-opacity:0.895196;stroke:#000071;stroke-width:0.7;stroke-linecap:round;stroke-linejoin:round;stroke-dasharray:none;stroke-opacity:1"
       d="m 13.468712,46.041246 c 0,0 0.912711,-2.508333 0.949402,-2.37455 0.03666,0.133776 0.935647,2.369774 0.935647,2.369774 z"
       id="path6-8"
       sodipodi:nodetypes="cscc" />
    <path
       style="fill:#808080;fill-opacity:0.895196;stroke:#000071;stroke-width:0.699999;stroke-linecap:round;stroke-linejoin:round;stroke-dasharray:none;stroke-opacity:1"
       d="M 50.974167,14.36639 H 40.310918"
       id="path3-8-6" />
    <path
       style="fill:#808080;fill-opacity:0.895196;stroke:#000071;stroke-width:0.7;stroke-linecap:round;stroke-linejoin:round;stroke-dasharray:none;stroke-opacity:1"
       d="M 39.963845,43.242347 V 12.656516"
       id="path5-3" />
    <path
       style="fill:#808080;fill-opacity:0.895196;stroke:#000071;stroke-width:0.7;stroke-linecap:round;stroke-linejoin:round;stroke-dasharray:none;stroke-opacity:1"
       d="m 50.107658,15.348367 c 0,0 2.508333,-0.912711 2.37455,-0.949402 -0.133776,-0.03666 -2.369774,-0.935647 -2.369774,-0.935647 z"
       id="path6-3"
       sodipodi:nodetypes="cscc" />
    <path
       style="fill:#808080;fill-opacity:0.895196;stroke:#000071;stroke-width:0.7;stroke-linecap:round;stroke-linejoin:round;stroke-dasharray:none;stroke-opacity:1"
       d="m 42.517842,15.298796 c 0,0 -2.508333,-0.912711 -2.37455,-0.949402 0.133776,-0.03666 2.369774,-0.935647 2.369774,-0.935647 z"
       id="path6-8-1"
       sodipodi:nodetypes="cscc" />
    <path
       d="m 23.546936,13.549107 -0.771012,0.952912 0.828889,0.998388 h -0.711067 l -0.460953,-0.605647 -0.444417,0.605647 h -0.690397 l 0.795816,-0.998388 -0.795816,-0.952912 h 0.715201 l 0.419613,0.562239 0.398941,-0.562239 z m 1.327049,0.690396 v 0.562239 h -1.103807 v -0.562239 z m 2.007111,-1.663979 q 0.737939,0 1.194758,0.446484 0.456819,0.444417 0.456819,1.035594 0,0.599447 -0.46302,1.039729 -0.46302,0.440283 -1.188557,0.440283 -0.733805,0 -1.194758,-0.438216 -0.460953,-0.438215 -0.460953,-1.041796 0,-0.593245 0.456819,-1.037661 0.458886,-0.444417 1.198892,-0.444417 z m 0,2.362644 q 0.409277,0 0.659391,-0.241845 0.250114,-0.243913 0.250114,-0.638721 0,-0.396874 -0.250114,-0.63872 -0.250114,-0.241845 -0.659391,-0.241845 -0.411344,0 -0.663525,0.241845 -0.250113,0.241846 -0.250113,0.63872 0,0.394808 0.250113,0.638721 0.252181,0.241845 0.663525,0.241845 z m 2.807061,-1.389061 h 0.279053 v 0.419612 h -0.279053 v 1.531688 h -0.613915 v -1.531688 h -0.279053 v -0.419612 h 0.279053 v -0.09715 q 0,-0.411344 0.23151,-0.642854 0.23151,-0.233577 0.624251,-0.233577 0.09508,0 0.37207,0.03721 v 0.496093 q -0.192236,-0.02481 -0.274919,-0.02481 -0.338997,0 -0.338997,0.341064 z m 1.27744,0 h 0.279053 v 0.419612 h -0.279053 v 1.531688 h -0.613915 v -1.531688 h -0.279053 v -0.419612 h 0.279053 v -0.09715 q 0,-0.411344 0.23151,-0.642854 0.23151,-0.233577 0.624251,-0.233577 0.09508,0 0.37207,0.03721 v 0.496093 q -0.192236,-0.02481 -0.274919,-0.02481 -0.338997,0 -0.338997,0.341064 z m 1.916162,0.10542 v 0.436148 q -0.3514,-0.214973 -0.651123,-0.214973 -0.221175,0 -0.221175,0.150895 0,0.03927 0.04547,0.07855 0.04754,0.03721 0.357601,0.16123 0.310058,0.121956 0.438216,0.283187 0.128157,0.16123 0.128157,0.353466 0,0.303857 -0.206705,0.469222 -0.206706,0.165364 -0.589111,0.165364 -0.392741,0 -0.698665,-0.142627 v -0.432014 q 0.376204,0.165364 0.630452,0.165364 0.297656,0 0.297656,-0.144694 0,-0.05581 -0.05581,-0.10542 -0.05374,-0.04961 -0.367935,-0.171565 -0.314193,-0.121956 -0.429948,-0.268717 -0.115755,-0.146761 -0.115755,-0.326595 0,-0.26665 0.221175,-0.434082 0.223242,-0.167431 0.587044,-0.167431 0.349332,0 0.630452,0.144694 z m 2.368845,1.240233 v 0.386539 q -0.351399,0.256315 -0.87023,0.256315 -0.514697,0 -0.822689,-0.274918 -0.307991,-0.276986 -0.307991,-0.731738 0,-0.446484 0.289388,-0.733805 0.289388,-0.28732 0.737939,-0.28732 0.450618,0 0.737939,0.303857 0.289387,0.30179 0.270784,0.810286 H 33.88428 q 0.0186,0.264583 0.188102,0.40721 0.169499,0.142626 0.454753,0.142626 0.345198,0 0.723469,-0.279052 z m -1.353921,-0.593245 h 0.847492 q -0.04961,-0.425813 -0.423746,-0.425813 -0.378271,0 -0.423746,0.425813 z m 3.187399,-0.752408 v 0.419612 h -0.711067 v 0.804085 q 0,0.144694 0.07855,0.229443 0.08062,0.08268 0.221175,0.08268 0.190169,0 0.411344,-0.113688 v 0.444417 q -0.293522,0.121956 -0.56844,0.121956 -0.359668,0 -0.558105,-0.186035 -0.198438,-0.186035 -0.198438,-0.545702 V 13.968719 H 35.480047 V 13.84883 l 0.816487,-0.913639 h 0.07648 v 0.613916 z"
       id="text6"
       style="font-weight:bold;font-size:4.23333px;line-height:1;font-family:'Gill Sans MT';-inkscape-font-specification:'Gill Sans MT Bold';fill:#d68080;fill-opacity:0.895196;stroke:#000071;stroke-width:0.1;stroke-linecap:round;stroke-linejoin:round"
       aria-label="x-Offset" />
    <path
       d="m 8.1093306,64.09366 h 1.9058254 l -1.000455,1.531688 h 1.000455 V 66.04496 H 8.012179 L 9.014701,64.513272 H 8.1093306 Z m 3.2845514,0.690396 v 0.562239 h -1.103808 v -0.562239 z m 2.007111,-1.66398 q 0.737939,0 1.194758,0.446484 0.456819,0.444417 0.456819,1.035595 0,0.599446 -0.46302,1.039729 -0.463021,0.440283 -1.188557,0.440283 -0.733805,0 -1.194758,-0.438216 -0.460954,-0.438216 -0.460954,-1.041796 0,-0.593245 0.45682,-1.037662 0.458886,-0.444417 1.198892,-0.444417 z m 0,2.362645 q 0.409277,0 0.659391,-0.241846 0.250113,-0.243912 0.250113,-0.63872 0,-0.396874 -0.250113,-0.63872 -0.250114,-0.241845 -0.659391,-0.241845 -0.411344,0 -0.663525,0.241845 -0.250114,0.241846 -0.250114,0.63872 0,0.394808 0.250114,0.63872 0.252181,0.241846 0.663525,0.241846 z m 2.807061,-1.389061 h 0.279053 v 0.419612 H 16.208054 V 66.04496 H 15.594139 V 64.513272 H 15.315086 V 64.09366 h 0.279053 v -0.09715 q 0,-0.411344 0.23151,-0.642854 0.23151,-0.233578 0.624251,-0.233578 0.09508,0 0.37207,0.03721 v 0.496094 q -0.192236,-0.02481 -0.274919,-0.02481 -0.338997,0 -0.338997,0.341064 z m 1.27744,0 h 0.279053 v 0.419612 H 17.485494 V 66.04496 H 16.871579 V 64.513272 H 16.592526 V 64.09366 h 0.279053 v -0.09715 q 0,-0.411344 0.23151,-0.642854 0.23151,-0.233578 0.624251,-0.233578 0.09508,0 0.37207,0.03721 v 0.496094 q -0.192236,-0.02481 -0.274919,-0.02481 -0.338997,0 -0.338997,0.341064 z m 1.916162,0.105419 v 0.436149 q -0.3514,-0.214974 -0.651123,-0.214974 -0.221175,0 -0.221175,0.150895 0,0.03927 0.04548,0.07855 0.04754,0.03721 0.357601,0.16123 0.310058,0.121956 0.438216,0.283186 0.128157,0.161231 0.128157,0.353467 0,0.303857 -0.206705,0.469222 -0.206706,0.165364 -0.589111,0.165364 -0.392741,0 -0.698665,-0.142627 v -0.432014 q 0.376204,0.165364 0.630452,0.165364 0.297656,0 0.297656,-0.144694 0,-0.05581 -0.05581,-0.10542 -0.05374,-0.04961 -0.367935,-0.171565 -0.314193,-0.121957 -0.429948,-0.268718 -0.115755,-0.14676 -0.115755,-0.326594 0,-0.26665 0.221175,-0.434082 0.223242,-0.167431 0.587044,-0.167431 0.349332,0 0.630452,0.144693 z m 2.368845,1.240234 v 0.386539 q -0.3514,0.256315 -0.87023,0.256315 -0.514697,0 -0.822689,-0.274918 -0.307991,-0.276986 -0.307991,-0.731738 0,-0.446484 0.289388,-0.733805 0.289388,-0.28732 0.737939,-0.28732 0.450618,0 0.737939,0.303857 0.289387,0.30179 0.270784,0.810285 h -1.401464 q 0.0186,0.264584 0.188102,0.40721 0.169499,0.142627 0.454752,0.142627 0.345199,0 0.72347,-0.279052 z M 20.41658,64.846068 h 0.847492 q -0.04961,-0.425814 -0.423746,-0.425814 -0.378271,0 -0.423746,0.425814 z m 3.187399,-0.752408 v 0.419612 h -0.711067 v 0.804084 q 0,0.144694 0.07855,0.229444 0.08061,0.08268 0.221175,0.08268 0.190169,0 0.411344,-0.113688 v 0.444417 q -0.293522,0.121956 -0.56844,0.121956 -0.359668,0 -0.558105,-0.186035 -0.198438,-0.186035 -0.198438,-0.545703 v -0.837157 h -0.279052 v -0.119889 l 0.816487,-0.913639 h 0.07648 v 0.613916 z"
       id="text6-7"
       style="font-weight:bold;font-size:4.23333px;line-height:1;font-family:'Gill Sans MT';-inkscape-font-specification:'Gill Sans MT Bold';fill:#d68080;fill-opacity:0.895196;stroke:#000071;stroke-width:0.1;stroke-linecap:round;stroke-linejoin:round"
       aria-label="z-Offset" />
    <g
       id="text6-7-5"
       style="font-weight:bold;font-size:3.175px;line-height:1;font-family:'Gill Sans MT';-inkscape-font-specification:'Gill Sans MT Bold';fill:#d68080;fill-opacity:0.895196;stroke:#000071;stroke-width:0.1;stroke-linecap:round;stroke-linejoin:round"
       aria-label="Center of Pressure&#10;Payload Center of Gravity">
      <path
         d="m 64.800553,61.164336 v 0.472839 q -0.406177,0.215491 -0.851111,0.215491 -0.576709,0 -0.919323,-0.31781 -0.341065,-0.319361 -0.341065,-0.785999 0,-0.466638 0.359668,-0.7922 0.361218,-0.325561 0.942578,-0.325561 0.463538,0 0.784448,0.190686 v 0.482141 q -0.393774,-0.221692 -0.74569,-0.221692 -0.345716,0 -0.565857,0.186035 -0.218592,0.184485 -0.218592,0.471289 0,0.288355 0.215491,0.47594 0.217041,0.187586 0.555005,0.187586 0.167432,0 0.322461,-0.04341 0.155029,-0.04496 0.461987,-0.195337 z m 1.806091,0.206189 v 0.289904 q -0.26355,0.192237 -0.652673,0.192237 -0.386023,0 -0.617017,-0.206189 -0.230993,-0.20774 -0.230993,-0.548804 0,-0.334863 0.217041,-0.550354 0.217041,-0.215491 0.553454,-0.215491 0.337964,0 0.553455,0.227893 0.217041,0.226343 0.203088,0.607715 h -1.051098 q 0.01395,0.198438 0.141076,0.305408 0.127124,0.10697 0.341065,0.10697 0.258899,0 0.542602,-0.209289 z m -1.015442,-0.444934 h 0.635621 q -0.03721,-0.319361 -0.317811,-0.319361 -0.283703,0 -0.31781,0.319361 z m 1.79989,-0.564307 v 0.209289 q 0.203089,-0.238745 0.47594,-0.238745 0.227893,0 0.379822,0.145728 0.153479,0.145727 0.153479,0.417029 v 0.930175 h -0.460437 v -0.891418 q 0,-0.293005 -0.227893,-0.293005 -0.162781,0 -0.320911,0.241845 v 0.942578 h -0.460437 v -1.463476 z m 2.441712,0 v 0.314709 h -0.533301 v 0.603064 q 0,0.108521 0.05891,0.172083 0.06046,0.06201 0.165882,0.06201 0.142626,0 0.308508,-0.08527 v 0.333313 q -0.220142,0.09147 -0.426331,0.09147 -0.269751,0 -0.418579,-0.139527 -0.148828,-0.139526 -0.148828,-0.409277 v -0.627869 h -0.20929 v -0.08992 l 0.612366,-0.685229 h 0.05736 v 0.460437 z m 1.665014,1.009241 v 0.289904 q -0.263549,0.192237 -0.652673,0.192237 -0.386023,0 -0.617017,-0.206189 -0.230993,-0.20774 -0.230993,-0.548804 0,-0.334863 0.217041,-0.550354 0.217041,-0.215491 0.553454,-0.215491 0.337964,0 0.553455,0.227893 0.217041,0.226343 0.203088,0.607715 h -1.051098 q 0.01395,0.198438 0.141076,0.305408 0.127124,0.10697 0.341065,0.10697 0.258899,0 0.542602,-0.209289 z m -1.015442,-0.444934 h 0.635621 q -0.03721,-0.319361 -0.31781,-0.319361 -0.283704,0 -0.317811,0.319361 z m 1.812293,-0.564307 v 0.418579 h 0.0062 q 0.199988,-0.448035 0.466638,-0.448035 0.127124,0 0.305408,0.133326 l -0.127124,0.407727 Q 72.77526,60.76436 72.67294,60.76436 q -0.15968,0 -0.269751,0.198438 -0.10852,0.196887 -0.10852,0.229443 v 0.632519 h -0.460437 v -1.463476 z m 2.587439,-0.02946 q 0.344165,0 0.58291,0.201538 0.240295,0.201538 0.240295,0.561206 0,0.361219 -0.243396,0.559656 -0.243396,0.198438 -0.579809,0.198438 -0.364319,0 -0.596863,-0.21084 -0.230994,-0.21239 -0.230994,-0.550354 0,-0.344165 0.235645,-0.551904 0.237195,-0.20774 0.592212,-0.20774 z m 0,1.247986 q 0.330212,0 0.330212,-0.497644 0,-0.47594 -0.330212,-0.47594 -0.15813,0 -0.248047,0.125574 -0.08837,0.125574 -0.08837,0.359668 0,0.488342 0.336414,0.488342 z m 1.658813,-1.21853 h 0.20929 v 0.314709 h -0.20929 v 1.148767 h -0.460437 v -1.148767 h -0.20929 v -0.314709 h 0.20929 v -0.07286 q 0,-0.308508 0.173633,-0.482141 0.173633,-0.175183 0.468188,-0.175183 0.07131,0 0.279053,0.02791 v 0.37207 q -0.144177,-0.0186 -0.206189,-0.0186 -0.254248,0 -0.254248,0.255798 z m 1.385963,-0.702283 h 0.965832 q 0.328662,0 0.522449,0.190686 0.193787,0.190686 0.193787,0.451135 0,0.269751 -0.192237,0.461988 -0.190686,0.192236 -0.520898,0.192236 h -0.429431 v 0.869714 h -0.539502 z m 0.539502,0.396875 v 0.502295 h 0.251147 q 0.336414,0 0.336414,-0.251147 0,-0.141077 -0.08992,-0.195337 -0.08992,-0.05581 -0.306958,-0.05581 z m 1.942516,0.305408 v 0.418579 h 0.0062 q 0.199988,-0.448035 0.466638,-0.448035 0.127124,0 0.305408,0.133326 l -0.127124,0.407727 q -0.170532,-0.108521 -0.272852,-0.108521 -0.15968,0 -0.269751,0.198438 -0.10852,0.196887 -0.10852,0.229443 v 0.632519 h -0.460437 v -1.463476 z m 2.314588,1.009241 v 0.289904 q -0.26355,0.192237 -0.652673,0.192237 -0.386023,0 -0.617017,-0.206189 -0.230993,-0.20774 -0.230993,-0.548804 0,-0.334863 0.217041,-0.550354 0.217041,-0.215491 0.553454,-0.215491 0.337964,0 0.553455,0.227893 0.217041,0.226343 0.203088,0.607715 h -1.051099 q 0.01395,0.198438 0.141077,0.305408 0.127124,0.10697 0.341065,0.10697 0.258899,0 0.542602,-0.209289 z m -1.015442,-0.444934 h 0.63562 q -0.03721,-0.319361 -0.31781,-0.319361 -0.283703,0 -0.31781,0.319361 z m 2.345593,-0.485242 v 0.327112 q -0.263549,-0.161231 -0.488342,-0.161231 -0.165881,0 -0.165881,0.113172 0,0.02945 0.03411,0.05891 0.03566,0.02791 0.268201,0.120923 0.232544,0.09147 0.328662,0.21239 0.09612,0.120923 0.09612,0.2651 0,0.227893 -0.155029,0.351916 -0.155029,0.124024 -0.441834,0.124024 -0.294555,0 -0.523999,-0.106971 v -0.324011 q 0.282154,0.124024 0.47284,0.124024 0.223242,0 0.223242,-0.108521 0,-0.04186 -0.04186,-0.07906 -0.04031,-0.03721 -0.275952,-0.128674 -0.235645,-0.09147 -0.322461,-0.201538 -0.08682,-0.110071 -0.08682,-0.244946 0,-0.199988 0.165881,-0.325562 0.167432,-0.125574 0.440283,-0.125574 0.262,0 0.472839,0.108521 z m 1.354956,0 v 0.327112 q -0.26355,-0.161231 -0.488342,-0.161231 -0.165881,0 -0.165881,0.113172 0,0.02945 0.03411,0.05891 0.03566,0.02791 0.268201,0.120923 0.232544,0.09147 0.328662,0.21239 0.09612,0.120923 0.09612,0.2651 0,0.227893 -0.155029,0.351916 -0.15503,0.124024 -0.441834,0.124024 -0.294556,0 -0.523999,-0.106971 v -0.324011 q 0.282153,0.124024 0.472839,0.124024 0.223243,0 0.223243,-0.108521 0,-0.04186 -0.04186,-0.07906 -0.04031,-0.03721 -0.275952,-0.128674 -0.235645,-0.09147 -0.322461,-0.201538 -0.08682,-0.110071 -0.08682,-0.244946 0,-0.199988 0.165882,-0.325562 0.167431,-0.125574 0.440283,-0.125574 0.261999,0 0.472839,0.108521 z m 1.358056,1.384411 v -0.209289 q -0.203088,0.237195 -0.472839,0.237195 -0.238745,0 -0.387573,-0.147278 -0.148828,-0.147278 -0.148828,-0.407727 v -0.936377 h 0.460437 v 0.905371 q 0,0.279053 0.230993,0.279053 0.130225,0 0.221692,-0.100769 0.09302,-0.10232 0.09302,-0.150379 v -0.933276 h 0.463537 v 1.463476 z m 1.314648,-1.463476 v 0.418579 h 0.0062 q 0.199987,-0.448035 0.466638,-0.448035 0.127124,0 0.305408,0.133326 l -0.127124,0.407727 q -0.170533,-0.108521 -0.272852,-0.108521 -0.15968,0 -0.269751,0.198438 -0.108521,0.196887 -0.108521,0.229443 v 0.632519 h -0.460437 v -1.463476 z m 2.314589,1.009241 v 0.289904 q -0.26355,0.192237 -0.652674,0.192237 -0.386023,0 -0.617016,-0.206189 -0.230994,-0.20774 -0.230994,-0.548804 0,-0.334863 0.217041,-0.550354 0.217041,-0.215491 0.553455,-0.215491 0.337964,0 0.553454,0.227893 0.217041,0.226343 0.203089,0.607715 h -1.051099 q 0.01395,0.198438 0.141077,0.305408 0.127124,0.10697 0.341064,0.10697 0.258899,0 0.542603,-0.209289 z m -1.015442,-0.444934 h 0.63562 q -0.03721,-0.319361 -0.31781,-0.319361 -0.283704,0 -0.31781,0.319361 z"
         id="path7" />
      <path
         d="m 62.803776,62.834001 h 0.965832 q 0.328662,0 0.522449,0.190686 0.193787,0.190686 0.193787,0.451135 0,0.269751 -0.192237,0.461988 -0.190686,0.192236 -0.520898,0.192236 h -0.429431 v 0.869714 h -0.539502 z m 0.539502,0.396875 v 0.502295 h 0.251147 q 0.336414,0 0.336414,-0.251147 0,-0.141077 -0.08992,-0.195337 -0.08992,-0.05581 -0.306958,-0.05581 z m 2.869592,1.407666 v 0.255798 q -0.229443,0.133326 -0.430981,0.133326 -0.217041,0 -0.257349,-0.164331 -0.240295,0.164331 -0.482141,0.164331 -0.170532,0 -0.289905,-0.106971 -0.119372,-0.10852 -0.119372,-0.251147 0,-0.190686 0.122473,-0.306958 0.124023,-0.117822 0.747241,-0.302307 0.0155,-0.244946 -0.254248,-0.244946 -0.293006,0 -0.539502,0.244946 v -0.375171 q 0.288354,-0.178284 0.63407,-0.178284 0.620117,0 0.620117,0.444934 v 0.666626 q 0,0.10232 0.07596,0.10232 0.05736,0 0.173633,-0.08217 z m -0.710034,0.0062 v -0.353466 q -0.230994,0.08062 -0.31781,0.145727 -0.08527,0.06356 -0.08527,0.162781 0,0.06356 0.04341,0.110071 0.04341,0.04496 0.10542,0.04496 0.130224,0 0.254248,-0.110071 z m 2.198315,-1.108459 -0.979785,2.165759 h -0.489892 l 0.429431,-0.941028 -0.572058,-1.224731 h 0.491442 l 0.308509,0.751892 0.330212,-0.751892 z m 0.663526,-0.702283 V 64.99976 H 67.90424 v -2.165759 z m 1.145666,0.672827 q 0.344165,0 0.58291,0.201538 0.240296,0.201538 0.240296,0.561206 0,0.361219 -0.243396,0.559656 -0.243396,0.198438 -0.57981,0.198438 -0.364319,0 -0.596863,-0.21084 -0.230993,-0.21239 -0.230993,-0.550354 0,-0.344165 0.235644,-0.551904 0.237195,-0.20774 0.592212,-0.20774 z m 0,1.247986 q 0.330212,0 0.330212,-0.497644 0,-0.47594 -0.330212,-0.47594 -0.15813,0 -0.248047,0.125574 -0.08837,0.125574 -0.08837,0.359668 0,0.488342 0.336414,0.488342 z m 2.626196,-0.116272 v 0.255798 q -0.229443,0.133326 -0.430981,0.133326 -0.217041,0 -0.257349,-0.164331 -0.240295,0.164331 -0.482141,0.164331 -0.170532,0 -0.289905,-0.106971 -0.119372,-0.10852 -0.119372,-0.251147 0,-0.190686 0.122473,-0.306958 0.124023,-0.117822 0.747241,-0.302307 0.0155,-0.244946 -0.254248,-0.244946 -0.293005,0 -0.539502,0.244946 v -0.375171 q 0.288354,-0.178284 0.63407,-0.178284 0.620117,0 0.620117,0.444934 v 0.666626 q 0,0.10232 0.07596,0.10232 0.05736,0 0.173633,-0.08217 z m -0.710034,0.0062 v -0.353466 q -0.230994,0.08062 -0.31781,0.145727 -0.08527,0.06356 -0.08527,0.162781 0,0.06356 0.04341,0.110071 0.04341,0.04496 0.10542,0.04496 0.130225,0 0.254248,-0.110071 z m 2.373499,-1.810742 v 2.165759 h -0.460437 v -0.117822 q -0.176734,0.145728 -0.406177,0.145728 -0.293005,0 -0.489893,-0.217041 -0.195336,-0.217041 -0.195336,-0.544153 0,-0.334863 0.198437,-0.547254 0.199988,-0.21239 0.511597,-0.21239 0.193786,0 0.381372,0.09302 v -0.765845 z m -0.460437,1.765784 v -0.699182 q -0.125574,-0.08527 -0.257349,-0.08527 -0.173633,0 -0.271301,0.120922 -0.09612,0.120923 -0.09612,0.339515 0,0.201538 0.09612,0.324011 0.09612,0.120923 0.255798,0.120923 0.141077,0 0.272852,-0.120923 z m 3.790465,-0.260449 v 0.472839 q -0.406176,0.215491 -0.851111,0.215491 -0.576708,0 -0.919323,-0.31781 -0.341065,-0.319361 -0.341065,-0.785999 0,-0.466638 0.359668,-0.7922 0.361219,-0.325561 0.942578,-0.325561 0.463538,0 0.784449,0.190686 v 0.482141 q -0.393775,-0.221692 -0.745691,-0.221692 -0.345716,0 -0.565857,0.186035 -0.218592,0.184485 -0.218592,0.471289 0,0.288355 0.215491,0.47594 0.217041,0.187586 0.555005,0.187586 0.167432,0 0.322461,-0.04341 0.155029,-0.04496 0.461987,-0.195337 z m 1.806092,0.206189 v 0.289904 q -0.26355,0.192237 -0.652673,0.192237 -0.386023,0 -0.617017,-0.206189 -0.230993,-0.20774 -0.230993,-0.548804 0,-0.334863 0.217041,-0.550354 0.217041,-0.215491 0.553454,-0.215491 0.337964,0 0.553455,0.227893 0.217041,0.226343 0.203088,0.607715 h -1.051098 q 0.01395,0.198438 0.141076,0.305408 0.127124,0.10697 0.341065,0.10697 0.258899,0 0.542602,-0.209289 z M 77.920682,64.10059 h 0.63562 q -0.03721,-0.31936 -0.31781,-0.31936 -0.283703,0 -0.31781,0.31936 z m 1.79989,-0.564306 v 0.209289 q 0.203088,-0.238745 0.475939,-0.238745 0.227894,0 0.379822,0.145728 0.153479,0.145727 0.153479,0.417029 v 0.930175 h -0.460437 v -0.891418 q 0,-0.293005 -0.227893,-0.293005 -0.162781,0 -0.32091,0.241845 v 0.942578 h -0.460437 v -1.463476 z m 2.441712,0 v 0.314709 h -0.5333 v 0.603064 q 0,0.108521 0.05891,0.172083 0.06046,0.06201 0.165881,0.06201 0.142627,0 0.308508,-0.08527 v 0.333313 q -0.220141,0.09147 -0.42633,0.09147 -0.269751,0 -0.418579,-0.139527 -0.148828,-0.139526 -0.148828,-0.409277 v -0.627869 h -0.20929 v -0.08992 l 0.612366,-0.685229 h 0.05736 v 0.460437 z m 1.665014,1.009241 v 0.289904 q -0.26355,0.192237 -0.652674,0.192237 -0.386023,0 -0.617016,-0.206189 -0.230994,-0.20774 -0.230994,-0.548804 0,-0.334863 0.217041,-0.550354 0.217041,-0.215491 0.553455,-0.215491 0.337963,0 0.553454,0.227893 0.217041,0.226343 0.203089,0.607715 h -1.051099 q 0.01395,0.198438 0.141077,0.305408 0.127124,0.10697 0.341064,0.10697 0.258899,0 0.542603,-0.209289 z M 82.811856,64.10059 h 0.63562 q -0.03721,-0.31936 -0.31781,-0.31936 -0.283704,0 -0.31781,0.31936 z m 1.812292,-0.564306 v 0.418579 h 0.0062 q 0.199988,-0.448035 0.466639,-0.448035 0.127124,0 0.305407,0.133325 l -0.127124,0.407728 Q 85.104739,63.93936 85.00242,63.93936 q -0.159681,0 -0.269751,0.198438 -0.108521,0.196887 -0.108521,0.229443 v 0.632519 h -0.460437 v -1.463476 z m 2.58744,-0.02946 q 0.344165,0 0.58291,0.201538 0.240295,0.201538 0.240295,0.561206 0,0.361219 -0.243396,0.559656 -0.243396,0.198438 -0.579809,0.198438 -0.364319,0 -0.596863,-0.21084 -0.230994,-0.21239 -0.230994,-0.550354 0,-0.344165 0.235645,-0.551904 0.237195,-0.20774 0.592212,-0.20774 z m 0,1.247986 q 0.330212,0 0.330212,-0.497644 0,-0.47594 -0.330212,-0.47594 -0.15813,0 -0.248047,0.125574 -0.08837,0.125574 -0.08837,0.359668 0,0.488342 0.336414,0.488342 z m 1.658812,-1.21853 h 0.20929 v 0.314709 H 88.8704 v 1.148767 h -0.460437 v -1.148767 h -0.209289 v -0.314709 h 0.209289 v -0.07286 q 0,-0.308508 0.173633,-0.482141 0.173633,-0.175183 0.468189,-0.175183 0.07131,0 0.279052,0.02791 v 0.37207 q -0.144177,-0.0186 -0.206189,-0.0186 -0.254248,0 -0.254248,0.255798 z m 3.430799,-0.551904 v 0.472839 q -0.413928,-0.199988 -0.809253,-0.199988 -0.381372,0 -0.587561,0.192236 -0.206189,0.192237 -0.206189,0.489893 0,0.285254 0.206189,0.461987 0.206189,0.176734 0.542603,0.176734 0.178284,0 0.358118,-0.07751 v -0.252698 h -0.31316 v -0.396875 h 0.854212 v 0.885218 q -0.128675,0.128674 -0.392224,0.210839 -0.262,0.08062 -0.519348,0.08062 -0.565857,0 -0.930176,-0.311609 -0.362769,-0.313159 -0.362769,-0.795301 0,-0.492993 0.362769,-0.803051 0.364319,-0.311609 0.942578,-0.311609 0.47749,0 0.854211,0.178284 z m 0.936377,0.551904 v 0.418579 h 0.0062 q 0.199988,-0.448035 0.466639,-0.448035 0.127124,0 0.305407,0.133325 l -0.127124,0.407728 q -0.170532,-0.108521 -0.272851,-0.108521 -0.15968,0 -0.269751,0.198438 -0.108521,0.196887 -0.108521,0.229443 v 0.632519 h -0.460437 v -1.463476 z m 2.444812,1.102258 v 0.255798 q -0.229444,0.133326 -0.430982,0.133326 -0.217041,0 -0.257349,-0.164331 -0.240295,0.164331 -0.482141,0.164331 -0.170532,0 -0.289904,-0.106971 -0.119373,-0.10852 -0.119373,-0.251147 0,-0.190686 0.122473,-0.306958 0.124024,-0.117822 0.747241,-0.302307 0.0155,-0.244946 -0.254248,-0.244946 -0.293005,0 -0.539502,0.244946 v -0.375171 q 0.288355,-0.178284 0.63407,-0.178284 0.620117,0 0.620117,0.444934 v 0.666626 q 0,0.10232 0.07596,0.10232 0.05736,0 0.173633,-0.08217 z m -0.710035,0.0062 v -0.353466 q -0.230993,0.08062 -0.31781,0.145727 -0.08527,0.06356 -0.08527,0.162781 0,0.06356 0.04341,0.110071 0.04341,0.04496 0.10542,0.04496 0.130225,0 0.254248,-0.110071 z m 1.280546,0.382923 -0.675928,-1.491382 h 0.492994 l 0.310058,0.806152 0.31471,-0.806152 h 0.488342 l -0.672827,1.491382 z m 1.111558,-1.967322 q 0,-0.10542 0.07441,-0.179834 0.07441,-0.07441 0.178284,-0.07441 0.10542,0 0.179834,0.07441 0.07441,0.07441 0.07441,0.179834 0,0.10387 -0.07441,0.179834 -0.07441,0.07441 -0.179834,0.07441 -0.10387,0 -0.178284,-0.07441 -0.07441,-0.07596 -0.07441,-0.179834 z m 0.485242,0.47594 v 1.463476 h -0.460437 v -1.463476 z m 1.441772,0 v 0.314709 H 98.75817 v 0.603064 q 0,0.108521 0.05891,0.172083 0.06046,0.06201 0.165882,0.06201 0.142627,0 0.308508,-0.08527 v 0.333313 q -0.220142,0.09147 -0.42633,0.09147 -0.269751,0 -0.41858,-0.139527 -0.148828,-0.139526 -0.148828,-0.409277 v -0.627869 h -0.209289 v -0.08992 l 0.612365,-0.685229 h 0.05736 v 0.460437 z m 1.661909,0 -0.979782,2.165759 h -0.489892 l 0.429431,-0.941028 -0.572058,-1.224731 h 0.491443 l 0.308508,0.751892 0.33021,-0.751892 z"
         id="path8" />
    </g>
    <ellipse
       id="path4"
       style="fill:#ff0000;stroke:none;stroke-width:0.264583"
       cx="39.8382"
       cy="43.584133"
       rx="1.9434263"
       ry="1.8788412" />
  </g>
</svg>
